<mxfile host="65bd71144e">
    <diagram id="_tqhg3r43FuhO4X65Qth" name="Page-1">
        <mxGraphModel dx="1531" dy="550" grid="1" gridSize="10" guides="1" tooltips="1" connect="1" arrows="1" fold="1" page="1" pageScale="1" pageWidth="850" pageHeight="1100" math="0" shadow="0">
            <root>
                <mxCell id="0"/>
                <mxCell id="1" parent="0"/>
                <mxCell id="2" value="" style="shape=image;verticalLabelPosition=bottom;labelBackgroundColor=default;verticalAlign=top;aspect=fixed;imageAspect=0;image=data:image/png,iVBORw0KGgoAAAANSUhEUgAAA5UAAAJQCAYAAAAe+kBgAAAAAXNSR0IArs4c6QAAAARnQU1BAACxjwv8YQUAAAAJcEhZcwAADsMAAA7DAcdvqGQAAP+lSURBVHhe7N13WBPZ9z/wNxCkKQpY0Q2ICwiCooiLuva+roKrgthYXXvvbe1tXdta+Kgr9l5XsfcCFgQVKxaahSJdSiCRIff3x4/Ml4zYMKGE83oeHuCemwkhyWTOnDv3ajHGGAghhBBCCCGEkELQFjYQQgghhBBCCCFfi5JKQgghhBBCCCGFRkklIYQQQgghhJBCo6SSEEIIIYQQQkihUVJJCCGEEEIIIaTQKKkkhBBCCCGEEFJolFQSQgghhBBCCCk0SioJIYQQQgghhBQaJZWEEEIIIYQQQgqNkkpCCCGEEEIIIYVGSSUhhBBCCCGEkEKjpJIQQgghhBBCSKFRUkkIIYQQQgghpNAoqSSEEEIIIYQQUmiUVBJCCCGEEEIIKTRKKgkhhBBCCCGEFBollYQQQgghhBBCCo2SSkIIIYQQQgghhUZJJSGEEEIIIYSQQqOkkhBCCCGEEEJIoVFSSQghhBBCCCGk0CipJIQQQgghhBBSaJRUEkIIIYQQQggpNEoqCSGEEEIIIYQUGiWVhBBCCCGEEEIKjZJKQgghhBBCCCGFRkklIYQQQgghhJBCo6SSEEIIIYQQQkihUVJJCCGEEEIIIaTQKKkkhBBCCCGEEFJolFQSQgghhBBCCCk0SioJIYQQQgghhBQaJZWEEEIIIYQQQgqNkkpCCCFFjuM4ZGVlCZuLhEQiQW5urrCZEEIIIYVESSUhhJAit337djRv3hwvX74UhtQqKSkJnTt3xuLFi8EYE4Y1FsdxeP/+fZl6zIQQQooOJZWEEEKKHMdxSElJwZs3b4Shb8IYw7Nnz/D8+XNhqEByuRwcxyE0NLTYKqXFwdfXFw0aNMDJkyeFIUIIIeS7UVJJCCFlQHh4ONzd3bFq1SpwHCcMF5uoqChh0zeJiIhAnz59MG/ePEgkEmH4k2JjY5GdnS1s1kgcx+Hhw4cAgBs3bgjDhBBCyHejpJIQQsqAY8eOISQkBEFBQZDJZMJwsfneBDc7OxsymQwGBgYQiUTC8CdxHAe5XC5s1kgymQxJSUmACv7fxYnjOCxevBgjR478phMIhBBC1I+SSkII0XASiQR3794FAOjo6EBLS0vYpciFhYUBAKytrYWhbyKXy8EYg6mpKfT09IThj8THxyM1NRVisRhGRkbCsFpxHIdbt25h1qxZaNq0KSwtLdGkSROsWbMGUqlU2F1lkpOT8erVK2FzqSOTyfD48WNcvXoVkZGRwjAhhJBiREklIYRouBcvXuDevXsAgOrVq8PQ0FDYRS3i4uLQuXNnODo64sGDB8KwSiQmJkIqlX53cqpqWVlZ8PPzw/Hjx3Hw4EEMHz4c1tbW8PLywt69exEbGwvGGOLj4/HPP/+odVjqmzdv+EplUdu6dSssLCwwY8aMUl0lJYQQ8nmUVBJCiAbjOA4HDhxATk6OMKR279+/x5s3b5Ceno4JEyYgJiZGKS4SiVCxYkWltm+lSFS+ZegrAJiYmHxVZbOwbt26hXHjxmH8+PGYNm0azp07BxMTE0yZMgUXLlxAcHAwgoODcfz4cVhYWHzz3/8tpFIpP+trjRo1hGG1evHiBQBg//792LJli0pmn83OzkZ8fLywmRBCSDGipJIQQjTY/fv38d9///G/F2VSUbduXfz9998wMzNDVFQUrl27phTX1dWFvr6+Utu3Ukz0U7t2bWHoswwNDdWayOnr6/PDjJs2bYpz587h3r17GDt2LGxtbVG1alVUrVoVDRs2hL+/P1q3bi3chMrkrxBWqlRJKaZuU6dORdeuXQEAR44cQWpqqrDLV2GMIS0tjb8eeOzYsWjUqBEsLCz4r2HDhpWo64UJIaQsoaSSEEI0VGpqKhYvXgyRSIQhQ4YAAMqXL8/HOY7Dli1bcPz48U9WkBhjSE1NLdTEKFpaWujWrRuCg4Px/Plz9OvXD8i736ysLGhra393YpeZmflNFU+pVIqcnJwv3m9GRsZ3DdesV68e7O3tYW5ujnXr1sHOzq7YrmVVJN5aWlqws7MThtWqSpUq2LBhA54/f47z58/D1NRU2OWzOI7DnDlzYGlpiaZNmyIkJATIG16cnJwMALCxsYGHhwf69++PcuXKKd1eJpPhwoULGDFiBOzs7GBhYYHOnTsjLi5OqR8hhJDvQ0klIYRoIMYYtm7diocPH6Jnz55wcXERdsGNGzewaNEizJs3DxEREcIwkNenUaNGGD169EdVIJlMhoSEBCQkJHw26dTR0YGBgQH/u0wmQ2pqKipWrAgzMzOlvgq5ublITk5GQkICUlNTP5n0xsXFfVPFMy0tDRzHFVjZzM3NhZ+fH+rVqwcHBwfUqVMHY8eOxfv374Vdv6hcuXKoUKGCsBnIS5RevnyJM2fO4ODBg5g3bx6OHTuGzMxMYVdebm4uzp49i9mzZ+PZs2fCsBKJRIL09HRhM6ysrFC3bl1hM6RSKXbs2IE2bdpg4MCBuHLlCnJzc4XdeFKpFH5+fujbty+aNm2Kvn37Ytu2bZ+tQhoYGEBHR0fYrCQsLAzz5s1TOsnx/v37jyrcADBkyBDcvn0bERERuHjxIlasWIGWLVvyiTtjDCdPnkSjRo0wdOhQnD17ll+XNC4u7rOvV0IIId+OkkpCCNFA586dw//+9z/Y2Nhg0qRJBVbm9PX1oa2tDalUWuBBNsdxOHToEORyORo0aMBfgyiVSrFkyRLY2NjAxcUFLi4usLe3x+LFiz+Z/H0txhguX76M+vXro1GjRnBxcYGTkxO6du3KV6YUFBVPVeA4DnPnzsW4ceMglUrRrl07mJmZ4cSJE1i6dGmhqpa5ubnIzc1FYGAgn0AOGDAA1tbW6NChA0aOHIlp06Zhx44dmDBhAiZNmsQn7gcPHoSlpSVOnDgBxhh8fX0xYsQI7N69G+PGjfvofwEA0dHR6N27N+zt7eHo6IjatWtjwYIF/HPbokULVK5cWek2cXFx6N27N+bNm4fIyEhcv34dgwYNwq+//lrgDKthYWHo0aMHxo0bh5s3byI2NhY3b97EggUL0KhRI6xfv/6rZrKNjIxEo0aNMHbsWHAchwcPHuC3337Djh07MHHiRH7iosqVK+Off/7B5MmTceHCBbi5uQF5Q4rNzc0LfF0DwMmTJzFmzBhkZmbCwsIC69evR2BgIB4/foyHDx/ixx9/FN6EEELId6CkkhBCNMzTp08xbdo0lC9fHitWrPhkNbBx48bo0qULpFJpgcMBHz9+jIsXL6Jq1aro0aMHkDcsdPjw4di8eTPMzMzg4eGB5cuXY+rUqdi+fTu2bNmitI3IyEi0aNECFy9e5Ns+lQwyxrBlyxYMHjwYWVlZ6NChA2bOnIl//vkHmZmZGD9+vFLyq6h45uTkYMmSJfzwRsVXmzZtcOrUKaWq26eqgdu3b8eePXtQv359XL9+Hdu2bcPFixdhZ2eHR48eISMjQ3iTz5JIJIiJiUF8fDzGjh3LJ5D+/v4oX748evXqhfXr1+PatWu4desWli9fjp49e/LDN83MzMAYQ0xMDM6dO4e///6b3/bLly9x7ty5fPcGxMTEoH///ggKCoK2tjaqV6+OypUrY9u2bdi6dSuQN/NvfowxbN68GY8ePYK9vT3Wrl2L5cuXw97eHqGhoRg8eLDS5EoBAQHo2LEjQkNDIRKJsHDhQgQGBuLWrVuYOXMmDA0NsXLlSsyfP18pCf/rr78wYMAApeeufPny0NPTQ0JCAiIiIjBhwgS+uiqXy7F161Y+wW7cuDHGjRsHW1tbfvjul5J8ReVdS0sLI0aMQNeuXVGjRg0YGxsLuxJCCFEBSioJIUSDZGRkYMmSJUhPT8e4cePg5OQE5Eum8idYIpGITxYfP37MtyOvGrl+/XpkZ2dj/PjxsLS0BMdxmD59Oq5duwZPT0/cunULK1asgKenJ3788UdwHIcTJ04gLS2N345EIkFiYqLSkiIymQxJSUkQiUTQ1v6/j6Hjx49j8eLFqF27Nq5evYotW7ZgxIgRaNq0KWQyGW7fvo3Q0FC+f3Z2NmJjY8FxHG7fvg2pVIqmTZvCy8sLrq6uiIyMxOjRo7Ft2zb+NorkOX+F6+XLl9iwYQMMDQ0xf/581KpVC4wx3Lp1Cy9evCjUMizJyclK/wdtbW307NkT58+fx4MHD7Bq1Sp0794dtWvXRs2aNeHp6YlOnTrxwzcVz9erV6+wdOlS6OnpYfv27VizZg0A4M6dO3xVmOM4rF27FlFRUWjevDmCgoJw584dBAcH4969e/zkTKGhoUrJWHJyMi5duoSqVati48aNcHd3h6enJ06ePAkvLy9ERUVh2bJl/G2Sk5Mhl8thbGyMQ4cOwdvbGzVq1EDNmjUxYsQIBAYGonnz5ti/fz8OHDjA309iYiKePXumVF1VXNsqk8mwatUqREVFYejQobh8+TKqVq2KZ8+eISUlhe8vpLhO9FNGjhyJfv36gTGGmTNnokePHnj27Nl3V9IJIYQUjJJKQgjREBzHYcmSJbh58yZatGiBli1b4vz589i0aRPWrl0LAFixYgWaNGnCD220tbVFlSpVcPPmTaVq3O7du3H58mW0aNGCTzzPnDmD06dPo3nz5pgzZw5/HSPHcTh9+jSQl7i8fPmS307lypVRsWJFREREfFRdqlSpEnR1dQEAb9++xbJly2BsbIw1a9bA0tKS7xccHIx3796B4zil6+vkcjm/zbFjx+Lp06c4cOAAli1bhgMHDmDdunXQ0tLCwYMHP0pQqlSpwv98+vRppKSkICsrC7/99hsaNWqEBg0aYMyYMShfvjwmTJjwzcuPZGZmQiaToWvXrjh48CDu37+P1atXo27dul+8thD5kt8DBw4gOjoa//zzD9q2bQtnZ2dUqVIF8fHxfLU3NjYWV65cQZ06dbBu3Tqlx3b48GG+anfv3j2l9Srj4uKQmJgIOzs7pSqmSCTC6NGjUb16dfj7++PVq1dAvkme2rRpg0aNGvH9FSpUqICJEydCJBLh0qVLfKXRysoKqampSsuApKWlITMzEyEhITh//jy8vLwwY8YMWFpawtnZGWlpad+0tqaw+q2vr49FixZh3bp1MDMzw8OHD9G5c2f06NEDISEhlFwSQoiKUVJJCCEa4uLFizh48CCQb6jisGHD8Ndff/FJZO3atbF+/Xp+oppq1arBwcEBT5484SeAefDgAdatWwdjY2PMnDkTRkZGQF5SIhKJMHHiRKVJaC5evIhTp04BeQf3+RM/HR0daGtrIzw8/KPJY5KSkvjE4/Xr14iPj8fAgQP56iryhnWuXr2a/93f35+vAIpEIhgZGcHAwACdOnVSqiZqaWmhSZMmqFatGqKjoz9aI1ORtEkkEgQGBqJ69eo4ceIEhg4dCpFIBI7j0LZtW/z3339Kf8/XUkwI5OjoCFdXV5iYmAi7fFb+YbqjR49G586dgbxhsXXq1EFWVhafUCsSNCcnJ6VrJh88eIANGzZAV1cXZmZmiI2NxfPnz/l4cnIysrOzERISotQOAKamprC0tIRMJkN2drZSTCQSfXImW0U1tHLlyvxQXh0dHXB5kxMpKCqVANCgQQNMnz4dIpEIIpEIDRo0QE5Ozlddm4m8yveoUaMwYsQIpdvo6OjAzc0NwcHB+O+//9CwYUOEhITA3d0dbm5uCAsLU9oOIYSQwqOkkhBCSjnFTJejRo2CXC4H8pLFvn378tft7dixAyKRCJaWlnBycuKTAj09Pfz222/IycnB5MmTsWXLFowcORKZmZlYvnw56tWrp3RfHMchKCgIjDFIpVJs2rQJY8aMQaVKlfDXX39BV1cX58+f5yuDRkZGEIvFBSZ2BQkKCkJGRgY//FQxDHPq1Klo2LAhHj9+zA/VNTY2hp2dHbKzs7F3716lSmhubi7+++8/vHv3DpaWlqhVq1a+e/lYVlYW9PX1MXv2bAQFBSE0NBTbt2+HtbW1sOtXUSQsp0+fxowZM/gvd3d3NG3aVGmNxUaNGsHd3R137tzhb69Iem1sbDBo0CD++TI0NES1atUQERGB2NhYvj/ynhtFBS48PBxjx45Feno6BgwYgEmTJvGTICn6KGa1TU9PR58+feDn58cPj05NTf1o+xUrVoRIJML9+/c/ei45jsPBgwexcOFCGBsbK/3Niv/hvXv3+P6KpFtbWxtTp05VSrpr164NLm/yHiHFtt69e8e3paSk4OHDh+A4jn/9I++EQW5uLnR0dODs7Ixjx47h3LlzaNiwIV+5FF6bSgghpHAoqSSEkFKMMYZdu3Zh3Lhx/HV3r1+/RlBQEP766y/+ur3KlStDV1cXERERH006065dO7Ro0QJv3rzBokWLEBsbi759+6JDhw5K/Xr16gUDAwMsX74cderUga2tLZ9Irlq1Ct26dYODgwPCwsL42TtFIpHSciLIS2QrV66MtLQ0/jq7hg0b4qeffkJQUBA/c6mXlxdev36NoUOHYsSIEWjVqhUYYzh48CA4joNIJMIff/wBY2Nj7N+/H82aNcOkSZMwevRoODk5Yfny5TA2NsayZcv4pEVxfaHimjxDQ0PY29sjPT0dCxYs+Oh/o5Cenl7gDLlf8vjxY+zfv5//CgkJQWxsrNL1hTo6OkhOTua3L5PJkJmZCS0tLYwbN05poiUtLS389NNPkEgkePHiBZCX7JUvXx5+fn745ZdfMGTIEHTo0AFv3rxBjx49MHXqVLRq1QrVq1fH8ePH+YqhInHt0KEDDAwMMG7cODg4OKBp06Zo1aoV3rx5g1atWvGJnL29PZo2bYqoqCi0bdsWo0ePxowZMzB06FDY2tpi2rRpMDY2xs6dO5VORujr639U2VQ8/p49e6Jp06ZKsR9//BGVKlXCvXv3lE4U5BcaGoqMjAwkJSXhr7/+wrt375Sq1UlJSejcuTM6dOiA8PBwIN86nceOHcO///4LAFi5cuVHQ6MJIYQUAiOEEFJqXbhwgVlaWjIHBwcWEBAgDPMuXrzIxGIxs7OzY6GhocIwi46OZq1atWJisZgtXLiQZWdnC7swuVzOdu7cyaysrJhYLGZisZi5ubmxly9f8n0CAgKYlZUVGz9+POM4jjHG2I4dO1jTpk1ZXFwcv5358+czsVjM9uzZw9/26dOnrEWLFvy2GzZsyI4fP85vJykpiXXp0oW5urqymJgY/nYRERHMzc2Nv53ia+DAgSwiIoLvxxhjL168YE5OTqxdu3YsOTmZMcFjd3V1Zdu2bWOnT59mfn5+bObMmczBwYGJxWI2ceJEpW19jp+fH7OwsGAWFhZMLBYzS0tL5unpyXbu3MlCQkJYYmIiy8nJEd6Ml5qayg4ePFjg85CSksLc3NyYj48PY3n/z40bNyo9disrK7Zp0yal+9i8eTOzsLBgV69eZYwxtmHDBiYWi9mxY8dYREQE69atG397GxsbtmnTpo/uPyEhgU2bNk3pNSAWi5mLiwvbuHEjy8jIUOrPGGOJiYmsTZs2bMOGDXwbx3HsxIkT7PXr10p9Wd7jWbFiBfPw8PhoezExMaxly5YfPddeXl4sPT2d75eUlMTat2/Pxz08PNj06dP5L0Wsfv36LCwsTOk+CCGEfDstRlerE0JIqeXr64urV69i1apVfBWuIIqlQJ4/f44jR47AyspK2AUymQxZWVmoVKnSR5Wl/DiOw/v372FgYMBfb/k5ubm5kEqlSn2zsrIQGBgIW1tb1KxZk29njPHDMr/0dwilp6fz19RVrFjxk5PrPH/+HMnJyfjpp5/4WWATExPx559/4vz588Lu0NbWhouLC5YtW1bg/+1TZDIZOI7Dhw8fvvmxfCvGGKKiovD8+XOYmprC0dGxwOdGIpFAX18fOjo62LhxI5YtW4atW7eiffv2/P++XLlyBd5WKD09nX9s+WfTLUhWVhbKlSv3xX5fY//+/ZgxYwYAwMLCAuPHj0fXrl35iaMUEhMTMW/ePH4SKSHFcOf+/fur9bkhhJCygJJKQggpIxQJzrcuj1GWxMbG4u7du3jy5Ans7e1hb28PKysrlSRDJY0wqSxNFJM+fc26kxkZGQgJCcHbt28hEolQqVIl2NjY4IcfftDI55UQQooDJZWEEEJIGXT8+HGMHz++VCaVhBBCShaaqIcQQggpgxTrTuZfvoQQQggpDEoqCSGEkDKoWrVqMDAwQEhIiDBECCGEfBNKKgkhhJAyqEqVKjA1NUVAQACSkpKEYUIIIeSrUVJJCCGElEGVK1eGs7MzIiIicPnyZWGYEEII+WqUVBJCCCFlkEgkgoeHB0QiEXJycoRhQggh5KvR7K+EEEJIGZZ/7UpCCCGkMCipJIQQQgghhBBSaDT8lRBCCCGEEEJIoVFSSQghhBBCCCGk0CipJIQQQgghhBBSaJRUEkIIIYQQQggpNEoqCSGEEEIIIYQUGiWVhBBCCCGEEEIKjZJKQgghhBBCCCGFRkklIYQQQgghhJBCo6SSEEIIIYQQQkihUVJJCCGEEEIIIaTQKKkkhBBCCCGEEFJolFQSQgghhBBCCCk0SioJIYQQQgghhBQaJZWEEEIIIYQQQgqNkkpCCCGEEEIIIYVGSSUhhBBCCCGEkEKjpJIQQgghhBBCSKFRUkkIIYQQQgghpNAoqSSEEEIIIYQQUmiUVBJCCCGEEEIIKTRKKgkhhBBCCCGEFBollYQQQgghhBBCCo2SSkIIIYQQQgghhUZJJSGEEEIIIYSQQqOkkhBCCCGEEEJIoVFSSQghhBBCCCGk0CipJIQQQgghRINxHIfVq1dj9+7dYIwJw4R8N0oqCSGEEEII0WCJiYk4ePAgTp06haysLGGYkO9GSSUhhBBCVIqqIoSULMHBwYiPj4eNjQ309PSEYUK+mxajvT0hhBBCVCguLg7u7u6wtLTEtm3bYGRkJOxCCCkiUqkUw4YNAwBs3rwZ+vr6wi6EfDeqVBJCCKHKElGpslYVWbVqFXbs2CFsJqRECAwMxM2bN9G3b19KKInaUFJJNIpMJoNMJhM2E0K+gK63IaoilUpx5MgRtGzZEn/++SdEIpGwi8aJiYnB2bNnIZFIhCFCipVEIsHGjRvRvHlztG7dWhj+KjKZDAkJCUhNTVXLScf09HQkJCTQ+6eUo6SSfJOSXs3Ytm0bhg8fToklId+ooMoSVV9IYVBVhJCS48KFC7h79y6GDh362fcjx3G4cOECEhMT+bawsDD07t0bNjY2cHFxQfPmzfH8+XOl2wFAQkIC1q1bh3nz5iEkJIQ/PoyMjIS3tzdiYmIQFhaGefPmYfbs2QgPD0dubi78/PzQpEkTODo6wsXFBUOHDqWTmqUYJZXkm5SGasaLFy+QlpYmbCaEfMKnKktFUX2JiYnBxYsXwXGcMERKIVVURUqTjIwM+Pv74+3btwgMDETTpk1hYWEBCwsL9O3b96PPSY7jkJSUhOTkZOTm5irFCFG15ORkbNiwAa1atYKLiwvfnpqais6dO+Off/7h21JSUjBv3jwcP34cAHDx4kV07NgRoaGhmDJlCi5cuICAgADY2NjwtwGAK1euoGXLljh58iSCgoLQq1cv3LlzB8jbH7x8+RKXL19Gz549ERQUhOjoaERHR2Pu3LkYN24czMzMsGbNGty6dQubNm2CoaGh0vZJ6UFJJfkmBVUzvkdkZCSGDRuGuLg4YYgQUkSKs7K0du1aDBkyBFu2bCmRox/It/lUVYQxhpCQEMybNw/r1q1DSkqK0u0YY4iOjsb58+cRGBhYpKNNcnNzceXKFcyePRvbtm1DZmamsAtPIpEgLi4OjDGkpKSgR48eGDBgAIKCggAAzs7OWLp0Ka5duwZfX1/+ADkuLg6jR4+GtbU1nJ2d0ahRIwQEBAi2TohqnTp1CuHh4Rg0aJDS+/Hdu3d48+YNatWqxbe9fv0aCQkJH53gE4vF6Ny5M2xtbWFmZgYdHR0+9urVK0yfPh3u7u44e/Ys9u3bB2trazx+/BgAULFiRXAch/nz52P48OE4c+YMduzYgZ9//pnfhrOzMzp06ICaNWvC2NiYbyelDyWV5Kt9qprxPSQSCfz9/fH06VNhCFlZWR8NxfgaNWvWpJkGCflKBVWWvrX68j2mTp2KPn36ICAgAO/fvxeGP4uqPiXLp6oiHMdhzZo1cHd3x44dO7Bq1Sr06tWLP5mYmJiI4cOHo3nz5hg2bBg8PT1Rt25d/PXXX5BKpUBe0ql4jl+9eoWbN2+C4zhwHIe1a9fi5MmT/EmJ3Nxcvn9wcDA/XC8uLg7Tpk1DZGQk/7dlZGRgzJgxGDp0KF69eoW///4bkyZN4pPa5ORkeHp6IigoCI8ePcLPP/+MZs2a4dKlSzAxMcGYMWOwfPlyDBgwAC4uLvDx8UG/fv1Qu3Zt/nPo6dOn6NixI86dO4eBAwfCz88P9+7dUzqwJkTVXr16BR8fH3Tp0gVNmzZVinEch4oVK6Ju3br879u3bwfHcbC2tgYAtG/fHnv37oVEIkH79u0xbNgwpfcOYww7d+5EQkICHj58iNmzZ2PQoEGIj49Hq1atAAD6+voQiUSoU6cO+vTpAy0tLQCASCTCnDlzMHPmTOzfvx/Ozs5Yv379Z0/okJKPkkry1Yq6mhEUFIShQ4di/PjxyMjIEIYLlJmZqXQWjRDyecLK0rdUX5A3gUNgYCDOnz+P6OjoT1YbY2Njce3aNSQlJSm1V6lSBX///Tf27t0LExMTvl0qlcLPzw8zZsyAn5+f0tlzqvqUTAVVRRhj2LJlC3x8fDBv3jxERkbi8OHDkEgkeP/+PbKysjB+/HicP38egwcPxrNnz/Ds2TMsW7YMe/bswfz588FxHJ48eQIvLy8kJCRg6dKl+OOPPxAaGootW7Zg9erV+OuvvxAfHw/kLZmwZMkSvHnzBsOHD8e8efMQFxeHyZMn4+DBg9iwYQMYY2CM4d9//8WNGzdw9OhR7NmzB4sXL8azZ8/4z5zc3Fy8efMGr169wuzZs1G+fHmYmZlh7969+PDhA9zd3eHp6YmaNWvi/fv3n62wVq1aFZ06dUKDBg1QuXJllZyYJaQgioQvIyMDI0eOLPC1JpPJ+JM2Z8+exZUrV1CuXDlERUUBALS0tNCsWTNcvXoV+/fvx9u3b9GmTRuMGjUKiYmJSE9Px927dzF9+nT06dMHT548QZ06dXDo0CF+iKyRkRHEYjEcHR1hZmamdP/6+voYMWIEHj9+jOnTp2PTpk1wdnaGr6/vR9VSUkowQr5CZmYm8/DwYAMGDGDZ2dnC8DfjOI6FhYWxDRs2MCsrK1a3bl1mZWXFxGIxE4vF7OrVqywnJ4ft2LGDtWvXjt25c0e4iQJNnDiReXt7M6lUKgx9UVpaGouPj2eZmZnCECEaKSkpibVv354NGjSIf1/L5XJ27NgxduDAAfbnn3+ynj17FviekMvl7MSJE8ze3p5/34rFYtamTRv24MEDpX6bN29W6jN69GiWnp6utL38EhISWK9evZRuM2vWLJaTk8OePHnCHBwcmJWVFZs7dy4LCQlhiYmJLCcnR7gZUoSioqJY48aN2ciRI5Wei+TkZNauXTs2efLkAp8jxWfL8OHDP4pfvXqV2dnZsXv37rFHjx6xTp06sc2bNzMLCwtma2vL1q1bx6ysrFjnzp2Zra0tCwoKYowxtmHDBjZ69Gg2efJkJhaLWa9evdiUKVOYra0ta9u2Lfv111/Z+/fv2YsXL5iTkxOzsbFho0aNYhMmTGC2trZs/vz5TC6XM8YYi42NZU2aNGH169dnv/76K4uNjWV79uxhP//8M0tMTOT/1g0bNjBXV1cWHx/Pt+X38uVL1q1bNyYWi5mbmxu7f/8+fx+EqNqjR48+ei3nl5KSwjp16sQ6d+7M1q9fz+rXr88OHz7MvLy82OTJk5lcLmfp6els7969LDk5mbG8fXlgYCBr3749a9OmDQsLC2Nubm4fvefzU7y/x44d+9HfERoayk6ePMnfNjs7m23dupXZ2try+3tSulClknwVYTXja61atQobN26EVCrFvn37MGPGDGzfvh379u1Du3btsGzZMnAch0qVKuH333/H3r17cf/+fbRo0QIikQje3t64dOkSmjRpwm/zS9fmmJqaKl3v+bnrZWj2MVKWFVRZ0tLS+qrqy/Xr1zFmzBgYGxvj+PHjiIyMxKVLl2BlZYUBAwbgwYMHAICIiAj4+Phg1KhRCAwMhI+PD65fv44lS5aA4zhIJBL0798fN27cAPKGI44fPx7R0dE4ceIEXr16hbFjxyIqKgofPnzg75+qPiXH56oiiudYLBZ/dhSJoaHhR89hamoqAEBXVxcA8ObNGyxZsgS//fYbtLW1sWrVKowZMwb//vsvKlasqDRB26lTp3DlyhV0794dwcHBOH/+PLZs2YKpU6ciKSkJMpkMoaGhMDY2xpYtW6ClpYWoqCjMnTsX06dP54fpJSUlIS0tDXK5HIsWLUKNGjVgY2MDLS0tpc8J4bVggYGB8PT05Cue1tbW8PPzw7lz51C+fHn06NEDPXr0UBpOSIgqcByH3bt3o0KFCvD29uZfy/mZmJhg9erVkMlk+O+//7Bx40b07NkTv/zyC4KDg5GcnIzExESsXLkSLVq0wPr163H27FnEx8fD2toaERERiI6OxvDhw3H+/HmMGDECz549Q1RUFPbu3Qt3d3csWrQIIpEIBgYGSE9PV9p/A8CjR48wevRodOvWDQcPHsSVK1dgZGSE6tWr4+bNmzThYmkkzDIJESqomqGQmprKxo4dyywtLZlYLGa9e/dmSUlJfHzixIls9OjRbPr06czGxoYNGTKEzZw5k4WHh7M1a9YwPz8/1rBhQ3b27Fml7X5KTk4OW7169UeVkdjYWMby7m/ixIl8//T0dDZixAhmZWXF+vXrx2xsbNjQoUOZVCplOTk5bNasWUwsFrPOnTuz//77j0VHR7O0tLR890iIZvpUZSm/z1VfLl68yKysrPjqkEJ2djYbMGAAGzNmDMvJyWFnz55lzs7O7PXr13yfEydOMCsrKxYQEMCfyd6zZw9jjLGAgABmZWXFTpw4kW+ryqjqU7J8riqSnZ3NBg0axMRiMRs4cCA7duwYO336NDt9+jQ7ceIEy8zMZLNnz2YODg7s0qVLLD4+nkVGRrL58+czKysrtnHjRiaXy/n7GDRoEAsKCmK2trbMy8uLpaen86+hDRs2MJb3uhWLxWz37t38z/m34+rqyh49esT8/PyYjY3NZ0fCBAQEMAsLC37bjDH2+vVr5urqygICAvi2ixcvsvr167OwsDCWk5PDJk+ezI+aycnJYQcPHmSvXr3i+798+ZJ5enoyBwcH9uTJE76dkO91584dZmNjw3bv3i0MfRWJRMK/j1++fMm8vb35YzyxWMwcHBzYmjVrWE5ODpPL5ezmzZusTZs2SvFJkyaxly9fMsYYi4+P54/R8uM4jp08eZK1bt1a6ZiudevW7Pr168LupBSgpJJ80Y4dO5ilpSXz9/dXao+Ojmbt27dnnTt3ZqdOnWLR0dFsxIgR/MEkY4wtX76cWVpaslatWrG3b98q3Z7l7WxcXV35A0qhDRs2sLlz5zKWN/Ri48aNzMrKim3dupVxHMfu3LnDmjRpwkJDQ/kDi/z9V6xYwRwcHFhISAhjjLFDhw7xw5byJ5V//vkny8jIULpvQjSVXC5n8+fPZ7a2tuzRo0fCMG/Pnj1KSeXt27eZh4cHS09PZxcvXizw9ikpKaxbt278EKoNGzYwS0tLdubMGb5PTEwMc3FxYXv27GFSqZR5e3vz/S9evMhsbGzY3bt3lbYrJJfLWWhoKOvXrx+zsLBgbm5uLCIiQtiNqFlOTg6bOnUqa9y4MYuKihKGGWOMZWRksKVLlzIHBwelg8fff/+dpaens9jYWObh4aEUc3NzY4GBgfzBbVhYGGvZsiV79OgRS09PZxs3blQ6UN29ezebPHkyY3mvWw8PD5aZmclCQ0PZ9u3blYbYDRo0iF28eJGlp6czLy8vZm9vzw4cOMBiY2NZQEAAmzlzJuvSpQt79uwZS09PZ+vXr2cpKSn8fSneP5s3b+bbnj9/zhwcHJijoyNzdHRU+sxUDDVUDNlWJNWzZs1iFhYWbPv27fx2CPkeUqmUDR06lLm5uX32EgN1yMnJYRzHCZtJGUJJJfmsT1UzcnJy2JgxY1i7du1YQkICY4yx9+/fs19//VWpKpH/jHFBFEll/rPA+W3YsIE/2/u11+YotvU118tkZ2fziaqNjQ1bt24dJZdE432uspTf56ovioPosWPHsujoaBYfH8/Onz/P2rdvz1q1asWio6MZY4xNnTqV2draMisrKzZr1iwWFhbGVqxYwSwtLflKz8SJE/kkIP/7dv78+fwBuJ+fH7t16xb78OEDVX1KkO+tihS3jIwMNnfuXKVKzK+//sr27t370cicz5HL5WzdunXM1dWVzZw586MTHLGxsWzatGlKcwdYWVmxP//8s8gP/onmysnJYTt37mT3798XhghRO0oqySd9rpqhSAYVw1YVVUQLCwsmFovZsWPHGMs7KC3o9gqKRFGRCEqlUjZs2DDm5+fHWN4Z56ZNm7K4uDj+PteuXVvggbAiqVQMfz127Bhr2bIl8/f3Z6NHj2Zubm6fPFCQSCRs69atzN7entnY2LDNmzcXmLgSUtp9TWVJ4XPVF7lcznbt2qVUfXJwcGBLly5VOjEzceJENmHCBHbp0iV+Uh8bGxu2Y8cO/qz2jh07lCZyKGjIlaWlJfP19WXJyclU9SkhirMqompyuZx9+PBB2EwIIeQrUVJJPulz1QzFcB53d3d27Ngx9scffzArKyt29OhRNmDAAH6WWMVQtvyzQeYnHLJ6//595ujoyFcw8ielX7o2JzExkXl5efEHp19zvQzNPkbKmm+pLH2p+vI18l/nzHFcge8puVz+TcOmqOpTMlBVhBBCiIIW+9SiYqRM4zgOs2bNwtWrV3H48GFYWloKu+DcuXMYPXo0OI6DmZkZVqxYgbZt2+LSpUuYNm0adu3ahbS0NHh7e2Pnzp0FLvTMGMPcuXOxZ88eVKlSBYmJiWjTpg02bNgAfX19vHjxAhMnTsTWrVtRo0YNZGZmYv369di3bx/S09P57bRt2xbr1q3D2rVrce3aNRw6dAi6uroYPnw4Hj58iLlz56Jly5aIiIjAmTNn8ODBA6xevRoPHz7EtGnTYG9vj99//x0VKlRARkYGNm7cCAA4evToR2srEVJayWQyjB07FgkJCfzsgOo2adIkAMDq1auFIUIIIYRoCEoqSYGCgoIwYMAAzJkzB/379xeGeRzHITs7+5MHp7m5uQgLC8OPP/740XTxCpGRkRg/fjy0tbUxePBgdOrUSWnZEo7jPnlbIalUiqioKNjY2EBHRweZmZlYsWIFdu3aBblcDgCoX78+vLy88Ntvv0FXVxdnz57FqlWrlKZ2t7KywoIFC9CyZct8WyekdOM4Dvv27YOjoyMaNmwoDKvFxo0b8fDhQ/j4+Hz1+5gQQgghpQslleQjxVHNUDfGGDiO49c7I4QUjePHj8PHxweHDh2CqampMEwIIYQQDaAtbCBER0cHP//8M+bNm6cRCSXyFnSnhJKQolenTh3Exsbixo0bwhAhhBBCNARVKgkhhKgNx3GYO3cuateujaFDhwrDhBBCCNEAlFQSQgghhBBCCCk0Gv5KCCGEEEIIIaTQKKkkhBBCCCGEEFJolFQSQgghhBBCCCk0SioJIYQQQgghhBQaTdRDCCGEFKPY2FhcuHABV69eRXx8PNLS0pCWlgaJRAIzMzNUqlQJpqam0NHREd60zEhLS0NqairevXsHfX19mJiYoFKlSqhVqxY6deqEjh07omLFisKbEUIIKSKUVBJCCCHF4M6dO1iyZAkePnwoDMHMzAzGxsaoWLEi9PX1lWJSqRQ5OTmf/ZJKpUq3KQvatWuHyZMno169esIQIYQQNaOkkhBCCClCKSkpWLJkCY4cOcK3NW7cGG3atEHbtm1hb2+v1F8dJBIJPnz4wCehBf0sl8uRnZ3N/57/e/7+ubm5EIlE0NXVVfoubNPR0eF/19PTg4GBAQwNDfnvX1NpTEtLQ2xsLCIiInDjxg1cv34dsbGxSn1+/fVXzJw5E7Vq1VJqJ4QQoj6UVBJCCCFFJCIiAl5eXoiPjwcA9O3bF2PHjoW5ubmwK/lKEREROH78OA4cOICEhAQAgImJCbZv346GDRsKuxNCCFEDSioJIYSQIvDkyRP069cP79+/R8eOHbFgwQJKJlXs7NmzWLBgAeLi4gAAvr6+6Nixo7AbIWqXlZWF3Nxc/ovjOP57/p/lcvlHv+vo6EAkEn30XfElbNfR0YGhoaHwTyCkSFFSSQghhKhZVFQUunbtColEgqlTp2LMmDHCLkRFUlNTMXz4cNy5cwcAcPjwYTRp0kTYjZRBjx8/RmBgIO7evYvXr18jISEBycnJMDMzg6mpKUxNTZUSvIISQuF3RVIok8mEd1es9PT0+IRTMfxcmIgKv5crVw5VqlSBpaUldHR0YGNjgxYtWsDY2Fi4eUI+QkklgOTkZDx//hxxcXFITEyEVCrF+/fvER4eDo7jhN2/mpaWFnR0dKCjowNtbe3P/lxQW0E/a2sXzSowUVFRePnyJd6/f4/U1FRIpVJUrVoVJiYmqFq1Kho1agRXV1c0a9ZMeFNCNM6dO3dw//59JCcnIzMzk//Kzs4Wdi2TDAwM+EllTE1N4eLigp9//lnYrczKzs5G9+7d8fLlS2zduhXt27cXdiFqMHbsWJw4cQJVq1bF2bNnUblyZWEXUkacPHkS69atw8uXL4UhVKlSBebm5jAwMAAAyGQycBzHXz9c0M9ZWVnCzWi0Ro0aoU+fPnBzc/to4jBCFMpkUhkVFYVr167h3r17CAkJQXR0tLAL+UpGRkYYOXIkhg4dSjsaojFiYmJw6NAh3Lp1C0FBQcIw+QqGhob4+eef4enpWeaTqJEjR+LMmTNUoSxiHz58QPfu3fHs2TM0btwYhw8fLrITs6TkmD17Nnbv3s3/XrVqVXh6eqJ58+Zo2rSpUt/CyMrK+mgiK+GkV7m5uZBKpZDJZEoTXX348IFvy8nJwfcekuvq6sLAwAD6+vowMDD46GcjIyOlybH09PSEmwDyJvJ6+vQpAgICcPXqVTx+/BjIO+YbO3YsRo4cKbwJIWUrqXz06BF8fHxw/vx5pfaffvoJLVq0wE8//YSaNWuiZs2aSvGyLisrC9HR0YiIiMClS5dw7tw5ZGZmKvWpWrUqFi5ciC5duii1E1KaXL9+HXv27MGFCxcAAObm5qhXrx7s7e3h6OiIWrVqoVq1ajA1NRXeVIlijcGsrCxIJBJ+Bs3c3Fzk5OTwZ7sVQ6iEbYqDEJ28YUuKr3Llyin9rJhVUzHMSfG78Luw7VMHEoWVnJyM6Oho3Lp1CydOnEBoaKhS3MHBAePHjy+T17YFBgbC09MTjo6OOHnyJLS0tIRdiBrFxMSgc+fOSE9Px4oVK+Dh4SHsQjTY6tWrsXbtWv73hQsXwtvbW6kP+bLIyEhs2LABhw8fBgDUqVMHW7ZsgZWVlbArKcPKRFL54sULLF68GP7+/nybnZ0dRo8ejfbt2/NDHsjXu3HjBvz8/HDo0CGl9rFjx2LKlClKbSVFRkYGrl27hitXriAyMhKZmZmQSCTIzMxERkYGDAwMULFiRX4YHwDk5uZCLpfz11V86eeC2j63Xpy+vj4/rFnxpaOjAy0trY/aC4rl/10xRFrxu0gkAgBoa2ujcuXKqFq1Kv9Vo0YNODo6wsjISPgnlUnJyckYO3Ysbt68CQDo1asXvL29Ub9+fWFX8hWioqJw/Phx7N69G8nJyXy7p6cnli9frtRX0/3++++4evUqDh06hJ9++kkYJkVg69atWLhwIaysrHD58mWqVpYRAQEB6N+/P//72bNni2S5Hk0WEhKC33//He/fv8cPP/wAPz8/mJmZCbuRMkrjk0pfX18sXryY/93Ozg6TJk0qk2fM1SE5ORl79uzBrl27kJSUBADo0qULNm3aJOxaLLKysnDw4EGcOnUKd+/eFYZhZGTEfxkaGqJ8+fJ8JUEqlSI7OxvZ2dn8zxkZGcJNqI2enh6fKCouolf8rEgiFT8X1KarqwvkJcbp6emQSCSQSCRITU3l78Pa2hpOTk5wcHBA+/bty+S6boGBgRg9ejSSkpLg4eGBCRMm0GgFFZHJZDh48CA2btzIryXYqVMnbN68WdhVI0VGRqJNmzawsLBQOqlJipZUKkWTJk2QlpaGDRs2oGvXrsIuRAO1b98eYWFhAIAFCxbg999/F3YhhRAREYFevXohJSUF9evXx6FDh6g4QwBNTiqzs7Px+++/IzAwkG8bP348Jk2apNSPqIZEIsHEiRP5ocXFXbFMS0vDjh07sH37dj6JMjc3R8OGDeHi4oLGjRvD0dFReLMy4927d7h+/TouXrwIf39/fta6nj17Yvz48bCwsBDeRCP5+flh3LhxqFSpEjZv3kyVJDWaMmUKP3Sqd+/eWLlypbCLxpk4cSL+++8/LFq0CAMHDhSGSRFSDIO0tbXlh7cTzfX06VP88ssvAAArKytcvXpV2IV8h5s3b6Jv375A3r597Nixwi6kDNLYpHLChAk4duwYAKB8+fLYuXMnGjduLOxGVGzDhg34+++/AQDbt29H27ZthV3U7siRI5g7dy4kEgkAoG3bthg3bhwtgv0ZZ86cwf/+9z88efIEAPDbb79h6tSpGr2G3oMHD+Dm5gaxWIyDBw9q9GMtKfKPHFm5ciV69+4t7KIx5HI57OzsIJVK8fDhQ1SqVEnYhRShuLg4uLq6AgAuXboEa2trYReiQfLva+haWvVYtGgRtmzZgho1aigVcEjZpZEXFuzfv59PKAFg8+bNlFAWkVGjRvFD28aOHYtXr14Ju6jV4sWLMXnyZEgkErRv3x7nz5/H9u3bKaH8gl9++QWnT5/Gtm3b0LhxY/z333/o1KlTgUOGNUFcXBz++OMP6OvrY9u2bZRQFpGhQ4fy+4fZs2fjxYsXwi4aIzIyElKpFFZWVpRQlgA1atTAjz/+CAC4d++eMEw0jGLpkHLlysHd3V0YJiowZswYGBoaIi4ujmZJJ4AmJpXZ2dlYsGAB//uKFSvQvHlzpT5EvTp16oQZM2YgMzMTS5cuFYbVIjs7G/3794evry+QN8Pb1q1bUbduXWFX8hnt2rXD0aNH8eeffyI9PR09e/bE0aNHhd1KvUWLFiEpKQkjRoygikUR69SpE2bPng2pVIpZs2YJwxpDUfVv0qSJMESKSZs2bQBKKsuE8PBwIO/9V65cOWGYqICJiQk/4/+dO3eEYVIGaVxSeejQIX5B8jZt2tCQh2IycuRI9OjRA+fPn8fJkyeFYZWbM2cOAgICULlyZfz33380Zfh3GjZsGNatWwcAmDRpkkbN2BkTE4OzZ89CX18fgwcPFoZJERg6dCg8PDxw9+5d7Nq1SxjWCIp13SipLDkUl2No6ggM8n+eP38OAGjdurUwRFSoQ4cOQN6Ed4RoXFK5ZcsW/ufp06crxUjR6tOnDwDgf//7nzCkUqdOncLhw4ehq6uL/fv3w9nZWdiFFIKbmxsOHjwIIyMj/O9//ysxM/p+r/Xr10Mul6NPnz780jGk6M2ePRv6+vpYt24dP1GUJlHMdmtraysMkWKiuAymqC/LIEVPsZSXk5OTMERUqHXr1tDV1aX3FAE0Lan09/fHmzdvgLyppO3s7IRdSBFydXVF48aN8ezZM7VNpx8dHc3PMjtnzhzY2NgIu5Dv4OrqyieTK1euxLNnz4RdSpWUlBQcOXIEIpEIo0aNEoZJEapYsSL69OmDxMRE7Ny5Uxgu9RQHtVWqVBGGSDEpV64cqlevDrlczo9oIprJ2NgYyJv5laiPgYEB6tSpQ+8nAmhiUqng5eWlFCPFo3v37kBeNVEdFi5ciOzsbDRv3pyGvKpJy5Yt0b9/f+Tk5GD06NHIyckRdik1Ll68iJycHNSvXx/VqlUThkkR8/T0BADs3btXGCr1ZDIZtLS0ULVqVWGIFKPatWsDectgEc1VqVIlGBsbw8zMTBgiKlajRg3+JBop2zQqqXz79i0AQEdHhybnKSEUQ08ePXokDH23uLg4XLx4EVpaWvjrr7+EYaJCc+fOhVgsRkRERKlOABQLYTs4OAhDpBjY29ujWrVqePXqFV6/fi0Ml2oymQxmZmbQ0tIShkgxqlOnDkBJpcarUKECatWqJWwmamBiYgINXZ2QfCONTCpdXV1hYGAgDJNiUK9ePYhEIrx48ULlZ7K2bNkCuVyOVq1awcLCQhgu1RISEvDgwYMSs6PW09PjZ1XeuHEj5HK5sEupoJgRsF69esIQKSaKiR6uXbsmDJVqHz58oKGvJZClpSWQN2M40VwikahUj6opTRISEmBoaChsJmWQRiWVijPdNNtXySESieDo6Ai5XM5Psa8K2dnZ2L9/PwCofNhrQkICfH194efnp/JEOL/c3FykpaV9lDjKZDJMmzYNbm5uqF+/PkaPHg1fX19+4o/8OI5DSkoKcnNzhSFIJBKkp6cLmwutbdu2sLW1xbt374pkRl91UFQqKaksOdq1awcAuHr1qjBUqjHGIBKJhM2khMjKyhI2EQ2io6Oj1s9v8n9iY2P5a1hJ2aZRSaViB+Lo6CgMkWIkFosBAElJScJQoR08eBASiQTm5ub82mOqEBcXhz59+mDx4sUYN24cOnbsWOBU2RzHYfHixbhy5YowBOQtbTNlyhR+iBXHccjNzUVSUhL27t2LDh06wMrKCvXr18ePP/6IS5cu8bfV0dFB+fLlYWNjg86dO+PDhw9YvXo1mjZtirZt2+LKlSt8IhoSEoJmzZrh9u3b/O0BICMjA7///ju6du2q0v/76NGjgbxqZWmUlpYG5HtNkuKnWHJDsQSApiit1XxNl5mZCeQ7XiCaSUtLi6rRRSQ5ORm6urrCZlIGaVRSqSi/V69eXRgixUhxBktfX18YKrQLFy4AAH799VeVXbOUm5uLI0eOIDIyEjNmzMDmzZthbm4OLy8vnD17VqlvbGwsjh8/zg+5FipXrhxOnTqFyMhIJCUloU2bNrCysoKzszNWrVqF5s2bY/369di4cSM6dOiAqKgo/rZHjx5FQEAAfHx8sGLFCvj6+uLJkyf477//YG5ujsGDB2PJkiXgOA61atVCxYoV+TXxkFch2bt3L4KDgzFw4ECVTlTQrVs31KpVC8+ePSuVwxX19PSgpaVFZ1VLkPLly8PMzAwpKSnCUKnGGCtwBAEpXhkZGUDeiBCiuahSWXSkUil0dHSEzaQM0sik8ocffhCGSDGqUKECkHdAryqKJEqx7tj34jgOc+fOxcqVK2Fra4tOnTqhU6dO2LFjB3r37o1Zs2bh5cuXfP/79+9DR0eHX0xbKH8Cra2tDT09PZibm2PPnj0IDg7G/Pnz0b17d/zyyy/YtGkThg4dyvfX09PD+/fvlRJWHR0dODs7Y/fu3Zg7dy58fX1x48YNGBoaomrVqnj27Bl/ELt9+3asWLECf/75J4YMGaKypBt5j8XDwwMASuUQWD09PVSsWFGl/xPy/erUqQOZTKZRlQVKKksmRaWSkkrNpq2tTc9xEZHJZNDW1qh0ghSSRr0KDA0NYWZmRtexlDCqrlQmJCTw1woqhs59D8YYlixZgj179mDmzJk4d+4cv7aVvr4+Ro0aBZFIhNOnTwN5Cei5c+fQsGFD1KhRQ7C1/y9/5dHU1BT169dH06ZN0aJFC/6MHmMMqampSEhIQGpqKj+ktXz58kDeNZEjR47EggULEBMTg4SEBDx//hz+/v7Q1dWFsbExjI2NYWtri5CQEDx48ADz5s3DwoULMWPGDKWE0tfXF126dEFqair/dxWW4prle/fuCUMlnp6eHipVqiRsJsVMMSPn+/fvhaFSjYbAljyK6hXHccIQ0SA0UU/RULyPaF9HoGlJpb6+Pq09VwIpKpWqGnMfGhoK5C1qbGJiIgx/s4iICPz333/w8vIqsLJXq1YtODs7Izg4GFlZWZDJZEhNTUW1atUKPIHBcRxCQ0NRsWJFVK5cmW9PSEjA+fPncfDgQQwcOBA//vgjnJyc4OLiAicnJxw6dIjva2BggIoVKyIsLAzbtm1Ds2bN4OLigs6dOyMyMhJ79uxBo0aNoKWlBTc3N0RHR8Pd3R1HjhyBr6/vR4/j2bNnqFatmkpmaKtfvz4qVKiAqKioUjdkUU9PD0ZGRsJmUswUSaUqJ5YqCehAq+RRPCfCCdKIZlGMEigJEzJxHIfY2FhcunTpq64dl0gkpabKqqhQ0vuJQNOSypycHFpKpARS7HRUdWb42bNngAqHvr569QoymQz9+vVTShJ9fX3h7e2NlJQUZGVlwdjYGOXKlePjn7p2NykpCffu3YOdnR1MTU0hkUgQExODgIAADBs2DNOmTUNubi5WrlyJ27dv49mzZ7hx4wbat2+vtB0zMzOsW7cO5ubmAIABAwbg9u3buHLlClxdXfl+P//8M5YvXw5tbW00aNAAzZo1+ygxXrRoEf73v/+pZAiylpYWP2Pn3bt3heESTTG0mJQsiter4no3TcAYowOtEkjxOUTPjWb78OEDUMzDnBMSErB48WLUq1cPTZs2xR9//IERI0YgOTkZyHsN5uTkgOM4hISEYMqUKbCzs4O9vT1sbGzg7e39yfVUZTIZYmJicOnSJZw4cQJLly7FjBkzMGPGDIwbNw4zZ85EXFyc8GYqp+rjO1K6aVRSmZ2dXWDlSN00+SyUKijOGKpqp6PYUbq4uAhDhcYY+6iqEBYWhmvXrsHd3R0BAQH45ZdflF5fimtzhG7fvo3Y2Fh06dIFenp64DgOWVlZaNiwIaZOnYoHDx5g79696NGjB8zNzWFoaIgffvhBaUKdnJwcSKVS2Nvb48SJE+jQoQP27t2Lc+fOfZQwamlpoWPHjnBwcFBqz8/IyEilFTrFjLulbQislpYWEhIShM1qR/uIz1NcS6lJj7mgfQopflSpLBsU+5LieA9mZmZi7ty5aNKkCS5fvozhw4fD09MTvXr1wsqVK/nP+i1btuDHH39EnTp14O7ujrdv32LmzJnYuHEjFi1ahPfv3/P7xqysLJw+fRojRoyAnZ0dbGxs0KxZM/zxxx8YO3Ys/v33X5w5cwbXr19HcHAwrl279tGs8OpCkyIRBY1KKqVSaZEmlWXhLJQqKD68VZVUKnayiiFz3+uHH35AuXLl8O+//yolip6entDX10dMTAwaNGjAJ1JGRkaoW7cuTpw4gejo6HxbAm7cuIG5c+eiWbNm+OWXX4C8D4OEhASMGTMGY8aM4YfschyHpKSkAof8cRzHL39RpUoVbNq0CZMmTcLChQvx119/ffS/FIlEMDQ0/OQQ1x07dqBfv34quaYSAJycnIB86z6WFlpaWsjJyfnk+07VaB/xdRRD1BTVBU0hfJ+S4qc4ySk8OUc0iyKpzD+6qCiEh4eje/fuOHnyJHbv3o0rV65g0qRJWL58OVatWqU0wkrxWT1gwAA8ePCAvzTml19+wcCBA+Hn54fKlSvj7du3aNOmDUaNGoWLFy+iVatWWL58OZYtWwZjY2NMnToVr1+/xqNHj3D79m3+67fffsv3l6lPuXLlNOqEICk8jUoqc3JyimQGqrJ2FkpVVDUTomLnpaqlMmxsbDB69GicPn0ajo6OGDJkCPr27Yv+/fvzZ9+qVq2qNLS6X79+yMzMRO/evbF9+3YcP34c3t7e6NevH+rWrYu1a9fy15ImJSUhLS0NkyZNQqNGjWBhYQELCwvUqVMHzs7OcHR0RJ06dRAUFAQAqFixIkQikVLCJhKJMGbMGPj6+mLPnj2YN2+e0gFrdnY2YmNjYWNj89HBkkQiwdmzZ5GQkKCys7Y//PADdHR0iqXq9z0U+wdFUqcutI/4NpqYVNLsryWTYh9YFMcKpPgo9iWKz+GiEBoaigEDBgAADh8+jBYtWnz0eZxf/fr1YW5uDk9PT6X5IWQyGRISEpCQkACZTIYaNWrA09MTixcvxosXL7Bp0yZ4enqiXbt2KF++POrWrau03aJWvnx5SirJ/8c0iIODA+vbt6+wWaXCwsJYmzZtmJOTE/P392dyuVzYhbdnzx4mFovZn3/+yVJSUoRh3ps3b1iTJk2YWCxmVlZWbPjw4ezAgQNs3759zMHBga1fv154k1Jl586dTCwWs6tXrwpDhTJkyBAmFotZenq6MFRocrmcXb16lbVo0YKJxWJmaWnJOnbsyI4fP842b97MbG1t2ZkzZ5Ruc/v2bb6/WCxmDg4ObOnSpSwjI0OpX0REBGvYsCHfr3379mzhwoXMz8+P3b59m8XHx7OUlBT+tRQREcGaNm3K/P39lbajcPbsWebt7c0yMzP5tkePHjE7O7tP/o8XLVrE5s6dK2z+Li1atGCNGzcWNpdovXr1YmKxmD158kQYUhnaR3y7GTNmMLFYzE6cOCEMlVqdOnVizs7OwuZSa82aNezy5cvC5lJn0KBBTCwWs9OnTwtDRIO4uroysVjMOI4ThtQiMzOTeXh4sFatWrHo6GjGGGNSqZQNHTqU2dvbs4kTJ7K5c+eyNWvWsNTUVMbyPrebNGnCtmzZwk6fPs2WLl3KmjZtyh8riMVi1qlTp09+NsTHxzNXV1d28eJFYahItWzZktWtW1fYTMogjUoq69Wrx7y8vITNKvP06VPm6urK2rRpw8LCwoThjzx69Ii5urqyR48eKbVLpVIWHx/P4uPjmVQqZTk5OWzVqlVs165dLCcnh+9XUnYY30uRVF66dEkYKpT+/fszKysrYbPayOVytnHjRubo6Mju3r0rDDOpVKqU4H1Kenq60vOrSikpKWzo0KH8h5lQTk6Oyu97wIABzMLC4rNJU0nj4eHBxGIxu3//vjCkErSPKJwpU6YwsVjMjhw5IgyVWm5ubqxhw4bC5iLx8OFD9urVK2Hzd5k4cSKbOHGisLnUGTx4MBOLxezs2bPCENEgihO5ReXChQvM0tJS6XWlSCrzJ4lisZht2LCBMcbYxYsXldobNmzIli5dykJCQlhaWhpLS0tjYWFhn0yMS8r+v0uXLkV6TEZKLo0a/6HO4UYSiQQLFiyAnp4edu/ejR9//BEymQzDhg1DvXr1MGnSJMybNw9r165Vml1SLpcjKCgIZ86cwV9//YVmzZrBxsYGLi4ucHFxgZubGzIyMjBp0iQMGDCgSK8JLWqqur5IJpOhatWqwma10dLSwpAhQ9CtWzcMGjQIT58+VYp/7TIVFSpUUNvza2Jigs2bN6NmzZrCEJA3fFbV9127dm0wxtQ+lFSVFEOR1DFUh/YRhacYkqhJw1/19PSKZTIYiUSChQsXYu3atcLQZ8lkMkybNg1XrlwRhnjv3r0rEUs0qMLnhiWS0k8mk6lsbeyvER4eDhMTE9ja2vJtenp62Lx5MyIjI3H//n1s2LABOjo6/D48MzMTBgYG8PDwwP79+xEcHIyZM2fCycmJX4f6xx9/5Ne2/pT4+HhhU5GqUKGCyo7vSOmmUUkl1DjT161btxAUFIQZM2Z8dOCemZmJo0ePYseOHVi9ejX2798P5L3R3717h4ULF2LkyJE4fPgwunXrBj8/Pzx+/BiPHz+Gj48PjI2NlbanqVSV8EulUpWsT/ktRCIRFi9eDH9/f6UPjbLshx9+AACVTf5TFBTXUakjqaR9ROEpDkg0LalU1+eRAsdxiIuLU0peFUsYWVtbK/X9Eo7j8Pr1a5w6dUoYAgDUqFEDubm5n02UQ0NDcfv27c/2KW6KZJKuqdRsmZmZRTpJT82aNZGSkoLz589/9PpnjCEgIADTpk2DtrY2nJ2dAQDR0dFo0KAB5s+fj2bNmvHJY3p6OpKSkr46UStosr+iVL58eWETKaM0aq+qra2tssRFqCyfhfpeig/xr91Bfok6EoKvoaWlhUqVKmlkpagwdHV1ARWeLCgKiveaOpIX2kcUnuIgTB3PS3HR09NT+3vjxo0baN26NUJCQvg2xQGmqtbxVfjSgWNWVhYWL16Mvn374ty5c8JwiaH4PKL9uOZSnMwpyue4TZs2aNasGf766y/07t0bPj4+WLp0Kfr27QtbW1tMmDABmZmZaNasGezt7QEAkZGRCAoKQtu2bVGnTh1+Ej9HR0c4OzujTp06GDFiBHJycoR3p+RTy5sVFcVILcWkcqTs0rikUl1nhsvyWajvpXjcX/t4v0Qmk6lsW6TwFDPjFuXZ4O+lqE6o42Cf9hHfr7hOGKlDUVQqpVIppFKp0nqx0dHR4DgO1apVU+r7OUlJSbh69SoSEhJw7NgxODo68ge406ZNE3YvkKGhIRYvXozWrVvj0qVLJfa5VOwDStN+i3wbRXKjOPFZFCpUqIAtW7Zg5MiRiIyMxIoVK3Ds2DGkpKRgxowZOH/+PMzNzdGpUyd+WK6pqSnkcjnevXuHcuXKoWPHjli0aBE2b96Ma9euITg4GGvXrv3k49DW1oZIJMLbt2+/+rNCHRQz7H4p+SWaT+OSSnUcLKKMn4X6XooPcVXt9CipLBkUVaVPfeCVRF+q+H0P2kcUnqJ6pEmVSm1t7S8+b99LsWRM/gQuODgY9erVU0oqOY7Do0ePcObMGYSHhyt9ToaHh6Ndu3YYPXo0IiMjoa2tjdatW2PNmjW4desWFi1axPf9EisrK2zfvh2rVq2Cnp6eUkxx/XVxD5dX7K9K036LfJvi+mwyNDTEjBkzcP/+fbx+/RrBwcE4d+4chg4dilq1amHw4MHo0KED33/27NmIiIjAkydP8OzZM/j6+mLgwIHo1KkTateujapVq370PsrPzMwM69evx/z584u0KiukqFSqe39HSj6NSioVC5urQ1k+C/W9VF0d+vDhg8q2RQpPcSD7qddvSaTO66hoH1F4mppUqvPxpKWl4f79+0DeyQnkVS4fP36MevXq8QejgYGBaNu2Lbp164aRI0eiXbt2cHFxweXLl8EYg6WlJSZOnIj169ejdevW6Nq1K9atW4cePXqgZs2a/HaE1/WGhobi6NGjn52458aNG+jXrx9SUlKwZcsWNGrUCD179kRcXBzfhzGGW7duoWXLlrCwsIC3tzdSU1MRHR39UcVfFRQH3596T5HSrziGv36JkZERhg4d+tEkgyKRqNBraWppacHJyQmmpqbCUJEyNDQEKKkkmpZUqvvMcFk9C/W9VF2p/PDhg8q2RQqvuM4Gfw91JpWgfcR3U+f+u6gpquLqGgb68uVLREREoGLFioiJiYFEIsHr16/x5MkTNG3aFADw7NkzDB48GAkJCfy1vbdv30aXLl0wbNgwnDt3DiKRCL///ju6d+8OMzMzpKenF5gMV6tWDW/evEFGRgZ27tyJrl27YtKkSViyZAm/P05ISED37t0RHh4O5CW5kZGRuHHjBlauXIn69esjKipKaYbZc+fOoV+/fgCARYsWwcHBAbdv30bHjh1x584dvp+qKPZXn3tfkdJNcTLCwMBAGCJqoO7PVVJ6aNQrQUdHp9iSDU0+C/W9FAdXqqou5uTkqGxbpPAU77XSdHCmzuGvX0L7iE/TxEqluh/TtWvX0LhxY8ycORMPHz5EREQETp48CVNTU354NcdxkMvlWLZsGTp16gQdHR2Ym5vzE+r8+++/yMjIUNpudnb2Jz9H5XI5Nm/ejIULF2LKlCkYMmQITp06hVevXvF90tLS8O7dOyDv/t+9e4fp06djwIABOHDgAFq1aoWHDx8CAN6+fYv58+fDwsIC+/fvx8CBAzF16lT+f1axYkV+u6pCw181n6JSWZRLipRlipOBnxu1QMoGjUsq1fUBTgpPcRZLVVWI7OxstUyAsWrVKuzYsUPYTD5B8Rx8aVbIkqQ4k0ryaYp9hLqqesVBnUllWloa/P390bRpUzRv3hzly5fH1KlTsWnTJnTt2vWjkwzC92hubi6Sk5Ohp6enVGUQntw4ePAgxo0bxyeZ7969w9atWzF16lSMGjUK7u7ukMlkfGVSJBJBV1cXjx8/BgBERUVBLpejYcOGGD9+PIyMjFCvXj2kp6eD4zhERETg3bt36N+/P78MT1ZWFvz8/ODo6AixWJzvr1ENxQQ9NFGP5lLs50vTCc/STHGSX5P236RwNC6pVFXiQlRHlddUKrahjuc5JiYGZ8+ehUQiEYZUJiYmBhcvXvxkJaA0UXyAlKbHQsN0SiZ1LvVS3NRxoBUbG4ukpCQ0a9YM5ubmaNu2LZ4/fw4DAwP88ssvfL8aNWrA3Nwc//77L8LDw5GQkICgoCD0798fAQEBmDlzJj/JBgBUr14dycnJkMlkyMjIwJEjR2BiYgKRSMQvW9O7d28MGTIEWlpasLS0RN26dfkJg/T09GBmZoawsDAgLwk1MDDAzJkz+YTV2toa4eHhSE9Ph6OjI2xsbLBo0SIMGjQIo0ePxk8//YQrV66gdevWSn+bqlClUvMpKpQ0/LVoqON4jJROGnWEJRKJNPKgpLRTXOuliqRS8fyqYlvFYe3atRgyZAi2bNmilkkoipLig6Q0XcunSCopuSxZFK8hTdx/q2PttrCwMKSmpvITNY0fPx4uLi6YMGECbGxs+H6VK1fG3Llz8fr1a36CHi8vL1hYWODChQtwcnJS2q6dnR0iIiLQvn17NGnSBOHh4fz1jiKRCBUrVsSgQYP456tChQro1asXnj9/DolEAkNDQ9jY2MDKygoA4OnpiVmzZsHBwYG/jxYtWsDU1BTx8fEwMzPDvn370KdPHzx//hyPHj1C7dq1IRKJVL7OpoLib6ekUnMpKpSK0QJEvRTHY6XpWICoh0YdWYlEIrWcFSbfR5UT9SgOOlWxLYWMjAz4+/vj7du3CAwMRNOmTfmlHfr27avS6wSmTp2KPn36ICAgAO/fvxeGS5UPHz6UuuGkNPStZNLkSqUq9x8K1tbWGDhwIJ+81axZE0eOHMEff/zx0YF069atERQUhNevX+P169eIiIjA33//jRo1aij1AwBXV1d4enqifPny+OOPP3D+/Hk+SfXw8MC9e/dQr149pdv06dMHixcvhqGhIbS0tLBw4UKMHDkSAGBvb4+BAwcq/U1mZmY4dOgQ7OzsAABVqlTB33//jdu3byMgIADjxo2Dubk5ateuzd9GlRQHvnQArLkUw7DpeLBoKI7H1DGygJQuGpdUKhZkJyWHOpJKVVUqU1JS0KNHDwwYMABBQUEAAGdnZyxduhTXrl2Dr68vP1028oayBQYG4vz585+d8j42NhbXrl1DUlKSUrviAGrv3r0wMTHh26VSKfz8/DBjxgz4+fmp5H+lbqUxqVS8Fulam5JFkyuV6jiwtbOzw6xZs1R+EKevr49ly5bB398fU6ZMUZpUSktLq8DqnkgkgrW1NZ84amlpfdd+ISoqCnXq1Pno+k5VURwj0LGCZjM3N6dhmUVEcTxmZmYmDJEyRqOSyu/5ICPqo8rnRfEhoaqky8TEBGPGjMHy5csxYMAAuLi4wMfHB/369UPt2rX5gzbGGE6ePIlGjRrB09MTw4YNQ/PmzdGuXTt+JkNFP19fXzRt2hTe3t5wdnbGmDFjPpphMb/ExEQMGDAA48aNw/79+zFu3DjMmzdPZY9RXXJyclT63BYFRVJJlcqSpbS9jr6GIslSR1KpSSIjI/Hff//x+7uwsLAvLqXzPVT9GUJKJgMDA408SVUSKa63Vtd7lpQeGplUquvDQiaTqXUSF02lOJBXxXAjVU8Oo6WlBXd3d3h6eqJmzZp4//59gQeB169fx5gxY2BsbIzjx48jMjISly5dgpWVFQYMGIAHDx4AACIiIuDj44NRo0YhMDAQPj4+uH79Or+Wm0QiQf/+/XHjxg0gb+jt+PHjER0djRMnTuDVq1cYO3YsoqKiSvwHYk5OTqm7NlGxj1BXUkn7iMJRHIxo0hIAlFR+HR8fH0ycOBHr16/n19Fs0KCBsJvKqHOyN1JypKamUjW6iNy6dUvloyZI6VS6jgi/QHHAqI4PC5lMhrFjx8LBwQGTJk3CjRs3vungUSKRIDAwEC9fvvzqhCg1NRW+vr749ddfsX79+q++XUmjSDxUUY3In2ipY1kRiURS4P+Z4ziIRCKsW7cODRs2hI6ODqytreHj4wMnJyds3boVHMchPDwcurq68PLyQo0aNdCtWzcsXboUhw8fRmBgIJD3+nz9+jUA4OHDh7hz5w5mzZqFBg0aQEtLC1OmTMG+ffuUht2WRDKZ7KPrt0qLgobxfS/aRxSeYh+hjueluCiGxlNS+XljxoxBgwYNsGbNGrRp0wb6+vro3LmzsJvKKD43Sut7hXydtLS0En9iVhO8fPkSEolEo04IksLTqKRSUQlTx4dFuXLl4OLiArlcjqNHj6Jfv36wt7dHmzZtcPjw4QInY2CM4ejRo6hTpw7s7e3h6emJDh06wNbWFv/++2+BfyfHcbh06RLc3d3h5OSEpUuXwsDAAG/fvi3wOsL09HS8ePECZ86cwcGDBzF79mzMmDEDM2bMwIgRI7B58+YC76coKZJJVVQq1ZlUGhsbK/0eGBgIT09Pfuiqrq7uRzvO7OxsvH//Hnp6etDR0UFUVBSSk5Px9OlTvo+zszPMzMzw+vVriEQiGBgYICQkBIwxSKVSiEQimJubK223NKBKpTLaRxSeIplUx/NSXCh5+TpWVlY4dOgQZs6ciUqVKmHy5MlqvTZL8R4p6L1CNIeBgQHevXsnbCYqFhAQAORNFkZI6Toi/ALFAa46KpVaWlpwc3ODubk5fv75Z5w/fx5Lly6Fvr4+pkyZAkdHRxw9elRp4pZz585hypQp4DgObm5uuHXrFm7duoV+/fph6dKlmD17Nn/AIZVKcfToUbRo0QJ//PEH3rx5g5kzZ+Lx48c4fPgwli9fDj09PcTGxsLX1xdubm6oXbs2HB0d0bFjR4wcORLTpk3D7t27cfnyZVy/fh0PHz7E8ePH8ebNm3yPpOipcvhr/qTyU5PkFFa1atWQlZXFL8x95MgRGBgYoFy5cvjhhx+gq6sLX19fxMTEICEhARcuXICHhwfS09MxceJEaGlpISoqCnp6ehgzZgz+/PNPhIeHY9++fUhMTISFhQX09PRgamqKt2/fIisrC2KxGIaGhujbty8WLFiAM2fO4MyZMzhx4gRu376t8seoSqU5qVTHtR+0jyg8RVKpjueluCiSltJazS9K+vr6GDFiBB4+fKjWKiXyJfuUVGo2S0tLZGVlITY2VhgiKnTp0iUAQP369YUhUhYxDdK3b18mFotZYmKiMKQS8fHxzNXVle3Zs0epXSKRMB8fH2ZlZcU2b97MGGPsxYsXzMnJibm6urITJ06w7Oxsvr9cLmeHDh1S6r9hwwYmFotZ69atWXBwMOM4ju+v4Ofnx8RiMROLxczFxYXNmzeP+fn5saVLlzIbGxv24MED4U1KhNu3bzOxWMy2b98uDH0zxbbEYjGTSqXC8Hd5/vw5c3BwYI6OjszR0ZFZWloyf39/xvKes127djEHBwf+/h0cHNjSpUtZRkYGv42JEyeyCRMmsEuXLjF7e3smFouZjY0N27FjB/+c7tixg40dO5bJ5XLGGGMvX75k3t7ezNLSkt+2paUl8/X15fuURB07dmROTk7C5hJt4cKFtI8ogTZt2sTEYjGbPXu2MFRqjRs3jonFYnbq1ClhiBSjKVOmMLFYXGLfC0Q1JkyYwMRiMbt8+bIwRFQkIyOD1a5dm4nFYnbgwAFhmJRBpavM8AWKqom6qjtxcXHIzc1VWshZIpEgPj4eBgYG0NXVxc2bNyGVSrF7925wHIeNGzeiW7duSsMmtbS00KNHD7Rr1w5Hjx5FamoqmjZtCmNjY0RGRuLEiRNIT0/n+ys4OzvD09MTR48eRVBQEObPn4/u3bvDxcUFpqamBa47VhKo8prK/NcnqXr4q42NDYYNGwYjIyP8+uuvuHz5Mlq0aAHkPWcDBgzA48eP+fXeHj9+jJkzZ6J8+fJK29HS0kK7du3w6NEjRERE4MWLF/D29uYf/8CBA/HPP//wFQxra2vs2LEDUVFR/LajoqIwZMiQEl3l+PDhQ4n++z5HOIxZVWgfUTiKUQyaVKlU7J9K63tE01GlUrO1bdsWAHDq1ClhiKjIkSNHkJubC5FIhPbt2wvDpAyipPIbREVFIT4+Ht27d4ejoyNq164Ne3t7tG7dGgsWLECzZs2wePFiZGZm4tq1a/jtt9/g5OQk3AyQdxBVvnx5mJqaQk9PD05OTvxwyt27d8PJyQne3t4ICwvjb1OzZk0sX74cjRs3VtpWaaHq4a+qTiq1tLQwduxY3L59G0uXLuUXFi8sHR2dAh+z1neu41ZSlMbhr4rXj7r+btpHFI46r3UtLor9kyZNPqQJ1H2cQEqGrl27okaNGjh27BhiYmKEYfKd5HI5NmzYAABwd3dX63XQpPRQz5FVMVH3GeGQkBAAgIWFBTp37oxly5bhwoULePDgAV69eoVt27ahVq1akMvl4DgO1atXF26Cl5SUhAcPHqBhw4b8LJ81atTAihUrcP/+ff5aqfbt25fqWR3zKyjB+lYlfTY3a2trZGVlacTz9SU5OTlqf8+pmrqnmKd9ROFo4vqhimv7aar9kkVdJ5RIyaKtrY1BgwZBLpdj1KhRNAuziu3cuZNfn3LIkCHCMCmjNGrvqs4zkBzHIT4+Hm5ubrh+/TpWrFgBT09P2NrawsTEROngWiQSwcjICBEREQX+Lbm5udi/fz8SExPxyy+/CMMwMTHBiBEjcOvWLYwfPx6rVq3CmTNnhN2UKCaYKclUnVSqulKpCjVq1EB4eHiJfy5UoTQOf1XngQXtIwpPEyuViqTSwMBAGCLFSBNGiZCv8/vvv6Nhw4Z48OAB+vbti+TkZGEXUggPHjzAihUrAADe3t6ws7MTdiFlFCWVX0kmkyE1NRUikeiLB9ImJiZwcnLCqVOncPXqVaVYZmYmpk6dilWrVmHcuHGwt7dHeHg4Fi1ahMjISKW++vr66N+/PywsLPg1Dj9FJpMhOztb2FwiqLKCkn9bJTGprFOnDmJjY3Hjxg1hSONwHPfF90JJo85KN+0jCo8qlaSoUKWy7NDT08O2bdsgFotx9+5ddO7cGYcOHUJmZqawK/lK165dg5eXFyQSCVxcXLBw4UJhF1KGaeTeVR1nImUyGZKTk79qaKOWlhaGDBkCExMTDBo0CN7e3ti1axeGDx8OR0dH+Pn5YdWqVfxELElJSdi2bRvatWuHIUOG8GvITZo0Cb/++itSUlLg4eEhvBslOTk5ah/aV1hf+n99i/wnDEpiUmlnZwd3d3d+WIgmk8vlX0yeShrFgT7tI0oWTaxUKk5g0LVGJYtiQqzStu8ihWNqaopjx47hp59+QkJCAqZOnYp69eph8ODBXxzdQf7P1atX0atXL3h7eyMrKwtOTk7Yvn27sBsp47SYOsp6xWTw4MG4fPkyHjx4ABMTE2H4u2RkZGDAgAGoWrUq1q9f/1WzFMbFxWHNmjU4ceIEsrKyYGZmhq5du2LUqFFKszAyxvDgwQNs3boV/v7+SEtLAwAYGhrC1dUVs2bNgrW1db4tK7t27Rp+//13/O9//0PXrl2F4WJ35coVDBo0COvWrYObm5sw/E0OHDiA6dOnA3nXr5mamgq7kCJib2+PihUr4vbt28JQiTVw4EBcv34dERERKhmOnR/tIwrv0KFDmDp1KpYvXw5PT09huFRyd3fHs2fP8OLFC2GIFCMfHx+sWLECfn5+n5wki2im//3vf9iyZQtSUlL4NiMjIzRp0gQ2NjawsLCAhYVFgZ8NOTk5yM3N5a+Hl8vlyM3NVfoqqK2g2zDGoK2tDW1tbWhpaX30c/42RWU9/+85OTngOA4cxyE3N1fpu+JLLpeDMYZy5cpBV1cX5cqV++TPIpEIurq60NHRgZ6eHtLS0pCSkoKUlBSEhITgxo0bSqNc2rZtCx8fHxqFQT6iUUnloEGDcOXKFTx9+vSjZR5UITY2FsbGxmrZ9vfIyspCaGgonJycCtwZFrcLFy5g6NChWL9+Pbp37y4Mf5N9+/Zh5syZAID79+9TFaAY1a1bFyYmJqUqqfT09ERgYCBev34tDKkE7SMKR5FUrlmzBj169BCGS6Xu3bsjKyuLXxyclAx79uzBn3/+iXPnztG1YGXUgQMHcOrUKQQEBAhD5DNq1aqFadOmfXdxgGgujUoqvb29ce3aNbx48UJt69CRb3f27FmMGDECGzZs+O4qieKAAADu3r2LKlWqCLuUGYcOHcLZs2fxv//9j58dtCjZ2NjAzMysVCWVPXv2xIMHDxARESEMkWKkSCo3btxY4MREpVHPnj0RHR2NO3fuCEOkGK1duxarV6/GvXv3ULlyZWGYlCESiQQPHjxAfHw8kpKSIJFIwHEc4uLikJCQwF8u8b2EFUI9PT2laqGBgQFEIhFfMVS0K77y//41I2C+xocPHyCVSpGdnQ2ZTMb/nJWVhYiICCQmJkIkEqFatWqoWbMmWrduDWdnZ+FmCFGikUmlOoa2kcI7efIkxowZg3///RedO3cWhr/Jrl27MGfOHABAUFAQqlWrJuxSogUFBWHXrl34+++/v3voyMaNG3Ht2jVs27btu7dVGD/++COqVq2KW7duCUMlFg1JLJkUSeXWrVs1ZhHt/v3748aNGwgPD6fPoxJk4sSJOHXqlNL6roQQQr6fRk3Uw3EctLW16QO8hFFMWqKKiRHynwMpjedD0tPTcenSpY9m8SyMsLAwmJiYqOzM5bdijKnkOS1KHMcV2/+LfJkmTdRjaGgIxhiio6OFIVKM3rx5g9q1awubCSGEfCeNSio/fPiASpUqCZtJMVMklao4mM8/42tJnP21qBkaGhbbSZTSOPurXC4vlqHC5PMU72VNSioV61NSUlmyvHnzBhYWFsJmQggh30mjksqcnBxUqFBB2EyKWW5uLpCXAH2v/ImkOiqVHMchKSkJycnJ/N+tChzH4dGjRwgODkZ2djb69u2L2rVrw8LCAvb29nj27JnwJp8lkUgQExPz2Rk/1a20JvWqeB0S1VK8llRx4qmkUCSVoaGhwhApJsnJyUhISIBYLBaGCCGEfCeNSyqNjY2FzaSYKZIzVVz3p66kMi4uDqNHj4a1tTWcnZ3RqFGjAmeGk8lkCAwMxPnz5xEdHa30N8hkMkyePBnnzp1DZmYmfHx8MGPGDJw4cQKLFi1Ct27dsGnTJgBA9erVMXbsWPj5+eHmzZuoW7duvntRDalUis2bNyMkJESp/dWrV7h58+YX11L8HFX+74uSlpYWJZUlkOL1pEmVSkU1rDRNZKXprl69CgBo2LChMEQIIeQ7aVRSyRgrtqGA5NMUC64r1lv6HupIZp4+fYqOHTvi3LlzGDhwIPz8/HDv3j38/PPPfB/GGE6ePIlGjRrB09MTw4YNQ/PmzdGuXTs8fPgQyKtGRkdH48GDBxg2bBi2bduG5ORkREVFoXfv3pg8eTJWrFgBMzMzrFy5EpMmTYKTkxNMTEy+eRipRCLhrw3Kzc1FcnIy0tPTlfpER0dj48aNePr0qdLtpk+fjlGjRuHVq1dK/b+FOp6HoqCjo4PExERhMylmCQkJAKBRI01cXFwAAHfu3Cm1VX1NExAQAB0dHbRq1UoYIoQQ8p2+/yi/BJHJZN98cE7ULyMjA1DRRD35D85Usb38qlatik6dOqFBgwaoXLmy0gmK69evY8yYMTA2Nsbx48cRGRmJS5cuwcrKCgMGDMCDBw+gp6cHExMTbN68Gbm5ubh+/Tp8fX0xfvx4ODg4YNy4cbCzswPHcfz/pLCkUilycnIwfvx4WFlZoVGjRnB0dESjRo1w7do1AMC7d+8AQGkacH9/fwQFBeG3335DnTp1+PZvVVoPkrW1tREfH/9dVVqielFRUQCAihUrCkOllmJNUIlEgidPngjDpBgEBATAxcVFo05eEEJISaFRSSXHcVSpLIEUCZSOjo4w9M3UkczUq1cP//33H6pUqQIvLy/06NEDISEhStU4xWtr3bp1aNiwIXR0dGBtbQ0fHx84OTlh69atQL4ZH8eMGfPJAxfF+lDfIy0tDZmZmbCyssLhw4fx8uVLBAUFwcbGBtOnT8fbt28hlUqhr68PMzMzAEBMTAz+/vtvVK5cGd7e3t+VlJfWSqWWlhYYY3jz5o0wRIrR69evoaWlpVGXL4hEIjRo0ADIW1aJFK/r168jOTkZbdu2FYYIIYSogEYllR8+fFDJEEuiWiU9qQQAa2tr+Pn54dy5cyhfvjx69OiBHj16KC39oaurC319faXbZWdn4/3799DT0+MTzerVq8PW1lapn4KBgYHSZCSpqano2bMn7t+/r9TvSxTb6d69O5o0aQI9PT1Uq1YNv//+O9LS0vD+/XuIRCKkpaXxlbn169cjKioKffv2haWlpXCT30Rdz4O6KV6Db9++FYZIMXr16lWhhoGXdO7u7gCAffv2ITs7WxgmRWjDhg3Q1dVF7969hSFCCCEqoFEZWE5OzkfXlZHip7h2z9zcXBj6ZuqokHEch0OHDuHNmzews7PDnj17cPHiRejr68PNzQ1Pnz7FDz/8AF1dXfj6+iImJgYJCQm4cOECPDw8kJ6ejokTJ/IHxHK5/JMzxxobG8PQ0BDx8fEAgBs3buDNmzffXKGpVasWnJ2dsWvXLgQFBSEhIQHnzp3DggUL0KhRI1haWsLGxgZVqlTBuHHj0KtXL1y4cAFmZmYqWVy+tCaVipNOiutgSfGTSCR4//49rKyshKFSz8vLC2ZmZsjMzMThw4eFYVJEHj16hMDAQPTt2xempqbCMCGEEBXQqKSycuXKKllUnqgOx3F48OABrKysPqryFYY6rqnMyMjAtm3b0LZtW8ybNw9nzpxBWFgY6tSpg4yMDAQHB8PGxgbTpk3D1atX0axZM7i4uGDy5Mlo27YtTp06hZo1awJ5SaNUKoVEIhHeDZAXt7a2xty5c+Hi4oIxY8bg119/5a9vzH+tn0wmQ0JCAl68eIEzZ87g4MGDGDRoELZu3QqRSIS///4bjo6O6N27N1xcXDB8+HA0bNgQa9euRYUKFWBubo4FCxYgJSUFYrEYgwYNgrW1tUoO3ktrUlm9enUAwJUrV4QhUkzu3r0L5JvYRpPo6upi8ODBAIA1a9YgOTlZ2IWoGcdxmD59OnR1dTFmzBhhmBBCiIpoMXWUforJtGnTcPDgQdy/f5+/jowUr5CQELi7u6N79+5Yv369MPzN/vnnH6xZswbIm6pfFdVP5C0psmbNGhw5coRP7EQiEby8vDB9+vRPXh8pJJVK8ebNG1hbW38y6b179y4mTZoECwsLDBo0CK1atYKOjg4uXryIYcOGfTFh6969O/755x/++uH09HRIpVJUrFjxk+v8ZWRkYMCAAejRowe8vb2F4W+WmZmJevXq4YcffsCNGzeE4RJr27ZtWLBgAbS0tHDv3j3aT5QAixcvhq+vL7Zt24Z27doJw6Xehw8f0K1bNzx//hwtW7bE7t27hV2IGi1btgwbN27EjBkzMHLkSGGYEEKIimhUpdLOzg4AqFpZgiiqEI6OjsJQoXwp4SqsGjVq4O+//0ZERARev36N169fIyIiAosXL/7qhBIA9PX1YWNj88mEEgAaN24Mf39/7N69G23btuWv89PR0YGbmxs2bNiAW7duITg4GC9fvuT/nhcvXmDRokWYOHGi0oRUxsbGqFq16icTSgC4d+8e3rx5A1dXV2GoUBTPQ2k7J+Xk5ATk/d2KWXJJ8fL39wcAlb02S5py5cph+/btqFSpEvz9/bFt2zZhF6ImN2/exMaNG9GqVStKKAkhRM00KqlUTI6iWOCYFL9Dhw5BS0sLXbp0EYYKpbQlMd+ibdu2WLNmDbp27YqaNWt+lCjq6+tj4MCB3zx8leM4HD16FPXr1//uCXoUSmtSWb9+ff66yh07dgjDpIiFhYXhxYsXaNWqFYyMjIRhjWFubo6NGzcCABYsWIBZs2ZBJpMJuxEVunbtGoYNG4YqVarwo1sIIYSoj0YllY0bN0b58uWxd+9efPjwQRgmRezatWt4+fIlOnbsiB9++EEYLhR1VSo1WUREBPz9/fHbb799tpr5LUprUikSifghlo8ePcKZM2eEXUgRUiT2Q4cOFYY0TrNmzXDw4EFUqVIFe/fuxa+//opbt24JuxEV8PX1hbe3N6pWrYpDhw7R5DyEEFIENCqpLFeuHDw9PfH+/XscP35cGCZFbN26dQCAIUOGCEOFRknlt/P394e+vr5KJ0Ipbclkfvlfj0uXLv3kTL1EvTIzM3H06FFYWVmhRYsWwrBGcnV1xYULF9CyZUu8fPkSXl5ecHd3x+XLl4VdSSEEBwfD3d0dixcvhqurK06ePPnNIzsIIYQUjkYllQAwcOBAAMDmzZuFIVKEjh49inv37uHXX39FkyZNhOFCo6Ty2xkbG8PCwgLly5cXhgqttFYqkXdgb29vD+StV7lw4UJhF1IEjhw5guzs7DI3I6epqSl2796N/fv3o2vXrggJCcHgwYPRqFEjjBkzBvv378fr16+FNyOf8PTpU+zfvx8DBw5Er169kJKSgnXr1uHgwYMq3ecRQgj5PI2a/VXBy8sLt27dwsSJEzFhwgRhmKjZ8+fP0a1bN1SpUgUXL15U6bVSS5cuxb///guoePZX8m0SExPRuHFjVK9eHXfu3BGGS7x79+6hZ8+efFK8YsUKeHh4CLsRNQkODkbv3r3RpEkTHDhwgL/OtSyKjY3FwYMHcfv2baX3kqGhIapXr44aNWqgevXqMDc3B2MMHMcpfeXk5CA3N/ej78J+wtiXfi/omk89PT1oa2srfeno6EBLSws6OjrfFdPT00P58uVRoUIFGBkZwdjYWGnCs9zcXLx//x7p6enIyMhAcnKy0nqzjo6OGDx4MH777Te+jRBCSNHRyKQyPDwcbm5uyMzMxNy5c/HHH38IuxA1SU5OhpubGxISEnD8+HG+IqQqiunhUUqSysDAQIhEIjRu3FgYKtWSk5PRqFEjVKtWDUFBQcJwqZD/BAUAzJw5EyNGjFDqQ1QvNjYWPXr0AACcP38elSpVEnYp0+7evYugoCC8fPkSr169wosXL5CVlSXsplL6+vp8cqejo6P0c0Ftn/tZkZgqklO5XK70/XOxghLZghgbG6NmzZqoV68eWrVqhebNm9PyQIQQUsw0MqlE3lTiffv2BQCMHTsWU6ZMEXYhKhYaGorBgwcjLi5ObZWf5cuX43//+x+Ql7DVqFFD2KXEkMlkGD58ODIzM7Fz506VVmyLW0pKCho2bIiqVasiODhYGC41OnTogJcvX/K/9+7dGytXrlTqQ1Tn3r17+OOPP5CamooDBw6gadOmwi6kAImJiXj9+jW4vDV0P0UkEkEkEqFcuXLQ1dVV+jn/l6om7FK15ORkZGZm8l/CwxMTExOIxWIYGBgotRNCCCl+GptUAoCfnx+mT5+O7OxsNG7cGBs3bkTVqlWF3YgKnD17FhMmTIBUKsWcOXNUOjlPfitXrsT69euBUpBUpqSkwMPDAxKJBH5+fhr12nv//j0aNGiAKlWq8GuRlkZhYWHw8PBASkoK31a7dm3MmTOHnyWWqMbx48cxfvx4GBkZ4Z9//kGnTp2EXQghhBBSSmn0hSxubm64cuUKWrdujbt376J9+/ZYtmwZXr16JexKCuny5cvo168fRowYAR0dHezbt09tCSUApWts8v9cEsXHxyM2NlbYrBEU//vSfk7K2toap0+fRt26dfm2qKgoDB48GP369UN4eLhSf/LtTp06hV9++QXjx4+HjY0Nzpw5QwklIYQQomE0ulKZ3/nz57Fjxw5+XbDGjRujefPmqFGjBuzs7GBnZ1dihwSVJBkZGQgMDERgYCAuX76MqKgoAECfPn0wZcoUVKlSRXgTlfrnn3/4hayDg4NLdPXv4cOH8PDwgJOTE7Zt26ZRw18zMjLg4OAAMzMz3L9/XxgudSQSCcaNG4dLly4JQ3BwcECLFi3w888/4+effxaGicCDBw/w9OlTPHv2DDdu3EBUVBTMzc0xadIk9O7dW9idEEIIIRqgzCSVCv7+/jh58iTOnDmDzMxMpZipqSmqVauGatWqoWrVqqhWrRp0dHSU+pR0wmtohD/nv9ZGKDc3F6mpqUhNTeVn2VNc25KRkYHExEQ8efJE6TY///wz5syZo1TpUae1a9di9erVQN71WZUrVxZ2KTEuXbqEP/74A82bN8eWLVtgaGgo7FJqSSQS2Nvba0xSqXDx4kWsX79eaVZJIXNzc4jFYlSvXh0//PBDqdtHqFJycjLevXuHxMRExMTEIDExUSnu4OAAb29vtVxfTQghhJCSo8wllfk9fPgQQUFBCAwMRHBwMNLS0oRdiICBgQGaNWuGFi1aoGXLlqhTp46wi1qtX7+en0jl/v37Kp3xj+M4hIaGIjo6GjY2Nqhdu7ZSwrBq1SoYGhpi0KBB+O+///Do0SPY2tpiwIABBSbpiqRywoQJmDhxIt8ulUpx/vx53L59G02bNkWnTp2gr68PFOI+iktWVhbs7OxgamqKkJAQYbjUu3//Pm7fvo379+8jJCQEycnJwi5EoGbNmjA3N0ejRo3g6uqKJk2a0DqBhBBCSBlRppNKoezsbEgkEmRkZEAikUAikfBToMvlcn4q9Pxfivb88S/9XFJpa2ujYsWKMDExgampKXR1daGjo4MKFSrA2NgYxsbGxX6Q6OPjgxUrVgAAQkJCYGpqKuxSKIGBgZg2bZrSouNmZmZYsWIF2rZtCy0tLUyaNAkfPnxA+fLlcezYMbRs2RJVqlTBn3/+CSMjIwQGBmLOnDmIiYnBTz/9hCZNmmDNmjU4dOgQGjRoAACIi4vDsGHDEBkZiUaNGuHGjRv4448/MHv2bAD44n2UFFKpFLa2tjAxMcGDBw+EYY0jlUqRnp6O9PR0pKWlIScnR9ilTCpfvjyqV69eokcMEEIIIUT9KKkkpcqGDRvw999/A3mVZlWscffs2TP07NkTcrkca9euRfv27REfH4///e9/OHDgAHx8fNClSxesWLECGzZsgIWFBfbs2YNatWrx27h48SKGDRuGH3/8Ec7OzgCAJ0+eIDw8HIcPH4ajoyM4jsO4ceMQGhqKvXv3ombNmliyZAmePn3KD4/93H2UJB8+fIC1tTUqVqyIR48eCcOEEEIIIaQM0ejZX4nm0db+v5ds/p+/h2Lx7WXLlqFTp07Q0dGBubk5Fi9ejL59++Lff/9FRkYGypcvD7lcjiFDhiglezKZDHv37kWnTp1w8uRJLFu2DFOmTEFWVhays7MREREBALh9+zbOnj2L9PR0rFq1CiNGjMC2bdvwyy+/8Ndbfuo+ShrF/57OSRFCCCGEENUclRNSRNSRVCoIh/bm5uYiOTkZenp60NbWhrW1NQwMDPihrAppaWl48eIF3N3doa+vD8YYduzYgdjYWJiZmeHGjRtgjCEwMBDNmjXDypUrkZSUhPT0dPj4+MDLy4vf1qfuo6SipJIQQgghhKj2qJwQNcufSKpqncoaNWrA3Nwc//77L8LDw5GQkICgoCD0798fAQEBmDlzJn89I2MMcrlc6fba2toQiUQ4c+YMoqKiMGfOHPj4+GDChAkYN24cAgICEB0dDZFIhJcvX8LKygq7du3Cvn370KVLl49mDy3oPkoaqlQSQgghhBAFSipJqaKOpLJy5cqYO3cuXr9+jXbt2sHFxQVeXl6wsLDAhQsX4OTkBADQ19cHx3HIyMhQur2ZmRk6deoEPz8/tG7dGvv378eqVaswfPhwdOrUCUZGRrh8+TI8PDxgZGSEgQMH4ty5c4iLi8OlS5cwZswY9OrVC8nJyZ+8j5KGkkpCCCGEEKJAE/WQUmXHjh2YN28eAODFixf8UhxFITc3F2FhYfjxxx8/Wt4jNzcX79+/R25uLipWrAg9PT0+lpOTAy0tLYhEIsTFxWHRokU4ffo0kJec/fTTT/D29kbHjh0B4JP3UdJYWlrCwMAAz549E4YIIYQQokYcx2HdunWoUqUK+vfvr7IT7SVJRkYGlixZgs6dO6N169bCMClhKKkkpcquXbswZ84cIC/5KleunLBLqZCbmwvGWIlPHD/HysoK5cqVw/Pnz4UhQgghhKhRXFwc3N3dYWlpiW3btpWoZcdU5eHDh/Dw8EDXrl2xevVqYZiUMDT8lZQq+c/EqXqinqKko6NTqhNK5D0XJf3aT0IIIUQTBQcHIz4+HjY2NkqjozTJlStXIJVKUa9ePWGIlECl96iclEnquKaSFI62tjZdU0kIIYQUMalUiiNHjqBly5b4888/S/1J6oIkJSXh5MmTGDhwIAYPHiwMkxKIkkpSqqhzSRHybSipJIQQQopeYGAgbt68ib59+xbp3BJF6fTp04iNjYWHhwcVEUoJOionpQpVKksOLS0tSioJUSOO47B69Wrs3r2b3mvfITQ0FGPGjEFcXJwwRIrYs2fPcPnyZXo9fweJRIKNGzeiefPmhZ68RiaTISEhAampqWp5LtLT05GQkACJRCIMfZXY2Fhs27YNvXv3hoODgzBcKOp+zISSSlLKKBJJVSeUEokEubm5wmbyGVSpJES9EhMTcfDgQZw6dQpZWVnCMPlKV65cwcmTJ/H06VNhiBSxAwcOYNasWXj37p0wRL7ShQsXcPfuXQwdOvSzVUqO43DhwgUkJibybWFhYejduzdsbGzg4uKC5s2bFzjZXkJCAtatW4d58+YhJCSE/6yPjIyEt7c3YmJiEBYWhnnz5mH27NkIDw9Hbm4u/Pz80KRJEzg6OsLFxQVDhw795n0XYwz79u1Deno6BgwYwB/vcRyHP//8E8OGDYNMJhPeDPjOxxwZGYmlS5di6dKliIyMVGr/1GPOjzGG5ORkpKamKrWrg1QqhZ+fH2bMmAE/Pz9IpVJhl2JBSSUpVRSVSlUOfZVIJBg8eDAOHDggDJHPoIl6CFGvsjARR36rVq3Cjh07hM3fJSMjA5cuXYKpqSlq1qwpDJd56viff4pMJsPr16+RlpaGpKQkYZh8heTkZGzYsAGtWrWCi4sL356amorOnTvjn3/+4dtSUlIwb948HD9+HABw8eJFdOzYEaGhoZgyZQouXLiAgIAA2NjY8LdB3kmYli1b4uTJkwgKCkKvXr1w584dIO946eXLl7h8+TJ69uyJoKAgREdHIzo6GnPnzsW4ceNgZmaGNWvW4NatW9i0aRMMDQ2Vtv8lYWFh2Lt3L9zd3WFtbc23y2QyhIeHo0aNGtDT01PZY2aMYefOnejQoQOCgoJw7tw59OrVi08sP/WY4+LicOPGDfTr1w8pKSnYsmULGjVqhJ49e340KuLhw4fo0KEDLCwsUKdOHaxYsULppLxiRQCpVIqAgADExMQAeaMs5syZo5Qkx8XFoXfv3pg1axZiYmIwYcIErFy5ko8XJ9UdmRNSBBTJpKorlQBw7949YRP5DKpUEqI+ZWEiDqGYmBicPXu20EPmCnLv3j08fvwY//zzD+zs7IThMk9V//PQ0FDcvn37s58JGRkZiIiIEDaTb3Dq1CmEh4dj0KBBSlXKd+/e4c2bN6hVqxbf9vr1ayQkJIDjOL4NAMRiMTp37gxbW1uYmZlBR0eHj7169QrTp0+Hu7s7zp49i3379sHa2hqPHz8GAFSsWBEcx2H+/PkYPnw4zpw5gx07duDnn3/mt+Hs7IwOHTqgZs2aMDY25tu/BmMMu3fvBgB4eXkpHesZGRnB19cXs2bNAlT4mIODg7F06VJMnToVx44dw86dO6GtrY03b94An3nMLVq0gFQqRWRkJG7cuIGVK1eifv36iIqKwpUrV/jtK5JUJycnfuTJkSNHcPLkSb7P9OnTcejQIYSEhOD333/HqlWrEBMTg1GjRmHXrl04cuQIkFeJXbRoETIyMnDhwgXs3r0bQ4YMQWho6DdXhNWBkkpSqigOrIQ7jJKsKM8EFyVVVosJIcrKwkQc6iaVSrFt2zY0btxYqapDVCsrKwuLFy9G3759ce7cOWGYl5OTgw8fPsDExATVqlUThskXvHr1Cj4+PujSpQuaNm2qFOM4DhUrVkTdunX537dv3w6O4/hqX/v27bF3715IJBK0b98ew4YNUxrmqajYJSQk4OHDh5g9ezYGDRqE+Ph4tGrVCgCgr68PkUiEOnXqoE+fPnzSJxKJMGfOHMycORP79++Hs7Mz1q9fj8zMTH77XyM4OBj79+9Hv379lKqUCsbGxvyoDVU8ZqlUik2bNkEqleLq1auYOXMmBg8eDBMTEzg6OgKfecyK+3z37h2mT5+OAQMG4MCBA2jVqhUePnwIAHj79i3mzZsHLy8vLFu2DK6ursjMzERSUhLOnDnDH8vK5XJERUVh9erV4DgOWVlZmDNnDjIzM2Fubo6HDx+C4zjcvn0bZ8+eRXp6OlatWoURI0Zg27Zt+OWXX765IqwOdFRIShVdXV0AQLly5YSh72ZlZQWO43D16lW8fv1aGP6imJgYXLx48aOEV1VngksaxZk+uhaVENVSxUQcpUlGRgb8/f3x9u1bBAYGomnTprCwsICFhQX69u370Rl4juOQlJSE5OTkz+5/rl27hps3b2LkyJEauTD89/jW//nnGBoaYvHixWjdujUuXbr0yevdkpKSkJaWBpFIRCclv5Ei4cvIyMDIkSMLHLkgk8n4a+vOnj2LK1euoFy5coiKigLyRng1a9YMV69exf79+/H27Vu0adMGo0aNQmJiItLT03H37l1Mnz4dffr0wZMnT1CnTh0cOnSIHy5qZGQEsVgMR0dHmJmZKd2/vr4+RowYgcePH2P69OnYtGkTnJ2d4evr+9FxUUEUCV7NmjXRt2/fj0akcRyHxYsXY/Lkyfxr7Hsfc0JCAp4+fYp169bhp59+woMHD9CuXTvs2rWLf3yfe8xRUVGQy+Vo2LAhxo8fDyMjI9SrVw/p6engOA4vXrwAAIwcORI6OjrIyMjAP//8g9zcXNy9exexsbH8tjZt2oT379+jefPmOHfuHMLDw3HgwAH069cPqampkMlkCAwMRLNmzbBy5UokJSUhPT0dPj4+8PLyyvdXFR96V5NSRZFU5h+68L0UZ4V0dHQQFhaG0aNH8xdlf4u1a9diyJAh2LJly2eHAGkKxXNRFh4rIUXpUxNxMMYQEhKCefPmYd26dUhJSVG6HWMM0dHROH/+PAIDAz95cK8Oubm5uHLlCmbPno1t27Z9tkIhkUgQFxcHxhhSUlLQo0cPDBgwAEFBQUDe8LmlS5fi2rVr8PX15c/Ax8XFYfTo0bC2toazszMaNWqEgIAAwdb/v9TUVP7aM1dXV2G4QL6+vujSpYvSRBtl/X/+taysrLB9+3asWrXqi9f/Ojk5oVKlSsJm8hlPnjzB/v374eXlVeBsqLVq1ULVqlUxd+5c+Pj4YPbs2Vi8eDFcXFzw4sULMMaQkZGBffv2IS0tDc2aNcOZM2dw6NAhhIWFwdPTE4mJidDR0cGTJ0/Qr18/nDp1CqtWrSqwYshx3Eef/c+ePcOpU6dQrlw5DB48GPfu3cP06dOxatUqzJs374uJ5bVr13D16lUMHToU5ubmwjBSUlJw+vRpfvZWVTxmxbW9YWFhmDhxIs6dO4fZs2ejRo0awrsv8DG/e/cOBgYGmDlzJipUqAAAsLa2Rnh4ONLT01G+fHkkJSVh06ZN2LdvH7p27YrY2Fhs3boVMpkMV69e5belpaWFuXPnonr16tDS0sLMmTPx448/wtbWFrGxscjIyIBIJMLLly9hZWWFXbt2Yd++fejSpYtKj4m/CyOkFLl69SoTi8XMzs5OGCq0+Ph45urqyvbs2cPkcjk7c+YM69SpEzt69Kiw62clJCSwadOmsb59+7KUlBSWnp7Orl+/znr16sXEYjFzdHRkYrGYicVi5uXlxSQSiXATpUrz5s2ZWCxmHz58EIYIIYWUlJTE2rdvzwYNGsSys7P59pycHLZ69Wp+HyIWi1mbNm1YbGwsY3n7n6FDhyrFLS0t2dKlS/ntyOVyxnEcY4yxqKgoduPGDZaTk8NycnLYmjVr2IkTJ5hcLmeMMcZxHN8/KCiIPXv2jDHGWGxsLJs6dSqLiIjg/7b09HQ2YsQIZmVlxfr168dsbGzY0KFDmVQqZSzvMXl4eLA7d+6whw8fMicnJ2ZpackuXLjA5HI5O3bsGDtw4AD7888/Wc+ePVlmZia/bYUnT54wBwcHZmVlxebOnctCQkJYYmIiy8nJEXZljDG2e/duZmVlxfz9/YWhT5o4cSLz9vbm/+6y/j//XhEREaxXr17MxsaG9ezZk23evJnZ2tqys2fPCruSz8jJyWFTp05ljRs3ZlFRUcIw7+nTp6xNmzasTZs27ObNm0wul7Pdu3ezli1bssTERBYREcEaNmzI7O3t2bp169jp06eZn58fGzlyJBOLxezq1avszJkzzMrKiv3xxx8sNDSURUZGsj179jA3Nze2cOFCJpVKmbe3t9L7ROHAgQNMLBazzp07swMHDrDTp0+zAwcOsFatWrFWrVqxpKQkpf75ZWZmMg8PD9atWzeWkpIiDDPGGJNKpWzo0KFsz549fNv3PuYrV66wjRs3MgsLCzZr1iwWGRnJnj9/ztavX886derEdu/e/dnH/PTpU7Zz507+Pczy3nu9e/dmoaGhLCcnh82aNYvfP/Tq1Yu9ffuWb/fw8GCZmZls7ty5bOrUqf+PvTuPqzH9/wf+qk57ChlLCEWpkZ0hDNll7EtjSBi7sYydmbGPmY9tLI01Btm3yZbd2CNLCCGytkpRnaOj07l+f/w699e5iaRQXs/H4zzU9b7u+z7dOZzXua77ukVaWpo4deqU+Pfff6V9xsfHi06dOomrV6+Kx48fi4YNG4oGDRqIffv2iaioKHHo0CExZMgQ0alTp7ee44+BoZLylNOnTwt7e3vx9ddfy0vZpguVhw4dkpey7enTp6JJkyZ6bzZ69eol1q1bJyIiInLlP/CPrVGjRsLe3v61f2SJKPtWr14typYtqxeGtFqtWLJkiXBwcBArV64UGo1GnDt3TtSuXVvcuHFDKJVK0a1bN2Fvby+mTJkilEqlUCqVYtOmTcLV1VWMGzdOpKWliatXr4ouXbqI2NhY0a9fP+Hs7CyuXLkilixZIuzt7UXdunVFdHS0EEKIxYsXi+nTp4uIiAhRrVo10bVrVxEVFSUdZ9SoUUKr1QqtVitmz54tKlWqJEJCQoQQQmzZskXUr19fPHnyRIhX/o3dvHmzaNOmjahfv76oUaPGa2/SFi9eLJo0aSKePn0qtenoQmWdOnWkN4+ZefLkifDw8HgtmL9LSkqK9G8zz/n7iY2NFW3atBHh4eFCyH5fo0ePFuPGjZN+jpz8v/ZLcO7cOeHk5CT8/f3lpSxRKpXS6+X27dvCx8dHlC1bVnpvUqlSJTF//nyRlpYmtFqtOH36tPDw8NCrjxw5Uty+fVuIjN+17oOVV2k0GrF7927pvYHu0ahRI3H8+HF5dz07duzI0odAaWlp0oc0b/M+P7NGoxEBAQGiWrVqUr1WrVpi+vTp0s+Z2c+cVSkpKTn2XikqKkoKxfYZH2R5eXmJwMDALJ2b3MRQSXlKcHCwsLe3F5UrV5aXsu1dofJ9Pj3W+VifBH9KzZo1E/b29kKlUslLRJQN9+7dEzVr1hSDBg3SG4HTfUg1atSoN47M6T7lHzBgwGv1//77T7i4uIiLFy+Kq1evihYtWojly5eLMmXKCGdnZ7Fw4ULh4OAgWrZsKZydnUVwcLAQGWFjyJAhYtSoUcI+4xP20aNHC2dnZ9G4cWPx3XffiWfPnolbt26JqlWrCicnJzF48GAxYsQI4ezsLKZMmSK9qYuKihK1a9cWlStXFt99952IiooS69at0wtBumPWqVNHxMbGSm2vun37tmjTpo2wt7cX7dq1E5cuXXotXOoCl6Ojozh37pxe7X3wnL+f2NhY8e2334qTJ08KIYSYNGmS+O6776SRkxcvXghvb29hb28vZs2aJduaMqMbnWvXrp1ISkqSl3NVVgPch0pISBAtWrQQP/3002uvpY/t5cuXr/2b8rnSaDSf/HzJ8ZpKylNy45rK2NhYKJVK6dqlw4cPo1evXtK1McuXL8fvv/+Ohw8fYsCAAZg8eTKio6MxatQobN68GYsXL4YQAkqlEj169MCpU6dgYGCA9u3bw8vLCyVLlsSzZ88+6rU2HwOvqSTKOeItC3FoNBoolUrY29u/9d8+CwuL1xbw0F0fqHu9Pnz4EL///js6duwIQ0NDzJ07Fz/99BOWLVsGGxsbPH/+XNp2z549OHr0KNq2bYvz58/jwIED8PPzw5gxYxAfHw+1Wo0bN27A2toafn5+MDAwwL179zBp0iSMGzdOWmhDt0CLVqvF9OnTUaJECTg5OcHAwEBvQRj57QfOnj0LLy8vJCcnAxnXKu3cuRP79++HlZUVOnTogA4dOuit5qi7x13Hjh1RvXr1V/b2bqtXr5YWxeA5///nPKsUCgWMjY0RGhoKpVKJmzdvokWLFtLCJvv27cPp06dhZ2eHCxcu5LuF63KLkZER6tevj8mTJ0vX7H0sCoXirX/3c4qJiQnatm2LMWPGvPZa+tiMjY1fWyDoc2VkZPTJz5ccQyXlKbr/pHP6RW9paQkbGxvp+8ePH+v9pxcTE4O///4bT58+hVarxbx583Dp0iWUL18et27dQlJSEpCxZPqbVo5VKpXvvEg9r2GoJMo5b1uIw9raGi4uLpg7dy569eqFgIAABAYGIjAwULrXmZOTEw4dOoQjR44gLi4O9+7dw9SpUzF69GgMGzZM2qdWq0Xjxo3RrVs3aLVauLu7o2/fvrC1tUXZsmURHh4uHVcIgZEjR8LV1RVCCAwePBj16tVDyZIlgYwP5AwNDRETEwNTU1P4+voiICDgtdugPH/+HKmpqRg8eDCqVq0KAChWrBjS0tKke8Hp2lQqlbRy4rZt22Bubg4TExNoNBps2bIFDx8+hIuLC9atW4dDhw7BzMwM7dq1w/Xr16HRaODn5wcA6Nu373u94VIqldi3bx/i4uKg1Wp5zt9zhXVTU1PY2toiPDwcBgYGMDIywvHjx3Hz5k38/fffGDlyJLp06YJp06YhNDRUWhWT3k6hUKBnz56oVq2avJRvWFpaYvDgwbC3t5eXKI9hqKQ8JTdGKpHxyXJsbCyQsSx2XFyc3uqvWfn0WKFQwNzcHCEhIXpBK6c+Cf7c6H4XWq1WXiKi96DRaODv748CBQrAx8fntQ/NzMzMsHDhQgwcOBCXLl3C8OHDMWjQIAwaNAg7duyAVqvF4MGD4erqij59+qBWrVpo1KgRQkJCsGHDBgwYMAAGBgYwNzdHsWLF8PPPP6NixYoYMWIE5s6diwIFCsDS0hJt2rSRbk5vbW2NOnXqoEOHDmjUqBGmTp2Kvn37wsDAABUqVICLiwtiY2Ph4eGBGjVqoHfv3ti8eTOio6Nx6tQpTJw4EZ6enrh58yaqVKmC0aNH4/vvv5d+ptKlS6Nly5YICwvTa9NqtdIo4/bt2/Hjjz/C1NQUycnJWLVqFRo3bozJkycjMDAQ4eHhcHR0RHJyMs6fP4+wsDDs2rUr03vcvY2lpSXc3Nzg7u4OW1tbnnNTUwgh9G7ZkpSUhLi4OJw9exaBgYHw9fVF9+7dcfHiRVhYWMDJyQkODg6wsLBAmzZtEBwcjBYtWmDWrFkYOXIkZsyYAXd3d1SvXl26mTsR5SPy+bBEn7OIiAhhb28vvvnmG3kp227cuCFcXFykFemuXr0qnJ2dpWssFy9eLOzt7YW/v7/09ZIlS4RWqxVXr14VderUEVevXhUiY/VA3WpeOocOHRKVK1cW4eHhIi0tTYwaNeq1xRLyIt2iC8+ePZOXiOg9fOhCHJ9acnKymDRpkt5CGN99951Yv379ey2Uo9VqxcKFC0WdOnXEhAkTXrtePSoqSowdO1Y4ODhIx3FwcBC//PKLSEhIEIMGDRJNmzbN9gqIaRmrsuYFuX3O02SrVr7tsXPnTmlfumvwtFqtSEhIELGxsa+tJ5CWlsZVw4nyIQPBuWuUh0RGRsLd3R2lSpXC6dOn5eVsSUxMRLdu3fDNN99g6tSpiI+PR9++fTF16lRUqVIF69evx65du7Bq1So8fPgQ586dQ48ePaBQKKTpRT/88AOaNm2KNWvW4OLFi1iwYIE02nDr1i107txZ+j45ORlr165FgwYNZM8kb/Hx8cGxY8dw5coV3nOMKJvUajWGDh2KuLg4abQyrxJCQKPRSLMYPqazZ8+ie/fu+Ouvv9C2bVt5Od/KrXOu0Wjw119/QaPRwMPDAw4ODjAyMkLBggWlmUKPHz/GoUOH4OXl9d73tSSi/IehkvKU2NhY1K5dG6VLl8apU6fk5WyLi4vDy5cvUapUKSDjptKGhoavTUN7FyEEtFqt3vRcIQR8fX2xYcMGeHh4oG/fvnBwcNDbLi/q27cvDh06hAsXLuCrr76Sl4koCzQaDTZs2AA3N7d8fd1Ubrtz5w6OHj2Knj176l1bSEREHwdDJeUpCQkJqFatGsqWLYvjx4/Ly/QRDRw4EPv27UNwcDCKFSsmLxMRERHRF4IL9VCeopviY2jIv7qfmm51QC7UQ0RERPRl4ztzylNy65Yi9P54SxEiIiIiAkMl5TUcqfx86O4Bx1BJRERE9GXjO3PKU3QL4HCk8tPTTX9lqCQiIiL6sjFUUp5jYmLCUPkZ4EglEREREYGhkvIiY2NjTn/9DOimInOhHiIiIqIvG9+ZU56jm3ZJnxZXfyUiIiIiMFRSXqRQKDj99TPA6a9EREREBAAGgu8IKY+pW7cuChUqhMDAQHmJPqK///4bs2bNwuHDh1GhQgV5mYiIKN95+PAhwsPDcevWLTx58gSJiYl49uwZXrx4odfv5cuXSEtLg0ajQVpamvR49XuNRoPU1FS97T6EhYUFFAoFjI2NYWxs/MavdX/mhqdPnyIuLg7Pnz+Hvb09SpYsiZo1a+Kbb75BgwYN5N0pn2GopDynYcOGsLKywt69e+Ul+ohWrFiBGTNm4MCBA6hYsaK8TERElG9s374df/31Fx49eiQvURYUL14c/fv3x48//igvUT7BUEl5TrNmzWBqaoo9e/bIS/QRrV69GpMnT2aoJCKifOvSpUsYPXo07t69CwAoUaIEWrVqhSZNmqB+/fry7jkmNTX1tRHOly9fvnHkMycYGBjAxMQECoUCCoVC+vrVkU5dm6mpqXzz11y8eBFHjhxBYGAg7t27J7V3794dM2fO1OtL+QNDJeU5rVu3hoGBQY6HSo1Gg4sXL8Lc3Byurq7SNYO5ITU1FQcOHEBQUBDq1q2LFi1awMzMTN7ts6YLlfv374eLi4u8TERElKctWrQIc+bMAQBUrVoVY8aMydUgmV8dOHAA8+fPx40bNwAAPj4+mDZtmrwb5XFcqIfyJKVSKW/6IJGRkWjVqhW6du2KNm3aoEqVKjh27Jhen9TUVPzvf/+Do6MjypQpg8aNG+POnTt6fdLT07Fz5058/fXXKFOmDH777TckJSUhOjpa6hMdHY0uXbpg4sSJiIyMxIgRI6T/tPKS2NhYAECBAgXkJSIiojzt8OHD0v/Nnp6e2LJlCwNlNrVo0QL79u1D586dAQBr1qzBhg0b5N0oj2OopDwnPT0dycnJ8uYPsnz5cqSkpCAgIADHjh1Do0aNMHToUFy+fBkAkJycjAEDBiAgIAB//PEHjh07Bk9PT4wePVp6LkIIrFixAsOGDYOjoyNmzZqFIkWKYPfu3WjdujUiIiKg0Wgwffp0JCcn4+DBg/D390ffvn1x48YNqFQq2bP6vOmCsrW1tbxERESUZyUnJ2P06NFAxgjlkiVLsjTlk95u7ty56NWrFwBgwoQJePr0qbwL5WEMlZTnpKen5+hIpVKpxPXr19GxY0dUq1YN5cqVw59//omKFSti/vz5UKvV8PPzw9WrV7Fq1Sp07doVpUuXxp07dxAaGoqbN28CAEJCQjBnzhzUq1cP69evh5eXF4YPH46oqChYWlrC2toaQUFB2LdvH5KSkjB37lwMHDgQq1atgqenJywsLORP7bMWGxsLAwMDhkoiIspXNm3ahMTERCBjpXPKOVOnTkWdOnWAjAX/KP9gqKQ8Jz09HSqVClqtVl7KFqVSicjISISEhEijjgUKFEC9evXw+PFjPHnyBGfPnsWPP/4oXTt46NAhHDp0COnp6dI02YsXL0Kj0aBfv37SlNDo6GgcOXIE33zzDWxtbXH27Fm4u7tjzpw5iI+PR1JSEnx9fdGtW7dXnlHeEBMTAxsbG3kzERFRniWEwMqVKwEAbdq0QalSpeRd6APNmzcPhoaGWLt2LZ4/fy4vUx7FhXooz/Hw8EBERASuXbuWI9fzhYWF4YcffkBqaiq++uorTJw4EcWKFZOmsS5cuBCjR49GWFgYRowYgeDgYGzevBljx45FVFQUzpw5gy1btiAhIQFeXl5ISkpC8+bNodFocPToUWg0Gvj5+aFZs2b466+/sGHDBmzduhVly5aVP5U8pWLFiihWrBiOHz8uLxHRZyI1NRXp6enQarVIT0+XvtZ9L2/PrC09PR1CCBgYGMDQ0FB6vO/3b2p72/ecckgf240bN9CqVSsAgL+/P7799lt5F8oBP//8M3bs2IH58+ejQ4cO8jLlQQyVlOd06tQJFy5cwJ49e+Dm5iYvv7fQ0FD0798f//vf/7Bp0ybp/pe1a9fGX3/9hVKlSuHq1avw8fFBQkICzMzMMHHiRPTo0QM3b95Et27dMHfuXDRr1gwRERGYPn06bt68CTMzMxgZGeHZs2fYsWMH7O3tERkZie7du0Or1WLixImoUqUKrl+/joCAAMTExGDZsmWwtbWVP8XPjlKphKurKzw8PLB69Wp5mYhyQVhYGMLCwhAZGYmnT58iLCwMSqUSL168eO2RX9nY2MDKygoFChSAtbU1LCwsULhwYdja2sLe3h716tWDo6OjfDOiLNuyZQvGjBkDS0tLhIaGwsjISN6FcsDJkyfRo0cP/Pjjj5g0aZK8THkQQyXlOb/++iv8/f0xZcoU9O7dW15+b7pQuXz5cri5uSEtLQ0KhQIGBgZ6/dLT05GSkgJra+vXaplZsmQJTp48CT8/P+mayejoaEyfPl0Kr4aGhvjmm2/g4+OD5s2b54n/wEJCQtC+fXuMHj0aQ4cOlZeJKIeEhYUhICAAgYGBePjwodRua2uLsmXLwtjYWK//l+b58+dISEiQVqMGgKJFi8LT0xPe3t4oX768Xn+id5k8eTJWr16Ndu3aYeHChfIy5ZDU1FS4uLigZs2a2Lp1q7xMeRBDJeU569evx8SJE9GmTRv4+vrKy+9NHipz0tixY2Fubo6pU6fKS9J0sty8H2ZuWb58OX7//Xds3rxZuuCeiHJOSEgIFi5ciKNHjwIZI3QdO3ZE69at4ezszAWy3uDatWs4duwY9u3bh2vXrgEAGjVqhP/9738oXry4vDvRG/Xv3x8HDhzArFmz4OXlJS9TDnJ3dwcAnDlzRl6iPIgL9VCeo1ss5+LFi/JSthQrVgwWFhZITU2Vl97bhQsXcOTIEQghoFKp8Pjx40wv8jcyMsqTgRIZP6ehoSGqVasmLxHRB1CpVBg9ejTat2+Po0ePokqVKli8eDGuXr2KKVOmoFatWgyUmahUqRJ++ukn7N27F2vXrkWJEiVw7NgxNG/eXArnRO+iu71XTn/ITK/76quvcuS9F30eGCopz6lYsSIAICoqCqGhofLyezM1NYWFhQVu374tL70XpVKJ2bNno2/fvti2bRtu3bqFa9euSSE4PwkODsbXX3/NRTSIclBkZCRatWqFrVu3wsrKCqtXr8auXbvQunVreVd6h4YNG2LXrl2oWLEinj9/jt69e0srdRO9TWpqKkxNTeHq6iovUQ776quvoFar5c2URzFUUp5jYWGBMmXKAADWrFkjL783a2trODs7Y+vWrdItRbLD0tISP//8M0qXLi2NNNSsWRM1a9aUd83Tbty4gcTERNSqVUteIqJsSk1NxY8//oj79++jaNGi2LFjBzw8POTd6D0ULVoUGzdulKa+Dhw4ECEhIfJuRHpevHjBa3E/ksKFCyMlJUXeTHkUQyXlSZ6engCArVu3Sjcozi4DAwP06NEDCoXig/9xq1OnDgIDA+Hj44OvvvoKI0aMgJmZmbxbnrZkyRIAQJMmTeQlIsqmMWPGICwsDObm5li7di2cnZ3lXSgbChcujH/++QfICAsjR46UdyHSo1KpYGJiIm+mXMBlXfIXhkrKk/r16yeterhp0yZ5+b1VrVoV27ZtQ4kSJeSl92ZlZYVp06bhwoULqFy5srycp927dw979uxBwYIFuUAPUQ4JCQnBrl27gIzVrfPjlPlPydXVFd7e3gCAiIgIHDlyRN6FSJKSkgJDQ749/hjS09PlTZSH8VVDeZKtrS2+//57AMDff/+NqKgoeRfKBYsXL4ZWq4WPj0+eXWSI6HOju72Qra3te602qVaroVQq5c1ZolKpsG/fPiQkJMhL+dKwYcOkDyIDAwPlZSKJSqXKE7f2yg+yens2yhsYKinPGjhwIAwNDZGcnIzevXvn6xt+fw6OHTuGbdu2QaFQoGfPnvIyEWXThQsXAAAdO3bM8n0n1Wo1hg4dikqVKmHkyJE4derUewXM06dPY+DAgdi+fbu8lCOUSmWWRiHS09MRERGRpb4fomjRomjWrBmQcRsposwwVH48ug+nOQ02f2CopDyrVKlSGD16NADg5s2bGDFihLwL5ZDLly+jf//+0Gq1aN26NYoUKSLvQkTZ9PDhQwBA7dq15aVMmZiYoFatWtBqtdi+fTu6d+8OV1dXeHh4YOvWrdJtEd5ECIETJ04AAMqVKycvAwA0Gg1iYmJw4sQJBAYGYt68eRg/fjzGjx+PkSNHYtiwYQgLC5P6p6amYtmyZXB2dkaZMmVQpUoVnDx5Um+fAQEBmDlzJjQajdQWFBSEJk2avNY3N+gWPgoPD9d7DkSv0mq1vKbyI9F9iMYRy/yBoZLytCFDhqBVq1YAgP3792Py5MnyLvSBIiIi0LNnT6jValhaWmLcuHHyLkT0AXSzLN4nVBoYGKBdu3aws7ND/fr1ceDAAcycORNmZmYYPXo03NzcsH379jeOADx48AD79+/Xa9NoNDhx4gRGjRqF6tWrw9HREd988w28vb0xaNAgLFiwADt37sTx48cRFBSE8+fPS9NINRoNpkyZgj///BNeXl4YPHgw0tPTsXbtWr170IWEhODo0aNISkqS2lJTU2FiYoJChQpJbblFd361Wi2ePn0qLxPh2bNnwCsjaJS7dOH9fWZZ0OeLoZLyvL/++gtOTk4AgNWrV8PLy4tvGHLIoUOH0KFDBzx//hwAMG/ePJQsWVLejYg+gKWlJQoVKoSCBQvKS1ni6emJihUronv37ti3bx/CwsIwcuRIjB07Fn5+fnp9NRoNVqxYgSdPnsDS0hLFihVDcnIyOnfuDG9vb+zYsQNOTk6YPn065s+fDwcHB7Rr1w73799HWFgYgoKCpMeoUaMAAP/88w+2bt2KxYsXY9q0aRg7dix69OiBM2fOIDw8XDp28eLFoVQqXxslLFy4cI4skvYuZcuWlUZGzM3N5WUiaYQ/q9PQc5tGo0FUVBQOHz6MmzdvysuvUSqVeeq+j7pp769++ER5F0Ml5Xnm5uZYuXIlrKysAABnz55Fq1atcPnyZXlXyiK1Wo0JEyagb9++0ie3Xl5eaNmypbwrEX2gAgUKZCtQRkdHIz09HZUqVZLalEolYmNjYW5uDmNjY5w+fVrvTWZQUBC2b9+OUaNGwcbGBshYsbpTp074+eefcf36dWzatAk9e/ZE8+bNUbRoUbi4uGQ6PS0+Ph4bN27EoEGDpH8fDAwM8O233yI1NVXvA7709HTY29vD0tJSagsPD0fJkiX12nKT7lxZW1vLS0TSrIFPHSrj4uIwY8YMfP3116hbty5+/PFHDBw4UHo9CSGQlpYGjUaDkJAQjB49Gi4uLnB1dYWTkxN8fHwyHf1Tq9WIjIzE4cOHsWvXLsycOVOa2j5s2DBMmDAB0dHR8s1yVV4KwpQ5hkrKF+zt7bFu3ToUK1YMABAbG4t27dph2LBhep+U09slJydj0aJFqFevHjZs2CC1N27cGFOnTtXrS0Q5w8zMLFuh6t69e4iNjUXbtm3h5uaGcuXKwdXVFY0aNcLUqVPh7u6OGTNmwNTUFAAQGRmJ3377De3bt0e9evWk/RgYGMDb2xsjRoyAhYXFK0d4t5CQECQmJqJ9+/Z6wdPDwwMBAQF6U3ojIiJQrFgx6RhCCISFhcHOzu69j5td9vb28iYiycuXL4FXpmV+bCkpKZg0aRJq166NI0eOYMCAAfDy8kLnzp0xZ84c2NraAgD8/PxQvnx5ODo6on379nj06BEmTJiAJUuWYPr06Xj27JkUkFUqFfbu3YuBAwfCxcUFTk5OcHd3x48//oihQ4di2bJlCAwMxPHjx3H+/HkcO3YMQUFBsmeWO3S3buFCi/kDQyXlG9WqVcPBgwdRv359qW3nzp1o2rQpevbsibNnz+r1p/8TGRmJKVOmoHbt2pgzZw6ePHkCZPyDP3LkSPzzzz+cLkaUS1JTU9+6sE5mQkJCAABlypRBy5Yt8eeff+LgwYO4fPky7t+/j1WrVqFUqVJAxgdGY8aMgZ2dHX755ZccG4m5c+cOypQpI32gp6NQKFC1alUpLKampiI+Ph63b9/GjBkzMH78eAwePBh79+6Fm5tbpiOhOS0+Pl7eRCRJS0sDgE+y+uudO3fQtm1b7N69G/7+/jh69ChGjhyJWbNmYe7cuahZs6bUV/e68vb2xuXLl7F582b07NkTnp6e6NmzJ3bu3IkiRYrg0aNH8PDwwODBg3Ho0CE0bNgQs2bNwp9//glra2uMGTMGDx48wNWrV/Wmtnfs2PGVZ5b7Xr3OmvIuhkrKVwoWLIh169Zh1KhRejcvPn78OLy8vFC3bl2MHTsWu3btQmJiot62XxKlUon//vsPM2bMgKenJ+rVq4d//vlH741tgQIF4O/vj+HDh+ttS0Q5S6lUZjpVLTMajUaakXH8+HHMnj0bXl5ecHZ2RqFChfRCmhAC69evx8WLF9G/f3+kpKQgODgYMTEx+Ouvv/RWcX2TmJgYeZOkRIkSuHv37jvvFbxnzx4cP34cYWFh8PPzw8aNGxEYGAiNRpPpCrS5IT4+Xhq5JZLTXeOXUx+6ZNWNGzfg7e0NANi6dSsaNGjw1g9aKleuDDs7O3h5eektcqVWqxEXF4e4uDio1WqUKFECXl5emDFjBm7duoWlS5fCy8sLTZo0gZWVFSpWrKi330/lff/9o8+TgXjT0nBE+UBERASWLVuGTZs2yUsSV1dXfP3113BycoKzszMqVKgAOzs7eTcgYwpJcnIykpKSkJycjBcvXiAhIQHJyclITk6GSqXCy5cvpescNBqN9HVaWpre17o/DQ0NYWJiAoVCAYVCAWNjYxgbG0tfKxQKqW5qagozMzNYW1vD2toaNjY2KFCgAGxsbGBtbZ3pbT5SUlJw48YNXL9+HeHh4bhx44Y0wvEmJUuWRO/eveHl5cXrjog+gmrVqkGtVuPGjRvyUqaUSiX69OmDkiVLYt68efKynn379mHw4MHQarVSm4GBAYQQ6Nu3L37++WfpmvRXZeUYT58+xffffw8zMzMsWbJEGhmVu3LlCrp27YpGjRph4sSJKFWqFG7cuIEuXbrA19cXTZs2lW+SKxo0aID4+Ph3Bmn6Ml24cAGdOnVC7969MWXKFHk5V+heZ7GxsVi/fj1Kliwp3Yf29OnTaNGiBQoUKIDChQvDx8cHBQsWRGhoKPr27Yv+/fujRIkSuHLlCnbv3o3IyEhpvy4uLti4ceMbV1aOi4tDu3btMH369I/22nuTGTNmYMWKFViyZAk8PT3lZcpjGCop34uPj8eGDRtw6tQpnDt3Tl5+jaWlJZycnKBWq6XAqFus5nP3aui0trZGdHR0li64d3FxgZubG5o1a4bmzZvLy0SUi6pUqYKUlBTcvXtXXspUQkICunbtivLly8PX1/eNt0AQQiAwMBAjRoxAlSpV0LRpU3h4eKBs2bJISEhA+/btMWzYMHTv3l2+KfDKm91ChQplegwAePz4MYYOHYrLly/D09MTzZo1Q0xMDO7fv4/y5cujV69eCAsLQ5cuXTB8+HAMGjQIABAaGvrRQ2Xt2rXx4sULhIaGyktEOHv2LLy8vNCvXz/8+uuv8nKuOHToEPr3748lS5ZIi13pQuWBAwf0+o4fPx6DBg3C4cOH8eOPP0rttra26NKlC1q1agUHBwcgIziWK1fujVN5P5dQOW3aNKxcuRJz5sxBly5d5GXKYxgq6Ytz9uxZnD9/Ho8ePUJsbCyioqIQHR2N5ORkIOMf5zJlysDMzAwKhQJGRkZv/TOztvT0dKSnp0Oj0UCr1UKj0byx7V01tVoNtVqNly9fSn/qvn7TdVgWFhawtbVF0aJFpSk8ZmZmsLCw0HvY2tqiSpUqqFKlCszMzOS7IaKPpHLlynj+/Dlu3bqV5ddicnIyvL29UbRoUSxatOiNUzoPHTqEgQMHonfv3hg/frxeKAwLC0OnTp3w3XffYdasWXrb6ahUKvTt2xcvXryAv7//G0czdTQaDQ4ePIglS5bg6tWrAAAHBwf06dMH3bp1w8OHD9GjRw/MmzcPderUAT7RG9tatWpBq9Xi4sWL8hIRTp48iR49emDIkCEYO3asvJwrlixZghUrVmD79u2vTQVPT0/Hs2fPcPbsWQwdOhQTJkxAv379EBAQgPHjx6NNmzbo0KEDvvnmmzeGx8zoXns//fRTph8qfQy6UDl9+nT07NlTXqY8hqGSiIjoE9KFykuXLkmrO2ZFVFQUrK2tMw17O3fuhI2NDRo2bPja9VkajQYzZsxA2bJl0atXL73aq27evIkCBQrkyv1pdaMxXbt2/Wih0t3dHUKIj7a6JeUtx44dg4+PD4YOHYrRo0fLy7li165dGDZsGMaPH48BAwbovVY1Gg327NmDX375BWq1Glu2bEH16tXh6+uLkydPYtWqVXorRyclJeHly5coWLBgpjML8Eqo7NmzpzRz4FPQhcqJEydiwIAB8jLlMVyoh4iI6BPSvfl732X17ezsMg2UANCuXTs0atTotUCJjGNOmTLlrYESACpWrJgrgRIATE1NMXXqVFSvXl1eyjUmJiYffREWyjs0Gg2Qcc3xx+Lh4QF3d3f88ccf0nTwmTNn4ocffoCzszNGjBiBlJQUuLu7w9XVFchYMyI4OBiNGzeGo6MjypQpgzJlysDNzQ01atSAo6MjBg4cKK1mm5mUlBR50yfxvv/20eeJoZKIiOgz8CWugFiiRAkULlxY3pxrzM3N9VYGJ3qVLkx+zFBZoEAB+Pn5YdCgQYiIiMDs2bPx77//IiEhAePHj8eBAwdgZ2eHFi1aSNPjCxcuDK1Wi5iYGJiYmKB58+aYPn06li9fjmPHjuH8+fNYsGBBph+gGBoaQqFQ4NGjR1KQ/pTeFX4pb+C/rERERJ+Q7o3fm66RppxlbW3NUEmZetuU0dxkYWGB8ePH49KlS3jw4AHOnz+P/fv3o1+/fihVqhT69OmDZs2aSf1//fVX3L17F9euXUNYWBhWrFiBnj17okWLFihXrhyKFi36xuusdWxtbbFo0SJMmTLlk/3MyFhMDIDeytSUd/FfViIiok/IxMQE+EJHKj82jUaDhIQEeTMR8Mpr8WOOVL6LpaUl+vXrh6JFi+q1KxQKFChQQK8tqwwMDFC1atWPOkvgTRgq8xeGSiIiok9IN6LA64pyn1arRWJioryZCHhl1gBDzsfBUJm/MFQSERF9Qnwj+/Gkp6cDnGpMmdBNBX358qW8RLlIN0JMeRtDJRER0SekG6nkG6vcpwuVuvsSE71K9xrkwjEfh26k0sLCQl6iPIihkoiI6BPSvZF9n1B58+ZNXL169bNYuTEvYaikt9Hdooeh8uPQhcq33RqJ8g6GSiIiok9IFybftlqj3KFDh9CmTRtUqFABvXr1wsWLF6XA9L6USiXUarW8GQDw4MEDbNmy5b3C69v2l1OyewzdFGOGSnqTIkWKALy++aPRvR45Upk/MFQSERF9QtkZqRw8eDA2btyIKlWq4L///kPHjh3RrFkzHDx4MNNwKYRAWloaNBoNQkJCMHr0aLi4uMDV1RVOTk7w8fF5bQVaf39/BAQEvPEas+zsT0etViMyMhKHDx/Grl27MHPmTIwfPx7jx4/HsGHDMGHCBERHR3/QMd5Ed25SU1PlJSJYWFjA2NgYSUlJ8hLlAt1IZYkSJeQlyoMYKomIiD6h7IxUGhkZwd3dHf/88w9q1qyJSZMmoXTp0ujXrx86dOiAiIgI+Sbw8/ND+fLl4ejoiPbt2+PRo0eYMGEClixZgunTp+PZs2d6IzRCCDx79gzVqlV740jC++xPpVJh7969GDhwIFxcXODk5AR3d3f8+OOPGDp0KJYtW4bAwEAcP34c58+fx7FjxxAUFPRex8gKXajk9EbKTIkSJTiS/ZHoQqWTk5O8RHkQQyUREdEnpFtx8n1GKnXS0tIQFRWFMmXKYM2aNTh8+DAAwNPTE0ePHtXrqwuG3t7euHz5MjZv3oyePXvC09MTPXv2xM6dO6XpfwBw7949nD59GnXr1n1lL/8nq/t79OgRPDw8MHjwYBw6dAgNGzbErFmz8Oeff8La2hpjxozBgwcPcPXqVQQFBUmPjh07ZvkYWaW7/yBDJWWmaNGiiIyMlDdTLtC9DuX34KS8iaGSiIjoE9IFnfcZqcxMhQoVsGPHDgwYMAAjRozA5cuXpVrlypVhZ2cHLy8vFCpUSGpXq9WIi4tDXFyc3nWKV69ehbm5OSpWrCi1vSqr+ytRogS8vLwwY8YM3Lp1C0uXLoWXlxeaNGkCKyurTPeP9zhGVunO8ftcI0pfFjs7Ozx48CDTaeSUc548eQI7Ozt5M+VRDJVERESf0IeEyqdPn+L58+d6bQqFAkOHDoWnpydGjhyJ6OhoqabVahEcHIzAwED88ccfcHd3h5OTE2rVqoVatWqhXbt2SExMhEajwZEjR9CgQYO3jgRmZX/JyckYOXIkvL29pVHZ95GVYyQmJso3e6PsjAbTl0V3fd+bppBTzoqPj4etra28mfIohkoiIqJPSHddUXZCpUajgVarfW3kTaFQYMiQIVAqlQgICAAAxMbGIiYmBtOmTcOgQYOwdetWtGnTBjt37kRoaChCQ0Ph6+sLa2tr3L17F8HBwfjuu+/09vuq99lfduX0MbKzKBJ9WSpXrgwACA0NlZcoh925c4ehMh9hqCQiIvqEdNPssnOvNhsbG1hZWb3xDbCVlRVsbW0RHh4OAEhJSYG5uTm6du2KjRs34vz585gwYQKqVq0Ka2trWFtbo3z58jAyMkJgYCCKFi361gU03md/bxMbGytvkuTUMXR0wT07AZ6+DN988w0AIDg4WF6iHHTv3j2kpqbC2dlZXqI8iqGSiIjoE9JoNDA0zN5/x4UKFUKpUqUQEhIClUoltT969AhjxoxBWFgYWrVqBQB4/PgxqlSpgilTpsDd3V0KYklJSYiPj5dGO5VKJc6ePYsKFSrAxsZG2qdcVvf3Lm+7fUNOHUPH2NgYeGVxJCK5r776Ck5OTjh37py8RDlI90FYnTp15CXKo7L3vxgRERHliJcvX6JAgQLy5iwpUKAA+vTpA61Wix07dmDMmDFwd3dH/fr1ERQUhIULF6Jp06ZAxjViwcHBaNy4MRwdHVGmTBmUKVMGbm5uqFGjBhwdHTFw4EBpRcbAwEAsWLAAgYGBCAwMxNq1a/Hrr7/i2LFjEEK89/4yk5KSIm+S5NQxdHTTXrMzKkxfjvr16yMiIgIrVqyQlyiHHDhwAHhlZJjyPgOhu5iDiIiIPjovLy88evQIZ86ckZcyNWPGjDe+4bWxsYG7uzs6d+6MRo0a6Y3IvbqNhYUF6tevjwYNGqBYsWJwcnKCpaUlbGxsYGpqiv3792PIkCGZjgSuWbMGp06dyvL+3iQ+Ph4dOnRAtWrVMG/evDeOHr7Pc86KoUOHYteuXTh79ixvuE6ZunHjBlq1aoXChQsjODhYGuGmnBEfH49vvvkG9erVw9q1a+VlyqMYKomIiD6h9u3b48WLF9In91kRFhaGPXv24Ouvv4aLiwsKFiyIggULSivJZkaj0eDFixdZGhkVQuDZs2dIS0uDkZERbGxskJycjPT0dBQsWBAKheK99icnhMCVK1dgb2+PwoULy8uSDzmG3OjRo7F161Y8ePBAXiLS06lTJ1y4cAEdOnTA/Pnz5WX6AAsWLMC8efOwdu1aNGzYUF6mPIqhkoiI6BP6/vvv8fjxY5w6dUpeohw2duxYbN68maGS3unixYvo2LEjAKBPnz6YPHmyvAtlw7Fjx+Dj44MWLVpg+fLl8jLlYbymkoiI6BNydHTEo0ePoFQq5SXKYbpz/OzZM3mJSE+NGjXg7e0NAFi1ahVGjhwp70Lvafny5fDx8YG9vT3++usveZnyOIZKIiKiT6hChQpAxj3bKHfpQiUDPGXFhAkT0KxZMwDA9u3b0bx5c5w4cULejd5h27ZtaN68OX7//XdYWVlh6dKlsLS0lHejPI7TX4mIiD6h06dP44cffsCUKVPQu3dveZlyUNeuXXHu3DkcOHAAFStWlJeJ3mjDhg1YtGgRoqKiAAAVK1aEi4sLypcvj0KFCqFw4cIoWLAg0tPT9R4vX76UHmq1GmlpaW9se1MtPT0durfohoaGMDIygpGRkd7Xb2rL7Os3LYSFjNvrKBQKGBsbw8TEBMbGxlAoFNLXuoeZmZl809ckJSXh2bNnSEhIQHR0NEJDQ3Ht2jWo1WoAQNWqVbFkyRLY2dnJN6V8gKGSiIjoE1KpVHB1dUWjRo2wevVqeZlyUN26dREVFcXVXylb9uzZg/379+PMmTN4+vSpvEyZcHV1Rb9+/aRrVCl/YqgkIiL6xDp06IBr164hLCws0xEF+jDJycmoVKkSrK2tpRuvE2XX7du38fDhQzx79gzPnj1DSkoKDA0NpdFBhUIhfW1oaAiFQvHa6OGrI4pvquc0jUYDjUaD9PR0vT/f1J6Wlqb3vVarle9OjxAC9+/fR2xsLExMTODm5obq1avjm2++yZGVm+nzx1BJRET0if3111+YP38+FixYgPbt28vLlAN27NiBn3/+Ge7u7ti4caO8TEREH4AL9RAREX1iHTp0ADLu38bPenNHQEAAAKBt27byEhERfSCGyi+QWq2WLpqmrBFCQKlU8s0eEeWKsmXLol69eoiIiMA///wjL9MHevr0KU6dOgU7Ozt07dpVXiYiog/EUJkLNBoN5s2bB39//88yhKxatQoDBgz4KMHy2LFjGD9+PJKTk+WlPOXJkyfw9PTE6dOn5aWPJjk5GVu2bIFKpZKXiCgf8PHxAQBMnToVZ8+elZcpm54/f44ffvgB6enpWLRoUa5cq0ZE9KVjqMwFT548webNm7Fnz57PNgDcunULz58/lzfnKCEEduzYgYCAANy/f19eznNevnz5SRd3uHLlCsaOHct7ZBHlUy1atJDuiefl5cURyxywZcsWNGrUCDdv3sTo0aNRs2ZNeRciIsoBDJW54Pz584iNjYWTkxNMTU3l5fcWERGB/v37Izo6Wl76rD1+/Bjnzp1D2bJlUaRIEXk5182dOzdfLc//4MEDCCFw7949eYmI8okFCxagWrVqAIApU6bg66+/xi+//ILjx4/Lu9IbPH36FLt27cKIESNQsWJFjBkzBgkJCahduzaGDh0q705ERDmEq7/msNTUVPTv3x8AsHz58izdLPZdQkND0aVLF/j6+qJp06Z6NZVKhVOnTqFatWr46quv9GqZWbJkCY4cOYI1a9bA0tJSXs4xa9aswZw5c7Bt2zY4OzvLy7lu5MiRiIyMxKpVq177OSMjI3Hjxg14eHhkafn+uLg4tGvXDpMnT0bLli3l5Q9y48YNPH/+HHXq1IGBgYG8LBk7diw2b96M8ePHY9CgQfIyEeUjEydOxPr16/XaTE1NUaNGDVSsWBGOjo4oW7bsG//90mq10s3XdV+/qU3+eFtfZNyA3cDAQO+2B69+/6bam/q9q5ZVQghERUXh/v37uHfvHm7evInw8HB5NwwYMAATJ06UNxMRUQ5iqMxhx44dw48//oi///47x8LH20LlsWPH4OPjg3r16mHZsmVZuhfQ7NmzceHChTeGrZwSHx+Prl27ombNmpg5c+Yb3/jktreFSl1AmzBhAgYMGPDWMAcADx8+RMeOHfHnn3++9jv4ECqVCn379kVQUBAWL16MVq1aybsAGW+ehg8fjp07d2LlypU5+hyI6PN08+ZNLFiwAMePH4dSqZSX6S3Mzc3Rtm1bDB06FKVLl5aXiYgohzFU5iClUok+ffrA1NQ0R0Yp09PTce/ePRw6dAhz5syBiYkJXr58CY1GA2SMBNavXx/r16+Hv78/Zs6cidq1a8t385qRI0ciISEBy5Yte+/puUlJSUhNTYWlpeVrQe1VS5YsweLFiz/JKGVycjJCQkKwaNEiBAcHw8bGRrp+tF69evDz84NSqcScOXPw+PFj+Pr6olChQvLd6AkNDUX37t2xePFi1K9fX17+IBEREZg+fToKFy6MmTNnvvF3ovu7dfbsWaxZswaNGjWSdyGifOz27dt48OAB4uPjER8fL92QPCkpSXp8rOBpaGgIExMTGBsbS49Xv9d9bWJiIt/0o6hUqZJ0bSoREX0cDJU56N9//8Xo0aOxevVqNGjQQF7O1Ny5c2FhYYHevXtjx44duHr1KpydnaFQKPDrr79K/ezs7ODp6QkPDw+4uLigYMGCmU4VEkLg8uXLCAgIgK2tLXr06IHChQsDGaESAObNmyf1T09Px/Hjx3H06FE4ODiga9eusLKykmp79uzB77//jtjYWOCVcGZhYSHtQ+f+/fvo0qULvvvuO0yaNOmdo4DR0dHw9vZGv3794OXlJS+/UUREBKZOnYqZM2dCpVJh3bp1SE9PR4cOHTBu3Di9KVCNGzdG06ZN4e7ujqJFi741DKekpGDLli2IiIhA06ZN0bBhQxgYGCA0NBT9+/fH8uXL4ebmJvWPi4vDpk2b8PTpU7Rv3x5Vq1Z958+bHbpQef/+fWzbto2fvBMRERHRZ4ML9eSQp0+fYvHixWjYsCFq1aqlV3v27BmGDRuGcuXKoUyZMujatSuePn0q1SMjI3H9+nVMmTIFU6dOxdOnTxEeHg53d3eMHDkSixYtgq2tLSZPnozffvsN9evXh62tbaaBUqPRYP78+Wjfvj1Wr16NuXPnonPnzpku9JOcnIyffvoJ/fr1w/379/G///0PI0eOhFqthkajwaRJkzBs2DDY2tpi/vz5OHPmDJYuXfrGQCmEwJo1a6DRaNCtW7csBaz4+HjExcWhZMmSUpsQAkeOHEHt2rVRpkwZuLi4YMuWLVJdqVTi9u3bOHLkCDp16oTg4GA8fvwYSqUSP/30E2bNmgVvb2/UqlULvr6+6N69O8qVK/fWQHnnzh20atUKU6dOhb+/P3x8fODn5yfvJjl69Ci+/fZb7N69G8HBwejcuTPOnTsn75YtKpUK06ZNg7OzM7799lv8888/UKvV+Oabb1CqVCl5dyIiIiKiT4ahMofs2bMHd+7cQe/evfWmvUZGRqJLly4IDw+Hr68vzpw5A1tbW0yZMkWaxlqiRAns3bsXZ8+exZEjR7BixQrMnDkTjo6OGD58OOrUqQNTU1O9IPqqJUuWYPLkyUBGGPPz84Ovry8mT56MiIgIbN26FUqlEs+ePYNSqURkZKR07aUQAsuWLcOpU6ewfft2rFu3DjNmzEBYWNhr95asUaMGmjVrhpIlS8La2lqvpnP79m1s27YN7du3R4UKFeTlN3J1dcXx48dRt25d4JWfoX///ujUqRN27tyJpUuXYtasWbh06RIAwMbGBhqNBlOmTMGAAQMQGBiI1atX49tvv0X79u3h5eWFkiVL4tmzZ2+8H6dSqUSPHj1w6tQpIOP31LdvXxQsWBCnT5/G3bt30bp1a2nEMzY2FiqVCubm5kDGaOy4cePQvn177Nu3Dxs2bECFChWydcuRuLg4tG3bFnfu3AEynlv//v2xZs0aNG7cGO7u7rh16xauX78OhUKRpaBORERERPSxMFTmgPv378PX1xetWrWSghEyRgz//PNPCCGwdu1atG7dGlZWVnj8+DGCgoIQFRUFALCysoJWq0Xfvn3fOgqVlJQkb5I8ePAAarUaiYmJ2LZtGzp06ICePXvCyMgItWvXxrlz5+Di4iL1L168OAAgPDwc69evx8uXL7FixQr8/PPP+O2339C0aVPY2tpCoVDgt99+w4QJE7Bx40bUqFEDixYtQkpKyitH//80Gg0WLFgAMzMz+Pj4ZDn8GBkZoVChQtLIa0hICObMmYNJkyZh7NixqFq1KhITE/HkyRMcOXIEAGBmZgaFQgFHR0d8//33mR5LqVRK4V0uLS0NDx48ADIWPIqJicG0adNQqlQpKBQKLF68GLNmzZL6W1hYwNraWhqNjYuLw5UrV/Drr7+id+/eiI2NRcOGDV85QtY9f/4cMTExQMbPf+nSJfj7+2PJkiX4888/UbNmTbx8+RLh4eG5fn9RIiIiIqL3wVD5gXQBIzk5GYMGDdJb5TQhIQEXLlzA6NGj8dVXX0EIgY0bNyI0NBRPnjyRRt0qVKgAc3NzVKlS5ZU9/x+FQqE3bVOtVmPAgAHYtWsXAMDa2hq3b99GYmIiNBoNlEol7O3tM50ei4wwiYzbWVhbW8PPzw8GBga4d+8eJk2ahHHjxklBzczMDAMHDkRoaCjGjRuHpUuXokaNGlixYoVeYAsKCsK+ffvQp08flC1bVmp/l+joaHTt2hU7duwAAJw7dw5ubm7o3LkzDAwMEBkZifnz58PAwAAnTpzA8+fPYWlpCXt7e7i5ucHW1la+SyDjvLzq7Nmz8PLyQnJyMhQKBczNzRESEgIhBJKSkmBtbY1ixYrpbfOqxMRExMbGIikpCRcuXMC4cePw/fff49q1a3B0dMSWLVvg5OQk3+ydFAoFjI2NpVHO0NBQuLq6Sn8fdB9alCxZEg8ePMDDhw9leyAiIiIi+nQYKj/QtWvXsHHjRnTr1g2VKlXSqxkbG8PGxgbLli1DQEAA+vXrh9mzZ2PevHlo2LAhduzYgdTUVCAjnGq1Wr3tdUxNTWFrayuNZN24cQNBQUHSwjvFihVDQkICnjx5Amtra7i4uGDu3Lno1asXAgICEBgYiMDAQOzevRsvXryAkZERNBoNhBAwNDRETEwMTE1N4evri4CAAPzwww96U3jDwsKwZ88emJiYoE+fPrh48SLGjRuHuXPnYvLkyVKQ9fX1Rfny5dG1a1dp26y4fv06zp07B5VKBQAoXLgwQkJCsGrVKqxYsQLNmzeHnZ0dFi5ciBs3biAkJETaVvdzvEmxYsWgUqmQlJQEjUaDbdu2wdzcHCYmJjA1NUXhwoXx6NEjqFQqVKpUCU+ePMF3332HRYsWSeds165duHr1qjTtVKvVSvdSu3btGrp37449e/Zg7ty5WZ7uK6f7/eqCvkKhwK1bt3D27FkcO3YM3bp1g6WlJf7++28UKVIEhw8flu+CiIiIiOiTYaj8ABqNBv7+/ihQoMAbp3sWKlQII0aMwNWrVzF8+HBcunQJy5cvR4cOHeDt7Y3Q0FCEh4fDzMwMGo3mtWsYdSwsLODk5IS1a9eidu3a6NixI2rWrImaNWsCAEqXLg0HBwcUKVIEZmZmWLhwIQYOHIhLly5h+PDhGDRoEAYNGoQdO3bA1NQUrq6uuHHjBhITE+Hh4YEaNWqgd+/e2Lx5M6Kjo3Hq1ClMnDgRnp6euHnzJq5evYohQ4agTZs22Lx5M44ePQpLS0sUL14cp0+fxvPnz3Hy5EkEBwdj8ODBmY4cZsbBwQEuLi6oU6cOAMDT0xP169fHnDlzMGPGDDRu3BiLFy9GkyZNULduXezZswdGRkYwNzdHUlISXr58Kd8lkHFetFotOnbsiOrVq2P79u348ccfpVt2VKlSBcWKFYOFhQXq16+PTZs2wd7eHnPmzJHO2ZgxYxAdHQ17e3uYm5vj2rVrKFCgAAYMGIADBw5g4MCBCAsLw71797B+/Xq0b98e06dPhxBCumE4MqYux8XF4ezZswgMDJQWD7p48aL0+3VwcAAAeHh4wNTUFH369IGPjw/KlSuHrVu3olq1aujWrRt27dqV6fW1REREREQfG28p8gGCg4Ph7e2N3377DT169JCXJRqNBi9evJAWx5FLT09HeHg4ypcvrzd99lUREREYPnw4DA0N0adPH7Ro0UJvNFGj0WS6rVxqairu3bsHJycnGBkZISUlBbNnz8batWul0dLKlSujW7du6NixI4yNjbFv3z7MnTsXERER0n4cHBwwdepUuLm5wcfHB0WKFMHixYuzdX9OtVr92v0Zk5OTYW5ununPFRcXh/T0dJQoUUJeAjJGf319fbFhwwZ4eHigb9++UnDT1bVa7VunCb/q8ePHMDExQdGiRSGEQFBQEH799VfcvXsXyJhu27x5c/Tr1w/+/v5Yt26dfBevWbRoEdq2bfvac1EqlVAqlTA2NkbBggWlDyyEEHjx4sUbV94lIiIiIvoUGCqzSa1WY+jQoYiLi5NGK/M6IQQ0Gg2MjY3lpbfavHkzJk2ahI0bN6J69erycr6n0WhgYGAgBUKNRoO//voLGo0GHh4ecHBwgJGRkd59RR8/foxDhw7By8uLAZGIiIiI8jSGymzSaDTYsGED3NzcUK1aNXn5i3Lu3Dk8ePAAHTt2zHRUkYiIiIiI8ieGSiIiIiIiIso2LtRDRERERERE2cZQSURERERERNnGUElERERERETZxlBJRERERERE2cZQSURERERERNnGUElERERERETZxlBJRERERERE2cZQSURERERERNnGUElERERERETZxlBJRERERERE2cZQSURERERERNnGUElERERERETZxlBJRERERERE2cZQSURERERERNlmIIQQ8sb8TqlU4sKFC7hy5QqeP3+OlJQUqFQq6U+1Wo20tDS8fPkSL1++RGpqKl68eIHU1FSo1Wr57j4r5ubmMDIygpGRERQKBQwNDaXv39VmbGwMW1tblCtXDqamprC1tcVXX32FcuXKoUKFCvJDERERERERfTmh8tSpUzh48CAuXLiA69evy8sAADs7O9jZ2UGhUMhLOSY1NRVpaWlvfaSmpso3++RsbGxQvXp11KhRA+7u7qhRo4a8CxERERERfYHydaiMiIjAhg0bsHPnTsTFxenV6tevj/r166NWrVpSmKT/c+vWLTx8+BA3b95ESEgIzp07h5SUFKlepUoVDB06FM2aNdPbjoiIiIiIviz5NlSuX78eEydO1GurW7cu+vfvj8aNG+u1U9aEhYUhKCgIW7ZsQVhYGADAyckJv/32G7799lt5dyIiIiIi+gLku1CZmpqK4cOHY//+/VJbkyZNMGrUKHz99dd6fSn7Tp48iaVLl+LUqVMAgJ49e+LXX3+FqampvCsREREREeVj+S5UDhs2DDt37pS+nz59Onr27KnXh3LOkSNHMGLECCQlJaFs2bJYv349SpUqJe9GRERERET5VL4KlZs2bcK4ceMAAEWKFMHy5cu5oMxHEBsbi0GDBuHixYtwcXHBzp07OWJJRERERPSFyDeh8ubNm2jTpg1evnwJc3Nz7N27F46OjvJulEuUSiWaNWuGyMhItGvXDgsXLpR3ISIiIiKifMhQ3pBXzZgxAy9fvgQAzJ8/n4HyI7O0tMTKlSthYmKCnTt34vz58/IuRERERESUD+WLUPn06VNpwZhGjRqhZcuW8i70Ebi4uMDHxwcAsHLlSnmZiIiIiIjyoXwRKrdv3w7dLN7x48fLy/QR9enTB4aGhjhw4ACio6PlZSIiIiIiymfyRag8duwYAKB58+ZwcXGRl+kjsrOzQ9OmTaHVajlaSURERET0BcgXofLKlStALo9SajQaREVF4fDhw7h586a8/BqlUgm1Wi1v/iK0aNECAHD06FF5iYiIiIiI8pk8v/rrvXv30KhRI7i6umLfvn3y8geLi4vD8uXL4e/vj9TUVABAuXLlsH37dtja2kIIAY1GAwMDA4SGhmL9+vXYu3cvVCoVkHGN5+LFi2FpaSnbM6BWqxEfH4+wsDCoVCpcu3YNSUlJAACVSgVLS0sMGzYMJUqUkG/6Wbtz5w6aNGkCIyMjREREyMtERERERJSP5PlQuXPnTgwbNgw9e/bE9OnT5eVsS0lJwaxZs7B27VqUK1cObdq0QUxMDNLT09GtWzfUrFkTALBixQrMmDFD2q5OnTpo3bo1ihQpgvj4eGzfvh0rV65EkSJFoFKp8N9//2H37t04fvy4FDxfZWNjoxdAx4wZg44dO+r1yQucnZ2RmpqKU6dOoXTp0vIyERERERHlE3k+VC5atAhz5szBggUL0L59e3k5W+7cuYP+/fsjMTERCxcuRP369WFgYCDvBgBYv349Jk6cCG9vb4waNQqFChWSdwEAPHr0CJ07d0ZMTAwUCgWaNWsGDw8PaLVazJw5EwMGDMBPP/0k3yzP8vLywtmzZ+Hv749vv/1WXiYiIiIionwiz19T+fz5cwBA+fLl5aVsuXHjBry9vQEAW7duRYMGDTINlABQuXJl2NnZwcvLSy9QqtVqxMXFIS4uDmq1GiVKlICXlxdmzJiBW7duYenSpfDy8kKTJk1gZWWFihUr6u03r7O3twcyRnyJiIiIiCj/yjehslixYvLSe1MqlZg6dSpMTU3h7++P8uXLQ61Wo3///vj6668xcuRITJ48GQsWLMCzZ8+k7bRaLYKDgxEYGIg//vgD7u7ucHJyQq1atVCrVi20a9cOycnJGDlyJLy9vaFQKPSOmx9ZWVkBAExNTeUlIiIiIiLKR/JFqDQwMECRIkXkpfd25swZBAcHY/z48ShZsqReLSUlBdu3b8fq1asxb948bNy4EQAQGxuLmJgYTJs2DYMGDcLWrVvRpk0b7Ny5E6GhoQgNDYWvry+sra319pff6a4LNTMzk5eIiIiIiCgfyfOhMikpCcWLF3/rFNWsunPnDgoVKgRnZ2epzdTUFMuXL0dERAQuXbqExYsXw8jISBptTElJgbm5Obp27YqNGzfi/PnzmDBhAqpWrQpra2tYW1ujfPnyMDIyeuVIr4uNjZU35Wm6EM1QSURERESUv+X5UKlUKjNdHOd9lSxZEgkJCThw4ADk6xcJIXDy5EmMHTsWhoaGqFGjBgDg8ePHqFKlCqZMmQJ3d3cpPCYlJSE+Ph4ajUZvP5nR3Uokv9CNVJqYmMhLRERERESUj+T5UGloaAilUilvzhYPDw+4u7vjjz/+QJcuXeDr64uZM2fihx9+gLOzM0aMGIGUlBS4u7vD1dUVABAREYHg4GA0btwYjo6OKFOmDMqUKQM3NzfUqFEDjo6OGDhwINLS0uSH05PfFrTRhfI33TaFiIiIiIjyjzwfKgEgISFB3pQtBQoUgJ+fHwYNGoSIiAjMnj0b//77LxISEjB+/HgcOHAAdnZ2aNGihTSts3DhwtBqtYiJiYGJiQmaN2+O6dOnY/ny5Th27BjOnz+PBQsWwNjYWH44ICMUKxQKPHr0KMujmnmBVqsF8uEILBERERER6cvz96ls3749QkJCcO/ePRga5m5GViqV2LBhA9q1a4eiRYtK7RqNBi9evECBAgX0+meFEAJXrlyBvb09ChcuLC/nWWvWrMGkSZMwf/58dOjQQV4mIiIiIqJ8IndT2EegW6AnMTFRXspxlpaW6Nevn16gBACFQpGtQImM51+1atV8FSjxykhlcnKyvERERERERPlIng+VutHJjxEqKevS09MBhkoiIiIionyPoZJyhW5WdX5bgIiIiIiIiPTl+VD5Mae/UtbpRipfvHghLxERERERUT6Sb0Lls2fP5CX6hHShMj+taEtERERERK/L86FSN/01p+5VSTlDFybfdX9OIiIiIiLK2/J8qNSNVDK8fF50oZIjlURERERE+VueD5VGRkYAgJcvX8pL2aJWq7M96qlSqbBv3z4kJCTIS18c3S1FdNNgiYiIiIgof8rzoVIXXnJipFKtVmPo0KGoVKkSRo4ciVOnTr1XwDx9+jQGDhyI7du3y0s5QqlUZimkpaenIyIiIkt9c0tO/l6IiIiIiOjzledDpS445UR4MTExQa1ataDVarF9+3Z0794drq6u8PDwwNatW6FSqeSbSIQQOHHiBACgXLly8jKQMRU0JiYGJ06cQGBgIObNm4fx48dj/PjxGDlyJIYNG4awsDCpf2pqKpYtWwZnZ2eUKVMGVapUwcmTJ/X2GRAQgJkzZ+pNMw0KCkKTJk1e6/sx5eTvhYiIiIiIPl95PlTq7oeYE9NfDQwM0K5dO9jZ2aF+/fo4cOAAZs6cCTMzM4wePRpubm7Yvn27dMxXPXjwAPv379dr02g0OHHiBEaNGoXq1avD0dER33zzDby9vTFo0CAsWLAAO3fuxPHjxxEUFITz588jMDBQ2nbKlCn4888/4eXlhcGDByM9PR1r165FamqqdIyQkBAcPXoUSUlJUltqaipMTExQqFAhqe1j041UvulcERERERFR/pHnQ2VujYh5enqiYsWK6N69O/bt24ewsDCMHDkSY8eOhZ+fn15fjUaDFStW4MmTJ7C0tESxYsWQnJyMzp07w9vbGzt27ICTkxOmT5+O+fPnw8HBAe3atcP9+/cRFhaGoKAg6TFq1CgAwD///IOtW7di8eLFmDZtGsaOHYsePXrgzJkzCA8Pl45dvHhxKJXK1xbEKVy4MEqUKKHX9jHpfi+6hZSIiIiIiCh/YqiUiY6ORnp6OipVqiS1KZVKxMbGwtzcHMbGxjh9+jTUarVUDwoKwvbt2zFq1CjY2NgAAKysrNCpUyf8/PPPuH79OjZt2oSePXuiefPmKFq0KFxcXDINXPHx8di4cSMGDRqEli1bAhnh7Ntvv0VqaiqePn0q9U1PT4e9vT0sLS2ltvDwcJQsWVKv7WP7lNdzEhERERHRx5PnQ2VOLwhz7949xMbGom3btnBzc0O5cuXg6uqKRo0aYerUqXB3d8eMGTNgamoKAIiMjMRvv/2G9u3bo169etJ+DAwM4O3tjREjRsDCwuKVI7xbSEgIEhMT0b59e73g6eHhgYCAANSuXVtqi4iIQLFixaRjCCEQFhYGOzu79z5uTtL9XnT3ESUiIiIiovwpz7/jz+kRsZCQEABAmTJl0LJlS/z55584ePAgLl++jPv372PVqlUoVaoUACA5ORljxoyBnZ0dfvnlFxgbG8v2lj137txBmTJlUKxYMb12hUKBqlWrSmExNTUV8fHxuH37NmbMmIHx48dj8ODB2Lt3L9zc3DIdCf0YOP2ViIiIiOjLkG9Cpe5+lR9Co9EgNjYW7dq1w/HjxzF79mx4eXnB2dkZhQoV0gtIQgisX78eFy9eRP/+/ZGSkoLg4GDExMTgr7/+0lvF9U1iYmLkTZISJUrg7t27iIqKkpf07NmzB8ePH0dYWBj8/PywceNGBAYGQqPRZLoC7cfCUElERERE9GXI86FSN80yJ0YJ1Wo1EhMToVAo3hmG9u/fj//9739ITU2Fj48P6tSpg+nTp0Or1aJcuXIoXbq0fBM9ycnJ8iZJgwYNULx4cYwePRqPHz+WlyUVKlSAmZkZWrZsiRMnTiAiIgJ79uyBubm5vOtHp1v1ldNfiYiIiIjytzz/jl83IqZQKOSl96ZWq/H06VOoVKrXVlPVEUJg7969GDZsGGrUqIEJEybg4MGDuH37NoKCglC8eHE4ODjAyspKvqmetx3D1tYW//zzDxQKBRo0aIAhQ4YgICAAS5cuxfjx4+Hn5weNRgNDQ0MYGBigatWqKFOmTI6M1ua0d4VzIiIiIiLK2xgqX2FsbAwrKytotdpMr9U8fPgwhg0bBh8fH2zatAkDBw6Es7MzTE1N8ezZMyQnJ+PKlSvyzSQGBgYwMjJCbGys3v0m5UqVKoWtW7fi77//xsOHDzF8+HD88ccfOHfunLRIkKWlJQoXLoxq1apJ2xUrVuyT3p9SRzdSyVBJRERERJS/5flQmZPTXwsUKIDFixdj3rx5UnCTU6lUWLlyJX755ZfXgmyFChXQtWtXuLq66rW/ysLCApMmTYKvr+87RzMVCgU8PT2xe/duPHjwAA8ePMB///0Hb29vKBQKODg44MyZM6hTp460jY2NDdzc3PT28yl9jqOnRERERESUc/J8qMzJkUoAsLOze2vYa9euHRo1avTGETiFQoEpU6agV69e8pKeihUromTJkvLmHGFqaoqpU6eievXq8tJHpRupNDExkZeIiIiIiCgfyTehMidGKvOLEiVKoHDhwvLmT4KhkoiIiIgof8s3oTKnRiopZ3CkkoiIiIjoy5DnQ6VuBVWGys+LbnowR5CJiIiIiPK3PB8qOVL5edLdn5KhkoiIiIgof8vzoTItLQ0AYG5uLi/RJ6QLlZz+SkRERESUv+X5UKm7dq9AgQLyEn1CDJVERERERF8GhspX3Lx5E1evXpWu06TsY6gkIiIiIvoyMFS+4tChQ2jTpg0qVKiAXr164eLFi9I1m+9LqVRCrVbLmwEADx48wJYtW94rvL5tfzklJ4/BayqJiIiIiL4M+SZU2tjYyEvvbfDgwdi4cSOqVKmC//77Dx07dkSzZs1w8ODBTMOlEAJpaWnQaDQICQnB6NGj4eLiAldXVzg5OcHHxwdKpVJvG39/fwQEBODly5d67cjm/nTUajUiIyNx+PBh7Nq1CzNnzsT48eMxfvx4DBs2DBMmTEB0dPQHHSOrjIyMAI5UEhERERHlewZCl8ryKGdnZ6SmpuL8+fMoWrSovJwtiYmJ6Nu3Lzw9PXHixAkcO3YMVapUwfz58+Hg4KDXd8WKFZgxY4b0fZ06ddC6dWsUKVIE8fHx2L59O1auXIkiRYoAGaFxzJgxKFasGMaMGfPKnv6/99mfSqXCf//9h927d+P48eNQqVR6+0JG2La0tJS+HzNmDJ4+fZrlY2TXjBkzsGLFCixYsADt27eXl4mIiIiIKJ/I8yOVuhGxnJj+qpOWloaoqCiUKVMGa9asweHDhwEAnp6eOHr0qF5fCwsLAIC3tzcuX76MzZs3o2fPnvD09ETPnj2xc+dOvXB27949nD59GnXr1n1lL/8nq/t79OgRPDw8MHjwYBw6dAgNGzbErFmz8Oeff8La2hpjxozBgwcPcPXqVQQFBUmPjh07ZvkYH0I3QmlmZiYvERERERFRPpIvQqWhoWGu3lKkQoUK2LFjBwYMGIARI0bg8uXLUq1y5cqws7ODl5cXChUqJLWr1WrExcUhLi5O7zrFq1evwtzcHBUrVpTaXpXV/ZUoUQJeXl6YMWMGbt26haVLl8LLywtNmjSBlZVVpvvHexzjQzBUEhERERF9GfJ8qDQ1NYW1tbW8+YM8ffoUz58/12tTKBQYOnQoPD09MXLkSERHR0s1rVaL4OBgBAYG4o8//oC7uzucnJxQq1Yt1KpVC+3atUNiYiI0Gg2OHDmCBg0avHUkMCv7S05OxsiRI+Ht7Q2FQiHfxTtl5RiJiYnyzbJMt0CPqampvERERERERPlIng+VFhYWOTr1FQA0Gg20Wu1rq7MqFAoMGTIESqUSAQEBAIDY2FjExMRg2rRpGDRoELZu3Yo2bdpg586dCA0NRWhoKHx9fWFtbY27d+8iODgY3333nd5+X/U++8uuj3EM3UglF+ohIiIiIsrf8kWotLKykjd/EBsbG1hZWSE0NFRegpWVFWxtbREeHg4ASElJgbm5Obp27YqNGzfi/PnzmDBhAqpWrQpra2tYW1ujfPnyMDIyQmBgIIoWLQonJyf5biXvs7+3iY2NlTdJcuoYb6MboeRIJRERERFR/pbnQ6VCofigaZpvUqhQIZQqVQohISF6K6o+evQIY8aMQVhYGFq1agUAePz4MapUqYIpU6bA3d1dCmJJSUmIj4+XRjuVSiXOnj2LChUqvPX2J1nd37skJSXJmyQ5dYy30V2TqVsUiIiIiIiI8qc8HyqFEIiNjc2RIKRToEAB9OnTB1qtFjt27MCYMWPg7u6O+vXrIygoCAsXLkTTpk0BABEREQgODkbjxo3h6OiIMmXKoEyZMnBzc0ONGjXg6OiIgQMHIi0tDQAQGBiIBQsWIDAwEIGBgVi7di1+/fVXHDt2DEKI995fZlJSUuRNkpw6xtvoQm1OT00mIiIiIqLPS56/T2Xr1q1x7do1HD16FI6OjvLye9HdW1HOxsYG7u7u6Ny5Mxo1aqS3MM6r21hYWKB+/fpo0KABihUrBicnJ1haWsLGxgampqbYv38/hgwZkmkAXrNmDU6dOpXl/b1JfHw8OnTogGrVqmHevHlvXMTnfZ5zdk2ePBmrV6/GzZs3c3VlXiIiIiIi+rTyTahcvXo1PDw85OX3EhYWhj179uDrr7+Gi4sLChYsiIIFC8LAwEDeVY9Go8GLFy+yNConhMCzZ8+QlpYGIyMj2NjYIDk5Genp6ShYsCAUCsV77U9OCIErV67A3t4ehQsXlpclH3KMrPj5558REBCAe/fuyUtERERERJSP5JtQOXbsWAwZMkRepk+kc+fOiI+Px7Fjx+QlIiIiIiLKR/L8NZXFixcHAAQHB8tL9IlotVqEhoaicuXK8hIREREREeUzeT5UVqlSBQBw/vx5aLVaeZk+gYiICKSmpsLNzU1eIiIiIiKifCbPh0rdaJhSqcTNmzflZfoEdPf3ZKgkIiIiIsr/8nyorFGjhvT1vn379Gr0aezbtw+FChVCzZo15SUiIiIiIspn8nyoLFCgAOrUqQMA2LRpE6fAfmLR0dE4dOgQ2rVr98bbmRARERERUf6S50MlAPTv3x8AEBcXh0OHDsnL9BH5+flBq9WiW7du8hIREREREeVD+SJUNm7cGOXLlwcAzJo1C2lpafIu9BHcvn0b/v7++Prrr1GxYkV5mYiIiIiI8qF8ESoNDAzQr18/AMCdO3cwb948eRfKZWq1Gv3794darcbkyZPlZSIiIiIiyqfyRagEgO+//x6NGjUCACxevBiXLl2Sd6FcNHbsWNy7dw/9+vXDN998Iy8TEREREVE+ZSCEEPLGvEqlUqFz5864fv06zMzMMH/+fLRq1UrejXJQUlISBgwYgDNnzsDFxQX79++XdyEiIiIionws34xUAoCFhQXWrFmD0qVLIzU1FQMHDuRU2Fx09+5dfPfddzhz5gyqVq2KzZs3y7sQEREREVE+l69GKnWSkpLw888/4/DhwwCAChUqwMfHB127doWpqam8O72nGzduYOXKldi2bRsAwMPDA0uWLIG5ubm8KxERERER5XP5MlTq+Pn5Yd68eVAqlUDGPS1btmyJevXqoU6dOihRooR8E3qD1NRUXLx4EUFBQTh+/DiuXr0KAChVqhRGjRqFjh07yjchIiIiIqIvRL4OlcgIRLt378amTZtw4cIFvVq5cuVQunRpWFlZSY8CBQrAwMBAr9/7MDAwgKGhofQwMjJ67XsDA4M3tmf2vXwbIyMj+WGzRaVSISUl5bU/X30kJCQgJCREbzsHBwf07t0bPXv21GsnIiIiIqIvT74Pla+KiorC0aNHceLECZw+fRopKSnyLiRjaWmJkiVLokKFCqhfvz7q1KkDBwcHeTciIiIiIvpCfVGhUk6pVCIpKQlJSUlITk6GRqOR2lUqFVQqlfR1amoqkpOTX2uXf52UlCQ/zEdnbm4OCwsLWFlZwdLS8rWHblTWwsJCr61AgQIwNzeXvre0tISNjY1890RERERERJIvOlTmNpVKhfT0dGg0mnf++erXBgYGUCgUMDIyeuOfuser3xsZGcHMzEz+FIiIiIiIiHIVQyURERERERFlW766TyURERERERF9XAyVRERERERElG0MlURERERERJRtDJVERERERESUbQyVRERERERElG0MlURERERERJRtDJVERERERESUbQyVRERERERElG0MlURERERERJRtDJVERERERESUbQyVRERERERElG0MlURERERERJRtDJVERERERESUbQyVRERERERElG0MlURERERERJRtDJVERERERESUbQyVRERERERElG0MlURERERERJRtDJVERERERESUbQyVRERERERElG0MlURERERERJRtDJVERERERESUbQyVRERERERElG0MlURERERERJRtDJVERERERESUbQyVRERERERElG0MlURERERERJRtDJVERERERESUbQyVRERERERElG0MlURERERERJRtDJVERERERESUbQyVRERERERElG0MlURERERERJRtDJVERERERESUbQyVRERERERElG0MlURERERERJRtDJVERERERESUbQyVRERERERElG0MlURERERERJRtDJVERERERESUbQyVRERERERElG0MlURERERERJRtDJV5gFqthlqtljfTWwghoFQqIYSQl4iIiIiIKAcxVALQaDSYN28e/P39P8sQsmrVKgwYMOCjBMtjx45h/PjxSE5OlpfylCdPnsDT0xOnT5+Wlz6a5ORkbNmyBSqVSl7Sk1/OORERERF9mRgqMwLI5s2bsWfPnncGgE/l1q1beP78ubw5RwkhsGPHDgQEBOD+/fvycp7z8uVLhIaGyps/mitXrmDs2LE4ceKEvCTJb+eciIiIiL48DJUAzp8/j9jYWDg5OcHU1FRefm8RERHo378/oqOj5aXP2uPHj3Hu3DmULVsWRYoUkZdz3dy5c7F69Wp5c5714MEDCCFw7949eUnyqc/5x5ZXXxtERERElLkvPlSmpqZi27Zt+Pbbb/HLL79AoVDIu7w3pVKJEydO4Pr16/ISVCoVDh48iCdPnshLb1WyZElYWlrKm3PU0aNHoVKpsGDBApQoUUJeznWRkZHYt28flEqlvITIyEgcOnQIGo1GXnqrcuXKyZs+2I0bNxAUFPTOqdJXrlyRN73mU5/zj+1trw0iIiIiypu++FB59uxZnD59Gj/88APMzMzk5RwXHByMfv36Yfjw4Vm+hi4lJQVGRkby5hwVHx+PNWvWoFWrVnB0dJSXP7kFCxagb9++8PPze2eYQ8aHBWlpaTnyIcGrVCoVZsyYgR9++AH79++XlyVCCKSmpgIAKlSoIC8DeeCcExERERFlxRcdKpVKJZYsWYJ69eqhUaNG8vJ7S09Px507d3Dq1CmkpaVh6NChcHR0RJkyZVCmTBkcO3YM9evXx7Rp0xAXF4ewsDD5Lt4oOjoa5ubm2QpISUlJiIuLe+Po36u2bt2KJ0+e4Mcff8zWcT5EcnIyTpw4gUePHuHs2bOoW7eudM5++OEHqFQqjBkzBt9//z1OnjyJZ8+eyXfxmufPn+Ply5c5/kGBhYUFZsyYgUaNGuHw4cOZLp6kUqkQGxsLAJmez095zj+2rLw2XiWEQGJiIuLi4jI9x0RERET0eTAQWRn2yaf+/fdfjB49GqtXr0aDBg3k5UzNnTsXFhYW6N27N3bs2IGrV6/C2dkZCoUCv/76q9TPzs4Onp6e8PDwgIuLCwoWLJjpiKMQApcvX0ZAQABsbW3Ro0cPFC5cGAAwcuRIAMC8efOk/unp6Th+/DiOHj0KBwcHdO3aFVZWVlJtz549+P3336VgU69ePfj5+cHCwkLah879+/fRpUsXfPfdd5g0aRIMDAzkXfRER0fD29sb/fr1g5eXl7z8RhEREZg6dSpmzpwJlUqFdevWIT09HR06dMC4ceMQHh4u9W3cuDGaNm0Kd3d3FC1a9K3TflNSUrBlyxZERESgadOmaNiwIQwMDBAaGor+/ftj+fLlcHNzk/rHxcVh06ZNePr0Kdq3b4+qVau+8+fNDqVSiT59+uD+/fvYtm0bSpcurVd/2zmPiIjApk2bAADdu3dHmTJlXtny/49wXr58GSYmJqhWrRoKFCigV89NWT1/arUaT548QYkSJWBkZIT169dj4sSJUj2z10ZqairWrFkDX19fJCUlAQC8vLwwa9asV/ZORERERJ8V8YWKj48XTZs2Fb179xYvXrzQqyUmJoqhQ4eKsmXLCnt7e9GlSxcRHx8v1X/++WcxZMgQMW7cOOHk5CT69u0rJkyYIO7cuSPmz58vdu7cKapVqyb27dunt9/MpKWliXnz5gl7e3vp4eHhIaKiooTION7PP/8s9U9KShIDBw4UDg4Oonv37sLJyUn069dPpKamirS0NDFx4kRhb28vWrZsKXbs2CEeP34snj9//soR/49WqxVTpkwRVatWFbdu3ZKX3+jq1avCzc1NnDx5UmrTarXi8OHDolatWsLe3l5UrFhRbN68WW+bOnXqiDVr1gg3NzfRsmVL4ePjI44fPy7+/fdfsWnTJvHLL7+ITp06iZSUFGm7twkPDxf169fXO2/Lly8X4pXjXb16Vep/5MgR4ezsLJo2bSpatmwpHBwcRFBQ0Ct7zD6lUimmTp0qnJycRIMGDcSiRYtEu3btxNChQ4VWq9Xrm9k512q1YsuWLdLfO3t7e1GpUiVx7do1ITKOMWnSJL2f197eXvz0008iMTFR2o9GoxFarVa8ePFCnDhxQjx+/FgIIcT169fFr7/+KuLi4qTjaTQaIYQQ9+7dE6dOnRJpaWkiLS1NzJ8/X+zatUvvub/t/CmVSjFkyBCxfft28fjxY9G0aVO930dUVNQ7XxspKSmie/fuwt7eXnTv3l0cOnRIREVFZfnvAxERERF9Gl/s9Nc9e/bgzp076N27t94UycjISHTp0gXh4eHw9fXFmTNnYGtriylTpkiLxJQoUQJ79+7F2bNnceTIEaxYsQIzZ86Eo6Mjhg8fjjp16sDU1BRPnz595Yj/Z8mSJZg8eTKQMULp5+cHX19fTJ48GREREdi6dSuUSiWePXsGpVKJyMhIaTRKCIFly5bh1KlT2L59O9atW4cZM2YgLCzstWs0a9SogWbNmqFkyZKwtrbWq+ncvn0b27ZtQ/v27TO99k/O1dUVx48fR926dYFXfob+/fujU6dO2LlzJ5YuXYpZs2bh0qVLAAAbGxtoNBpMmTIFAwYMQGBgIFavXo1vv/0W7du3h5eXF0qWLIlnz569cbqjUqlEjx49cOrUKSDj99S3b18ULFgQp0+fxt27d9G6dWtpxDM2NhYqlQrm5uZAxsjguHHj0L59e+zbtw8bNmxAhQoVsnXLkbi4OLRt2xZ37twBMp5b//79sWbNGjRu3Bju7u64desWrl+/DoVC8dpIXmbnfP/+/Rg/fjz69OmDW7du4fjx47CwsJAWdZoyZQpWr16Nli1b4tKlS7h79y6WL1+OK1euYPDgwdLvf9y4cdiyZQtCQkLQq1cvzJ07F5GRkRg8eDDWrl2Lbdu2AQCuXbuGbt26IS4uDjNnzsSPP/6IGzduwM/PD/PmzcMff/whjXS/6/wJIfDkyRNERkbi999/R2JiIuzt7bF582YkJCSgRIkSWXptAIChoSHc3d1Rv359lChR4q0j1URERET06X2RofL+/fvw9fVFq1atpGAEABqNBn/++SeEEFi7di1at24NKysrPH78GEFBQYiKigIAWFlZQavVom/fvihVqtQre9anm773Jg8ePIBarUZiYiK2bduGDh06oGfPnjAyMkLt2rVx7tw5uLi4SP2LFy8OAAgPD8f69evx8uVLrFixAj///DN+++03NG3aFLa2tlAoFPjtt98wYcIEbNy4ETVq1MCiRYuQkpLyytH/P41GgwULFsDMzAw+Pj6vhZ/MGBkZoVChQtJU3pCQEMyZMweTJk3C2LFjUbVqVSQmJuLJkyc4cuQIAMDMzAwKhQKOjo74/vvvMz2WUqnMdIXXtLQ0PHjwAABw7NgxxMTEYNq0aShVqhQUCgUWL16sN03SwsIC1tbWEEJgzZo1iIuLw5UrV/Drr7+id+/eiI2NRcOGDV85QtY9f/4cMTExQMbPf+nSJfj7+2PJkiX4888/UbNmTbx8+RLh4eF69xfN7Jyr1Wps3rwZ1atXx4gRI2BmZoayZcvi3Llz0vW+Go0GlStXxqxZs6TfdYsWLbBixQpcv34d//33HwBAq9Xi3r17mDdvHjQaDVQqFX777TekpKTAzs4OV65ckc5xUlISdu7ciYMHDwIAjh8/jtmzZ8PV1RUJCQl49OhRls9feno6VqxYgcuXL2Pt2rX4448/8PTpUymYvupNrw1LS0ssXboU3t7e+N///gd3d3ds2bJFWvCIiIiIiD5PX1yo1L1BTk5OxqBBg/QWSElISMCFCxcwevRofPXVVxBCYOPGjQgNDcWTJ0+kUbcKFSrA3NwcVapUeWXP/0ehUOiNrqjVagwYMAC7du0CAFhbW+P27dtITEyERqOBUqmEvb19ptdbIiNMIuN2FtbW1vDz84OBgQHu3buHSZMmYdy4cVJAMTMzw8CBAxEaGopx48Zh6dKlqFGjBlasWKEX2IKCgrBv3z706dMHZcuWldrfJTo6Gl27dsWOHTsAAOfOnYObmxs6d+4MAwMDREZGYv78+TAwMMCJEyfw/PlzWFpawt7eHm5ubrC1tZXvEsg4L686e/YsvLy8kJycDIVCAXNzc4SEhEAIgaSkJFhbW6NYsWJ627wqMTERsbGxSEpKwoULFzBu3Dh8//33uHbtGhwdHbFlyxY4OTnJN3snhUIBY2NjaZQuNDQUrq6u0t8H3YcWJUuWxIMHD/Dw4UNp28zOuUajwYsXL1CsWLE3XveqY2Fh8dqiPs+fP0dqaqo0KgsAS5cuxbNnz1CvXj3s378fd+7cwaZNm9C9e3ckJiZKo8EPHz7E77//jo4dO8LQ0BBz587FTz/9hGXLlsHGxgbPnz/P0vnTjagnJyfjt99+g6urK+zt7VGgQAG9DzTe9dqwsrLCtGnTcPnyZXTq1AkTJkyAu7s7du/enaVVf4mIiIjo4/viQuW1a9ewceNGdOvWDZUqVdKrGRsbw8bGBsuWLUNAQAD69euH2bNnY968eWjYsCF27NghjZoIIaDVavW21zE1NYWtra00kqW7r6Fu4Z1ixYohISEBT548gbW1NVxcXDB37lz06tULAQEBCAwMRGBgIHbv3o0XL17AyMgIGo0GQggYGhoiJiYGpqam8PX1RUBAwGu3QwkLC8OePXtgYmKCPn364OLFixg3bhzmzp2LyZMnS0HW19cX5cuXR9euXaVts+L69es4d+4cVCoVAKBw4cIICQnBqlWrsGLFCjRv3hx2dnZYuHAhbty4gZCQEGlb3c/xJsWKFYNKpUJSUhI0Gg22bdsGc3NzmJiYwNTUFIULF8ajR4+gUqlQqVIlPHnyBN999x0WLVoknbNdu3bh6tWr0rRTrVYLQ0NDGBkZ4dq1a+jevTv27NmDuXPnZnm6r5zu96sL+gqFArdu3cLZs2dx7NgxdOvWDZaWlvj7779RpEgRHD58GMgIXpmdcwsLC7i6umL37t3o0KEDNm/erPczPXnyBFWqVEFwcDACAgIQFxeHyMhILF68GD179kSHDh3g4eEh7c/AwACTJk1C8eLFYWBggAkTJqB8+fJwdnZGVFSUNFVWq9WicePG6NatG7RaLdzd3dG3b1/Y2tqibNmyCA8Pz9L5S0pKgkqlQpcuXdCsWTMgY8qzjY0Nbt++LfV712tDdw4LFiyIX375BVeuXEHHjh0xYsQI+Pn5SfshIiIios+I/CLL/CwtLU2MGTNG1KxZU9y7d09eFkIIsW/fPuHg4CDs7e1FtWrVxOHDh4VWqxUHDx4UVatWFVevXhUnT54UDg4OegvVvEqr1Ypff/1VlC1bVtSqVUuULVtWb0GgmzdvilatWkkL8SQnJ4uZM2eKSpUq6S3A0qtXL5GUlCSmT58umjRpIp4+fSqSkpJEt27dhKurq9i0aZOIiooSJ0+eFBMmTBCtWrUSYWFhYtOmTcI+Y6GeTZs2ib1794pNmzaJhg0bioYNG4r4+Hixb98+UbZsWbFjxw7Zs3+3u3fvihYtWojw8HAhMhYO6tmz52sLx+gWXhk1apR48eKF8PHxET4+PiI1NVW+SyEyzkulSpWEm5ubcHNzE2XLlhUnTpyQ6qtXr5YWvtFqteLs2bOiXbt2eufMyclJ7N+/X9y9e1dUq1ZNrFu3TgghRGBgoHBwcBA//vijuHHjhoiIiBDr1q0T7dq1E9OmTdNbtEYIIZ4/fy5iY2NFUFCQ2Lt3r1i0aJH44YcfxIULF6Tf76JFi4TIWDCoRo0a0nPo1q2btBjO8uXLRaNGjbJ0zl+8eCH++ecfabEj3aNVq1bi8ePHIikpSQwfPlxvIZ9GjRqJ3bt36z33SZMmiTFjxoi0tDRx6tQp8e+//0oL7sTHx4tOnTqJq1evivDwcPHtt9+Kq1eviqSkJLFkyRLp76QQQvj7+4tRo0YJkYXzl5aWJvz8/MTdu3el7XX7GDdunPT9u14b06dPF/YZC/X8+++/Yu/evcLPz09UrVpV9OjRQ6hUqlf2TkRERESfgy/qliLBwcHw9vbGb7/9hh49esjLEt1UxMxu1ZCeno7w8HCUL1/+tamIOhERERg+fDgMDQ3Rp08ftGjRQm80UaPRZLqtXGpqKu7duwcnJycYGRkhJSUFs2fPxtq1a6XR0sqVK6Nbt27o2LEjjI2NsW/fPsydOxcRERHSfhwcHDB16lS4ubnBx8cHRYoUweLFi7N1L0e1Wg1TU1O9tuTk5LfeTzMuLg7p6ekoUaKEvARkjP76+vpiw4YN8PDwQN++feHg4KBX12q1b50m/KrHjx/DxMQERYsWhRACQUFB+PXXX3H37l0gY7pt8+bN0a9fP/j7+2PdunXyXbxm0aJFaNu27WvPRalUQqlUwtjYGAULFpSmIgsh8OLFC6jV6g8+55/S287fwIED32vU922vjdTUVGzatAmLFy/WuxazWrVq+OOPP/SuMyYiIiKiz8MXEyrVajWGDh2KuLg4+Pv7ZxoY8xIhBDQaDYyNjeWlt9q8eTMmTZqEjRs3onr16vJyvqfRaGBgYCAFQo1Gg7/++gsajQYeHh5wcHCAkZGR3n1FHz9+jEOHDsHLy+ut1zxmJj+dc/n5IyIiIqIv2xcTKjUaDTZs2AA3NzdUq1ZNXv6inDt3Dg8ePEDHjh0zHVWknMVzTkRERET51RcTKomIiIiIiCjnfXGrvxIREREREVHOYagkIiIiIiKibGOoJCIiIiIiomxjqCQiIiIiIqJsY6gkIiIiIiKibGOoJCIiIiIiomxjqCQiIiIiIqJsY6gkIiIiIiKibGOoJCIiIiIiomxjqCQiIiIiIqJsY6gkIiIiIiKibGOoJCIiIiIiomxjqCQiIiIiIqJsY6gkIiIiIiKibGOoJCIiIiIiomwzEEIIeWNe9vDhQ9y8eRMxMTFISEhAfHw87t27B41GI++aIxQKBUxMTPQexsbGr33/qTx48ADXrl1DTEwMkpOTYWtrC2tra9jY2MDJyQmNGzfGt99+C0tLS/mmRERERERE75TnQ2VKSgoOHDiAs2fP4syZM3j8+LG8C2VBgwYN0KNHD7Rs2VJeIiIiIiIiylSeDZVRUVHw8/PDxo0boVKppPbKlSujadOm+Prrr+Hk5AR7e3u97bLrxYsXSE9Ph0ajkf7UPd7W/j4UCoU08qlQKGBsbAxjY2O9r42NjWFubi7fNEueP3+OqKgohIeH48yZMzh16hQePXqk16dEiRIYOnQounfvrtdORERERET0JnkuVCYnJ+P333/Hxo0bpTYHBwd06tQJbdu2zbEQ+aV49OgRduzYgdWrVyMhIUFq79evH3799Ve9vkRERERERHJ5KlQeOXIE48aNw5MnTwAArq6uGD58OKds5hB/f3/8/fffiI6OBgC0a9cOCxculHf7rCQnJ+PMmTO4ceMGnj17BqVSieTkZKSkpEjX0SYlJeHFixd48eIFVCoVkpKS5Lt5K0tLS2i1Wrx48UJekpiamsLQ0FDvYWRkBAMDA+lrQ0NDGBgYSF+/7fHqtgqFAgBgYWEBS0tLWFpawsrKCgULFkStWrVQp04d+dMhIiIiIvpo8kyo3LFjB37++Wfp+7/++gsdO3bU60MfLjk5GWPHjkVgYCAA4KeffsKYMWPk3T6pu3fvYv369Th16hRu3bolLwMAChYsiKJFi6Jw4cLyUra8OsX5TQ+NRgOtVqv3p672tjCaE6ysrFC/fn00btwYnp6eKFCggLwLEREREVGuyROhMiQkBO3btwcy3kCvXLmSozO5bOPGjRg/fjwAYM2aNWjUqJG8y0cXERGB+fPnY+fOnXrt1atXR5MmTfDNN9+gePHiKF26tF49P0lNTUVkZCQePnyI//77D/v370dsbKxUNzMzQ48ePTBw4EB89dVXetsSEREREeWGzz5URkdHw9PTEwkJCbCwsMCOHTvg4uIi70a5YM+ePRgyZAgKFCiAgwcPws7OTt7lo5k2bRpWrlwpfV+tWjX07NkTjRs3RsGCBfX6fmmuX7+OAwcOYPXq1Xj+/LnU/sMPP+C3336DhYWFXn8iIiIiopz02YfKIUOGYM+ePQCAf/75B40bN5Z3oVy0fPly/P777+jUqRPmzZsnL+e6Fy9eYMiQIThy5AiQMSo5fPjwz2Lk9HOTmpoKf39/LF++HHFxcQAAR0dHrFq1CmXLlpV3JyIiIiLKEZ91qHz8+DEaNGgArVaLwYMHY9y4cfIu9BG0adMGN2/eRHBwMAoVKiQv55r4+Hj06tULoaGhMDc3x4IFC9CiRQt5N3qDOXPmYNGiRUDGlHFfX194eHjIuxERERERfTBDecPn5O+//4ZWq4WdnR1GjRolL9NHMnToULx8+RIzZ86Ul3JVz549ERoaCnt7e+zdu5eB8j2MHj0ay5Ytg6mpKVJSUtCrVy+cPXtW3o2IiIiI6IN9tqEyLS0N//77LwBg2LBh0m0V6ONr1qwZHBwcsG3bNkRERMjLuWL27Nm4fv06qlWrhn379sHR0VHehd6hZcuW2LVrl3Qt7E8//YSnT5/KuxERERERfZDPNoHlaU0AACz5SURBVFQGBQXhxYsXsLOzQ5cuXeRl+ogMDAzQvn17aLVabNu2TV7OcSEhIVi8eDEKFSqEpUuXwsrKSt6FsqhixYrYsGEDrKys8OTJEwwZMgRarVbejYiIiIgo2z7bUHn06FEAgJeXF0cpPwPVqlUDAFy5ckVeynETJkyAEAJLly5F8eLF5WV6T+XKlcPKlSthZGSEoKAg7N69W96FiIiIiCjbPttQefjwYSBjCl9u02g0iIqKwuHDh3Hz5k15+TVKpRJqtVrenK99rFAZHByMsLAwtG7dmvcizUF16tTBn3/+CQBYunSpvExERERElG2f5eqvCQkJqFatGuzs7BAUFCQv55i4uDgsX74c/v7+SE1NBTJGdbZv3w5bW1sIIaDRaGBgYIDQ0FCsX78ee/fuhUqlAgA0atQIixcvhqWlpWzPgFqtRnx8PMLCwqBSqXDt2jUkJSUBAFQqFSwtLTFs2DCUKFFCvulnq0mTJrhz5w6OHz+ea7eo6N+/Pw4cOICDBw/C2dlZXs6z4uLiEBUVhSpVqsDAwEBe/mi6d++OU6dOYfPmzQztRERERJQjPstQefHiRXTs2BH9+/fHL7/8Ii9/sJSUFMyaNQtr165FuXLl0KZNG8TExCA9PR3dunVDzZo1AQArVqzAjBkzpO3q1KmD1q1bo0iRIoiPj8f27duxcuVKFClSBCqVCv/99x92796N48ePS8HzVTY2NnoBdMyYMejYsaNen89Z3759cejQIWzbtg21atWSlz9YTEwM6tatizp16mDjxo3ycrbFxcVh586dKFq0KFq0aAEzMzN5lxyRnp6OlJQUWFtb6wVHtVqNAQMG4L///oO1tTW+/fZbVK1aFa1bt5YW0dHRaDRISkqCjY0NjIyM9GpKpRLp6emwtrbWa38fJ0+eRI8ePdC0aVOsXLlSXiYiIiIien/iM7R161Zhb28vDh48KC99sPDwcOHh4SGqVq0qTpw4IbRarbyLZN26dcLe3l788ssvIiEhQV6WPHz4UNSuXVvY29sLBwcHMWDAALFp0yaxYcMGUalSJbFo0SL5JnnSyJEjhb29vbh48aK8lCOWLl0q7O3txbFjx+SlbIuKihIeHh7C3t5e2NvbiwYNGoigoCB5N5GWliamT58ujhw5Ii8JIYTYvHmzGDVqlEhJSREio79GoxFPnjwR69atE02bNpWO4eDgIA4dOiRtm5aWJoYMGSKaNm0qRo8eLfr27SsqVqwo7O3thYeHhzhy5Ij09zA4OFg4OzuLkydPStsLIURSUpLo3LmzqF+/vnjy5Ile7X21aNFClC1bVrx8+VJeIiIiIiJ6b5/lNZX3798HgBy/jcSNGzfg7e0NANi6dSsaNGjw1qmIlStXhp2dHby8vFCoUCGpXa1WIy4uDnFxcVCr1ShRogS8vLwwY8YM3Lp1C0uXLoWXlxeaNGkCKysrVKxYUW+/eVXBggUBAIaGufPX5uLFi7C0tETDhg3lpWxJT0+XboMyfvx4LF++HHZ2dujWrRv27dun1zcqKgoBAQF49OiRXruOiYkJ9uzZg4iICMTHx8PDwwMODg6oUaMG5s6di3r16mHRokVYsmQJmjVrhnv37knbbt++HSdPnoSvry9mz56NFStW4Nq1a9ixYwfs7OzQp08f/P7779BoNChVqhRsbGwQGhoqbS+EwPr163H+/Hn07NkTtra2Ui072rZtC61Wm6Xrh4mIiIiI3iV30sEHevDgAQDAwcFBXso2pVKJqVOnwtTUFP7+/ihfvjzUajX69++Pr7/+GiNHjsTkyZOxYMECPHv2TNpOq9UiODgYgYGB+OOPP+Du7g4nJyfUqlULtWrVQrt27ZCcnIyRI0fC29s7X69UqwuVxsbG8lKOCA4OzrFptRqNBpMmTcKcOXPg7OyMFi1aoEWLFli9ejW6dOmCiRMn4vbt21L/S5cuwcjICI0bN9bbj86rU2YNDQ1hamoKOzs7rFu3DufPn8eUKVPQtm1beHp6YunSpejXr5/U39TUFM+ePdMLrEZGRqhRowb8/f0xadIkrFixAqdOnYKFhQWKFi2KsLAwCCGQnp6Of/75B7Nnz8Yvv/yCvn37vvWDkKyoXr06kPEhCxERERHRh/osQ+Xjx49RoUIFefMHOXPmDIKDgzF+/HiULFlSr5aSkoLt27dj9erVmDdvnnQ9X2xsLGJiYjBt2jQMGjQIW7duRZs2bbBz506EhoYiNDQUvr6+H3SNW16iC5W5ISIiAomJidIqsx9CCIHff/8d69atw4QJE7B//37pAwozMzMMHjwYCoUCe/fuBTIC6P79+1GtWrVMF056deSxcOHCqFy5MurWrYsGDRpI1z4KIZCYmIi4uDgkJiZCd7my7j6bSqUSgwYNwtSpUxEZGYm4uDjcvHkTJ06cgLGxMaytrWFtbQ1nZ2eEhITg8uXLmDx5MqZNm4bx48frBcoVK1agVatWSExMlJ5XVlWtWhUAcP36dXmJiIiIiOi9fZahEhkjOTnpzp07KFSokN6Koqampli+fDkiIiJw6dIlLF68GEZGRtJoY0pKCszNzdG1a1ds3LgR58+fx4QJE1C1alUpAJQvX/6dzzU2NlbelCe9el5ymm7UUDeK9iHu3r2LHTt2oFu3bm8c2StVqhRq1KiB8+fPQ6VSQa1WIzExEcWKFXvjSLNGo8GNGzdgY2ODIkWKSO1xcXE4cOAANm/ejJ49e6J8+fKoWrUqatWqhapVq2LLli1SX3Nzc9jY2CA8PByrVq2Cu7s7atWqhZYtWyIiIgLr1q1D9erVYWBggHbt2uHx48do3749tm3bhhUrVrz2c4SFhaFYsWKwsLCQ2rLKzMwMNjY2OHv2rLxERERERPTePstQaWJikuP3gSxZsiQSEhJw4MABaQRJRwiBkydPYuzYsTA0NESNGjWAjBHTKlWqYMqUKXB3d5fCY1JSEuLj46HRaPT2kxndrUTyOq1WC+RSqNQF71KlSslL7+3+/ftQq9Xo3r27XkhcsWIFfHx8kJCQAJVKBWtra5iYmEj14sWLS1+/Kj4+HhcvXoSLiwsKFy4MpVKJyMhInDx5Ev3798fYsWORnp6OOXPmICgoCGFhYTh16hSaNm2qtx9bW1ssXLhQWvHV29sbQUFBOHr0qN7tPerXr49Zs2bB0NAQVapUgbu7+2vBePr06fj7779hamqq155VJiYm+ebDDiIiIiL6tL6YUOnh4QF3d3f88ccf6NKlC3x9fTFz5kz88MMPcHZ2xogRI5CSkgJ3d3e4uroCGVMyg4OD0bhxYzg6OqJMmTIoU6YM3NzcUKNGDTg6OmLgwIFIS0uTH05PboSwT0EXqnPj59EFnKJFi8pL2SKEkEKwTnh4OI4dO4b27dvj5MmT8PT01Audmf1cQUFBiIqKQqtWrWBqagqNRgOVSoVq1aphzJgxuHz5MtavX48OHTrAzs4OFhYWKF26tN6COmlpaUhNTYWrqyt27dqFZs2aYf369di/f/9rgdHAwADNmzdHpUqV9NpfZWlp+cb7o2aVsbFxrt1ahYiIiIi+LF9MqCxQoAD8/PwwaNAgREREYPbs2fj333+RkJCA8ePH48CBA7Czs9O7j2HhwoWh1WoRExMDExMTNG/eHNOnT8fy5ctx7NgxnD9/HgsWLMh04RpDQ0MoFAo8evQoy6Oan7PcDpUKhUK6/vBDlC5dGiYmJli27P+1d+9hUdZ5H8ffI6OCIIhGnmWNPGCpeE603cwsQ81DT1DrqYPH8rSsutpaafpQeag0tfWwuuW1mau46raUiopaopJi+iiZpzzgKQgFBhmZgeePh5lHbjEFZmxYP6/r4hLu72/ue3TG65oP39/9+y0q8lyjoqLw9vYmNTWVli1b0qVLFygMaE2bNmXDhg2cO3fuhjPB119/zZtvvkl4eDgREREA5OTkcPnyZUaNGsWoUaOcKwPbbDbS0tKK7UzbbDauXr0KQFBQEH/5y1+Ijo7m7bff5p133rnp/WE2m6lSpcotp7j+7W9/o3///qW6p5LCqd8KlSIiIiLiCqYC41xQDzBy5Eh27NhxVxcSsVgsfPbZZ/Tu3btIt8xms3Ht2jWqVq1aZPydKCgo4LvvvqNBgwZUr17dWC531q1bx9ixY3n99dcZPny4sVwmAwYM4PTp0+zcudNYKrGCggIWLVrEO++8Q4UKFejatSs5OTkkJyeTk5MDwFNPPcXChQudncoffvjBGTqHDRtGYGAg//znP0lISKB9+/YsXLiQoKAgAA4dOsRzzz1HpUqVMJvNpKenF7k+haFw5cqVtG/fnqSkJJ5//nnGjx/PyJEjnWMKCgqIj49n9OjRPPvss0ybNs35fNLS0ujbty9RUVGMGjXqhjP/33v15Zdf5ueff+bzzz8v1RYjTz31FCaTia+++spYEhEREREpEY/sVFauXJnr168bD7uVr68vQ4cOvWn6pdlsLlWgpHAaY1hY2H9EoMTNC/VcvXqVgIAA4+FSMZlMDB8+nE8++YT69euzefNmEhMTadCgAfPmzWPKlCns2LGDzZs3Ox/TuHFjPv74YypWrMjUqVMZO3Ys+/fvZ8SIESxfvtwZKCl8r1SpUoWrV6+Snp5O48aNGTJkCB999BGrVq0iKSmJb7/91rk9So0aNahZs+ZN01lNJhPdunXjww8/JDU1tUh3/sKFC6Snp9/0GAqv37x5c8LDw0sVKCmc/nqrDruIiIiISEl4ZKdy4sSJrFq1yrlfpXiGjRs3MmzYMF5++WXeeustY7lMIiIiuHbtGtu2bTOWXM7RyVy4cCHLly93LszkYLVasdlst71nMSsrCx8fn2JXjC2rjIwM/vSnP/HWW2/dtAUOhR10bgj6JdWjRw+uX79eJFiLiIiIiJSGx3YqgbverZRf5s5Opd1uJysry3jYLUwmE0OGDKFXr1689NJLN02zrly58m0DJYX36ZY21N1OYGAgixcvLjZQUvhalOXadrsdi8ViPCwiIiIiUmIeGSod2zy4erEeKRtHiHHH65Kfn++83/FuMJvNzJgxgx07dhTZu/RecrtVi0VERERE7oRHh0p1Kj2L4x48d4SR/Pz8u945M5lMVKtWrUwdv/LKZDLp/5eIiIiIuIRHh0p3dMSk9Bzhy263G0tl5thT8m4Hy3uVQqWIiIiIuIpCpdwxd3cqKdwDUtyvQoUKCpUiIiIi4hIeGSodC/W4OlRarVZ1wsrA29sbblh51JUcodJViwBZLBa3dFT/U1SoUMEtr6OIiIiI3Hs8MlS6455Kq9XK6NGjefjhh4mOjubrr78uUcC0WCzs3r2bH3744Y4/jGdkZLBkyRJ69uzJRx99dMeP81ReXl7gplDp2NnGFZ1Ki8XCyy+/zOeff24sSaEKFf7vv35ubq6xJCIiIiJSIh4ZKt3RqaxUqRLt2rUjPz+f2NhY+vfvT7NmzejSpQurV68uNswUFBQQGxtLSEgIzZo1Iyoqim7dutGkSRMWLVpUbLiy2WzEx8fTp08fwsLCiImJwcfHh7NnzxbbOcvMzOTo0aPExcWxatUqpkyZwqRJk5g0aRIjRoxg8eLFxV7n1+C4p9Idz8cRKl3VqQTYt2+f8ZAUMplM4KapzCIiIiJyb/HIUOmOTqXJZKJ3797UqVOHzp07s3HjRmJiYvD29mb8+PE0b96c2NhYZ7gB+Oqrrxg/fjw2m43evXuza9cudu3aRf/+/YmJiWHKlCnOgJWbm0tsbCyPPvoor7zyCmfOnGHy5MkcOnSI1atXM3PmTCpXrsz58+dZsmQJvXv3pmHDhjRv3pwnn3ySkSNHMnHiRFasWMGWLVvYvn073333HevWrePMmTM3/E1+PY57Kt0ZKosL955mzpw5/O1vfzMeLlccnUpX/h8TERERkXuTR4dKV3YqbxQREUHTpk3p378/X375JSkpKURHRzNx4kSWLl0KwA8//MDrr79OrVq1mD9/PjNnzqRu3brUrVuXadOmMXv2bFavXs3y5csBWL58OdHR0Xh7exMbG0tSUhIjRozAz8/Ped0NGzbQsWNHZsyYwYULFxg8eDAfffQRI0aMwNvbmw0bNnD69GmSkpJITEwkMTGRuLg4HnjgAec5fk13Y/qrKzuVDzzwADabjW3btnH69Glj+bZSU1PZvHnzTX/f1NRUvvzyyxJNn/Y07txzVERERETuLR4dKm/sGrrChQsXsNvtPPzww85jFouFS5cu4ePjQ8WKFfnmm2/Izc1lxYoV2Gw2Pv74Y3r16uVcpIbCrmffvn3p2rUrsbGxZGRk0LFjR/z9/Tl58iQbNmwgMzPTOd6hTZs2REVFERsby969e5k6dSrPPPMM7dq1o3r16tSuXdv4EI/iztVfHVzRqbTZbOTk5ODl5cWxY8d47bXXGDx4MKmpqcahv2ju3LkMGTKEpUuXuvy9+GtTp1JEREREXMUjQ6Xj3kNXf+A9deoUly5d4plnnqF58+Y0bNiQZs2a8dhjjzFt2jTCw8OZMWMG2dnZJCQk0K9fP8LCwoyngcJOj5+fH9WrV6dy5cqEhYWxadMmIiMjWbFiBWFhYQwePJhjx445H1O3bl1mzpxJ27Zti5yrvHB0t9zBlZ1Kq9VKWloa/v7+NG3alDlz5uDt7c2ePXuMQ3/RhAkTeP7559m5cydXrlwhKyuLHTt2cPbsWXbv3k3Hjh0JDg4mODiY3//+9y4JxHeLO++PFREREZF7i0eGSkcnzNWhMjk5GYDg4GC6d+/Ou+++y6ZNmzhw4AA//vgjy5Yto169euTn52Oz2ahVq5bxFE5paWkcOHCAVq1aUaVKFQBq167NrFmz2L9/v/N+yieeeOI/YuVXbggijo6lK7njnsqaNWtiMpl4+umn+eqrr+jXr59xyC8KCgrivffe4+9//zsFBQX07duXgQMHsnfvXijsPMfExJCQkMCSJUuc74PywPFa/qd1YEVERETk7vPIUOmOAGaz2bh06RK9e/dm+/btzJo1i6ioKJo0aUJgYKBzNUwKP3D7+vpy4sSJYj902+12Vq5cyU8//URERISxTGBgICNGjGDXrl2MHTuWOXPmEBcXZxxWRE5OTrFTZj2JY8qk495KV3Jlp/J27HY7BQUF2O12kpKS+P7776FwevTEiRM5efKk8SEEBgYyatQoZs6cycCBA2nXrh3z58+nf//+NGzYEF9fX+NDPJo6lSIiIiLiKh4ZKh2dSsfWIq5gtVrJyMjAbDYXCZDFCQwMJCwsjC+++IJt27YVqWVnZzNhwgTmzJnDmDFjaNasGcePH2f69Ok3hRFvb28GDBhAcHAwu3fvLlIzslqtXLt2zXjYI7mjU+l4TVzRqbx06RIWi8V5H2x8fDwvvviic1GaxYsX89///d+cOXOG4cOH89Zbb3HhwgX++Mc/smrVKhYuXEhBQQEWi4UBAwbw9ddfYzKZ6NOnD1FRUdStW5crV66U60VuHL8gKO6XJiIiIiIiJeGRodLRPXF1qExPTycnJ+e23RmTycSQIUMIDAzkpZdeYvDgwXz66acMHz6c5s2bs379eubMmcOQIUMwmUykpaWxbNkyunbtypAhQ5z7TEZHR9OzZ09+/vlnIiMjjZcpIi8vz+M3oncEP3d0Kh3ndlWn0tfXl4CAAOfP586dK7Ja68WLF1mwYAHp6enk5+fz/vvvs3//fh588EGOHj3q7Brn5eUVu3KsxWK57fvIkzlew+L2ThURERERKYl7JlRWrFgRPz8/8vPz7+iDdNOmTVm7di3PP/88e/fu5Y033iApKcnZuXr22WedQahDhw6sXbuWHj16sHfvXlauXMnKlSv58ssveeihh1i7du0tF/yhcCqi3W7n8uXLxpJHcfx93dGpdHDVNh0ZGRlcunQJCjvGly9fLrL66xdffMHWrVt55plnSEpKYuPGjSxdupQJEyaQlpaG1WrFbDbj4+NDcnJykY6ev7+/83uA3bt3ExUVRVZWVpHjnszRqczPzzeWRERERERKxCNDpTumv1atWpWFCxfy/vvv3/F5a9euzXvvvUdKSgqnT59m//79TJ8+/aatP0wmE61atWL+/PkcPHiQ06dPc/r0aVJSUli+fDmNGjUqMt6offv2rFmzhqeeespY8kju7FS6IlSazWYqVKjg/OVEQEAA169fd4ZMCqd9RkdH06xZMwoKCnj11Vfp1KkTdevWhcIptJUrV6Z69eqcPXu2yLTcmjVrOu+BtdlsrFmzBh8fH+dWOOWBQqWIiIiIuIpHhkp3dCoB6tSpg5+fn/Hwr65KlSq0bdvWrVt2uMLd6FS64h6/WrVq0aBBAxITE6HwlwNNmzYlKCgICjuNjzzyCH379nVuJ+OYytyoUSNCQ0OdAbRly5bUrFmzyMqu9evXJz8/n379+tG6dWtiY2N55ZVXXP5+dSfHLwYUKkVERESkrDwyVLqjUymu445OpYNjcZ2yCAwM5NNPP2Xo0KEA3HfffcTGxtKiRQsA+vfvz6pVq/D19SU0NJQXX3zRGei9vb1ZtmwZTzzxBACDBg3igw8+KLK4U+PGjRk2bBi+vr707NmTLVu28Oijjzrr5YHuqRQRERERV/HIUOmuTqWUjaOr5c5OpY+Pj/FQqdx///3Uq1fP+bOXl9dtV/0tjslkuilEm0wmRo8eTWJiIjExMTzwwANF6uWBpr+KiIiIiKsoVModc+fr4gh8ruhUyu0pVIqIiIiIq3hkqHRMfy1PC5/cCxyvi6u6iTdSqPx1lKZ7KyIiIiJyI48Mle7siEnpOV4Xd4ZKd5xbbs3RsRQRERERKS2P/ERptVqhcFVU8RyOTqU7Xxd1Ku8u4/2iIiIiIiIl5dGh0pW+//57Dh486Oy2Scm5M1Q6OpXqTt9dCpUiIiIiUlYeGypdvcLo5s2b6dWrF40aNeLFF19k3759pd5OwWKx3DL4nj59mn/84x8lCq+/dD5XccU1cnNzwU3dRE1//XUoVIqIiIhIWd0zofLVV19l5cqVtGzZkm3bttGvXz+6devGpk2bbhkuCwoKyMvLw2azkZyczPjx4wkNDaVZs2Y0btyYwYMHY7FYijxmxYoVrFu3juvXrxc5TinP52C1WklNTSU+Pp4NGzYQExPDpEmTmDRpEmPGjGHy5MlcuHChTNe4HUeodEfw00I9vw6FShEREREpK48Mlbm5uS5f+dXLy4vw8HCWL19O27ZtefPNN6lfvz5Dhw6lb9++nDx50vgQli5dyoMPPkhISAh9+vTh7NmzTJ48mY8//pjp06dz5coVrl275hxfUFDAlStXaNWqVbFTREtyvpycHP79738zYsQIQkNDady4MeHh4bzyyiuMHj2aRYsWERcXx/bt20lKSiIhIYHExMQSXaOksrOzwc3TXxUq746CggLQQj0iIiIi4gIe+YnSarW6JbhQeF/g+fPnCQ4O5pNPPiE+Ph6AiIgItm7dWmSs4zkMHDiQAwcOsGrVKgYNGkRERASDBg1i/fr13Hfffc7xp06d4ptvvqFjx443nOX/3en5zp49S5cuXXj11VfZvHkzv/vd75g5cybvvvsu/v7+TJgwgdOnT3Pw4EESExOdX/369bvja5RGTk4OuClUOsKNO84tN3PsT2k2m40lEREREZES8dhQ6Y4plsVp1KgRa9euZfjw4YwbN44DBw44ay1atKBOnTpERUURGBjoPG61Wrl8+TKXL18ucp/iwYMH8fHxoWnTps5jN7rT89WuXZuoqChmzJjB0aNH+ctf/kJUVBRdu3bFz8/vluenBNcoDUeH052vjRbquTscoVLTX0VERESkrDwyVObn5+Pn52c87BLp6elcvXq1yDGz2czo0aOJiIggOjqaCxcuOGv5+fns3buXuLg43nnnHcLDw2ncuDHt2rWjXbt29O7dm4yMDGw2G1u2bOHRRx/9xU7gnZwvKyuL6OhoBg4cWKpO0p1cIyMjw/iw23LcJ+rr62sslZmmv95djlCp6a8iIiIiUlYe+YnSbrdz6tQp42GXsNls5Ofn37Q6q9ls5rXXXsNisbBu3ToALl26xMWLF3n77bcZOXIkq1evplevXqxfv55Dhw5x6NAh5s+fj7+/PydOnGDv3r307NmzyHlvVJLzlZY7r3H27FkAatWqZSy5jCu7oDabjT179tyVrWRyc3NZv349kyZNYv369c5FjTyVY3EqV9+7LCIiIiL3Ho8NlZmZmZw/f95YKrOAgAD8/Pw4dOiQsYSfnx81atTg2LFjULgwjY+PD5GRkaxcuZKkpCQmT55MWFgY/v7++Pv78+CDD+Ll5UVcXBz3338/jRs3Np7WqSTn+yWXLl0yHnJy1TWKc+rUKSpVqkRQUJCxVGau7lSmpqby9NNPExkZSa9evWjZsiUJCQlFxuTm5vLee+8REhJCcHAwjz/+OMePHy8yxm63s379eh566CGCg4N54403yMzMLNLNvnDhAs899xyvv/46qampjBs3jtmzZxc5j6dxLNTjyhAvIiIiIvcmjwyVjg+8hw8fNpbKLDAwkHr16pGcnOxceIbCLtyECRNISUnh6aefBuDcuXO0bNmSqVOnEh4e7gximZmZpKWlObtfFouF3bt306hRIwICApznNLrT891OZmam8ZCTq65RnJMnTxIcHGw87FKuCpWLFy8mOzubdevWkZCQwGOPPcbo0aOd98xmZWUxfPhw1q1bxzvvvENCQgIRERGMHz+erKwsKHwfLlmyhDFjxhASEsLMmTO57777+Ne//kWPHj04efIkNpuN6dOnk5WVxaZNm1ixYgVDhgzhyJEjRd5fnsYx/VWhUkRERETKyqND5ZEjR4ylMqtatSovv/wy+fn5rF27lgkTJhAeHk7nzp1JTExk3rx5PPHEE1AYovbu3cvjjz/u7GYFBwfTvHlz2rRpQ0hICCNGjCAvLw+AuLg45s6dS1xcHHFxcXz66adMmTKFhIQECgoKSny+W3Fs7VEcV12jOMeOHaNBgwbGwy7hyk6lxWLh8OHD9OvXj1atWtGwYUPeffddmjZtyocffojVamXp0qUcPHiQZcuWERkZSf369Tl+/DiHDh3i+++/ByA5OZnZs2fTqVMn/v73vxMVFcXYsWM5f/48vr6++Pv7k5iYyJdffklmZiZz5sxhxIgRLFu2jIiICI9eydbx+rvi31tERERE7m0eGSpr1qwJwK5du4ylUpsxY4YzYI0ePZrExET+/Oc/s3HjRlq0aMFf//pXvvvuO3r16uUMONWrVyc/P5+LFy9SqVIlnnzySaZPn87ixYtJSEggKSmJuXPnUq1aNV566SXy8vJ4//33GTlyJCNHjuSNN95gxYoVDB48mO3bt9/x+SpWrGh8+lC4qIrZbObs2bO37DiW9Rq3kpKSwvXr16lfv76x5BKuDpWpqakkJyc7u45Vq1alU6dOnDt3jp9++ondu3fzyiuvEBoaCsDmzZvZvHkzdrvdOU1237592Gw2hg4dStWqVaFwquuWLVvo0KEDNWrUYPfu3YSHhzN79mzS0tLIzMxk/vz5vPDCCzc8I8+Tl5enLqWIiIiIuISpwNEW9CBz5sxh3rx5eHl5sW/fviJbY5RWSkoKX3zxBQ899BChoaFUq1aNatWqOcPMrdhsNq5du+YMFb+koKCAK1eukJeXh5eXFwEBAWRlZWG326lWrRpms7lE5zMqKCjgu+++o0GDBlSvXt1YdirLNW7lww8/5IMPPmDWrFlERkYay2XWvXt3UlJSOHr0aJmDZUpKCr///e/Jzc0lKCiI119/nZo1azqnsc6bN4/x48eTkpLCuHHj2Lt3L6tWrWLixImcP3+eXbt28Y9//IOff/6ZqKgoMjMzefLJJ7HZbGzduhWbzcbSpUvp1q0bH3zwAZ999hmrV6/mN7/5jfGpeKwBAwZw5MgR9u/fbyyJiIiIiJSIR3YqW7VqBYWLpMTHxxvLpRIaGsqECROIiIigYcOGBAYG3jZQUrgq7J2GM5PJRGBgIPfffz81atTAbDYTGBjIfffd59wapCTnMzKZTISFhf1ioKSM17iVjRs3AtCxY0djyWXMZnOZAyWFodrb25tFixbx8MMPM3z4cPr06UOtWrWYMWMG/v7+jBo1iuzsbKKjo1m3bh3Tpk1j+PDhvPDCC6SlpZGcnEzjxo2JjY3lt7/9LQcOHOD48eM0bNiQoKAgmjRpAkBkZCS+vr4MGjSIr776igsXLhAfH8+oUaP4r//6L9LT041PzyNYrVbtCSoiIiIiLuGRncr09HRat24NQLdu3Vi6dKlxiNxFhw8fJiIigqCgIL799ltj2SW6d+9OZmamS6Y8Hzp0iGHDhrF48WKaN29OXl4eZrP5pl8i2O12srOz8ff3v6l2Kx9//DE7d+5k6dKlznsmL1y4wPTp0/n3v/8NhdOUO3TowODBg3nyySdLtdKuu/Xp04fs7GyX/dJGRERERO5dHtmprFGjBp07dwZg27ZtbtlaRO6cY3uM3/72t8aSy1SqVAk/Pz/jYZeoWLFisaHRMUW5uNqtnDp1ikaNGhVZhKd27dosXLiQkydPcuLECU6dOsXnn3/O008/7ZGBksJuricvJCQiIiIi5YdHhkqAMWPGQOGH33nz5hnLcpccPnyYrVu3AtCjRw9j2WVq1arFmTNnjIdLpWbNmlSpUoXc3FxjqcS+/fZbtmzZQkFBATk5OZw7d4569eoZh0FhSHVMc/Z0J06c0EI9IiIiIuISHhsqO3ToQJs2bQBYvXq1upW/krlz5wJQp04dHn/8cWPZZYKDg7l27Ro//vijsVRilStXpkqVKvzwww/GUolYLBZmzZrFkCFDWLNmDUePHuV//ud/nCvGllcXL14kJyfHJfevioiIiIh4bKgEmDVrFr6+vthsNsaPH+/cv1Lujn/961/OBXoGDRpUommiJeVYOfXo0aPGUon5+/vTpEkTVq9e7dxSpDR8fX35wx/+QP369Rk/fjx9+vShbdu2tG3b1ji0XDlx4gSAOpUiIiIi4hIeHSpDQkKYP38+AN988w0LFy40DhE32bNnD+PGjYPC+x3dve9iw4YNAfj++++NpRIzmUwMGDAAs9lMdna2sVwijzzyCHFxcQwePJigoCDGjRtX7jt8jlCpeypFRERExBU8OlQCPP7444wePRqAmTNnum31Ufl/Gzdu5MUXX8RmswEwbtw4qlWrZhzmUo5OZVJSkrFUKmFhYaxZs4batWsbSyXm5+fH22+/zbfffkuLFi2M5XLnwIEDANStW9dYEhEREREpMY8PlQDjx4+nZ8+eALz00ksu2XZCivfRRx8xbNgwcnJyoHBfytdee804zOXq1KlDtWrV2LVrl/Pa4h4JCQkANG/e3FgSERERESmxchEqARYsWMCUKVPIzMzkhRde4M033yQtLc04TErpyJEj9OvXz7l9CECLFi1YsGBBkXHu9Lvf/Q673c7OnTuNJXGRlJQU0tPTAXj44YeNZRERERGREis3oRJg6NChrF27lho1avDJJ5/QuXNnYmJiuHLlinGo3KGff/6ZSZMm0aNHD/bt2+c8PmjQIP75z39So0aNIuPdqVOnTgDEx8cbS+IijsBetWpV6tSpYyyLiIiIiJSYqaAcLqmamZnJkiVL+Otf/4rFYoHCLUg6d+5Mp06dnFuRSPFSUlLYsWMHCQkJN00l7tGjB8OHD6dly5ZFjt8N586do1OnTvj6+pKUlISvr69xiJRR9+7dSUlJ4bHHHuOTTz4xlkVERERESqxchkqHy5cvM3v2bFatWmUsUb9+ferVq0ft2rWpW7cuXl5exiEA5OfnU1BQQH5+/i2/3FEH8PLywsvLiwoVKtzye7PZfNOx4r43m83Gv5rT5cuXOX/+PGfPniU1NZXc3Nwi9erVq9O9e3eGDRvmXIX119K7d28OHDjAn//8Z4YNG2YsSxns3LmTAQMGQOF2PZGRkcYhIiIiIiIlVq5DpUN6ejrbt29n27Zt7Ny5k4yMDOMQKVSrVi1q1apFaGgorVu3pk2bNoSEhBiH/WrWrFnDH//4R2rVqsU333zzi2FZSmbgwIHs2LGDmjVrsmvXLv3bioiIiIhL/EeESiOLxcLVq1fJzMwkKysLu92O1WrFarVy/fr1Yv+02Wxcu3at2NqNY2w2G3a7/Y7/tNvtN3UGvb29nd1Fs9lc5Psbf/by8qJixYrOn729valcuTLe3t43fd3quI+PD4GBgdx///139f7I0rp+/Trt27cnIyOD2bNn89xzzxmHSCmcPHmSLl26ADBlyhSGDh1qHCIiIiIiUir/kaFSyreYmBgWLVpEUFAQW7ZsISAgwDhESsBut/Pss8+SnJxMSEgIGzdupGLFisZhIiIiIiKlUq5Wf5V7w2uvvUaNGjX46aefGDdunLEsJTRt2jSSk5Mxm80sWLBAgVJEREREXEqhUjxOQEAAH374IQBbt25lyZIlxiFyhz777DPnKq9jxowhNDTUOEREREREpEy8pk6dOtV4UOTXFhwcTHZ2Nvv372fHjh1YrVY6d+5sHCa/YMqUKbz//vsAtGnThg8++MA4RERERESkzHRPpXisgoIC3nrrLWenrUuXLixYsED7V97GTz/9xODBgzl8+DAU7k05d+5cvL29jUNFRERERMpMoVI83vz585k1axYUbokyduxYIiMjtSWGQWpqKosWLWLNmjVYLBa8vLyYOHEiI0aMMA4VEREREXEZhUopF5KSkoiJiWH//v0A/OY3v+EPf/gD3bp1u6c7l0lJSezZs4evv/6axMRE5/GuXbvypz/9iSZNmhQZLyIiIiLiagqVUq5s2rSJmTNncuzYMeexsLAwHnnkEdq3b09QUBB+fn5UrVoVPz8/fHx8ijy+vDp37hw//vgjKSkpnDp1iuPHj7Nnzx7jMNq3b8/kyZNp3bq1sSQiIiIi4hYKlVIu7d+/n/j4eOLj4zl69KixfM8ICAigVatWtG7dmkceeYQOHToYh4iIiIiIuJVCpZR7Z86c4ciRI1y8eJHLly9z/vx5Ll++jN1uNw4FICcnh+zsbLKyssjOzubatWvGIR6hbt26PPDAAzRt2pTq1avj6+vr/KpSpQr16tUjJCTE+DARERERkbtKoVIEyM3NxWq1YrVauX79uvN7x5fNZvvFr7y8POx2+01/enl5UbFixWK/KlWq5Py+cuXKzmm7/v7+BAYGGp+iiIiIiIhHUqgUERERERGRUqtgPCAiIiIiIiJypxQqRUREREREpNQUKkVERERERKTUFCpFRERERESk1BQqRUREREREpNQUKkVERERERKTUFCpFRERERESk1BQqRUREREREpNQUKkVERERERKTUFCpFRERERESk1BQqRUREREREpNQUKkVERERERKTU/hekCE6RPhTT2gAAAABJRU5ErkJggg==;" vertex="1" parent="1">
                    <mxGeometry width="917" height="592" as="geometry"/>
                </mxCell>
            </root>
        </mxGraphModel>
    </diagram>
</mxfile>